<svg xmlns="http://www.w3.org/2000/svg" width="32" height="32">
  <rect width="32" height="32" fill="none"/>
  <g stroke="#8f00ff" stroke-width=".5" stroke-opacity=".5">
    <!-- <line x1="0" x2="0" y1="0" y2="32" transform="translate(1,0)"/> -->
    <line x1="0" x2="0" y1="0" y2="32" transform="translate(6,0)"/>
    <line x1="0" x2="0" y1="0" y2="32" transform="translate(11,0)"/>
    <line x1="0" x2="0" y1="0" y2="32" transform="translate(16,0)"/>
    <line x1="0" x2="0" y1="0" y2="32" transform="translate(21,0)"/>
    <line x1="0" x2="0" y1="0" y2="32" transform="translate(26,0)"/>
    <!-- <line x1="0" x2="0" y1="0" y2="32" transform="translate(31,0)"/> -->
    
    <!-- <line x1="0" x2="32" y1="0" y2="0" transform="translate(0,1)"/> -->
    <line x1="0" x2="32" y1="0" y2="0" transform="translate(0,6)"/>
    <line x1="0" x2="32" y1="0" y2="0" transform="translate(0,11)"/>
    <line x1="0" x2="32" y1="0" y2="0" transform="translate(0,16)"/>
    <line x1="0" x2="32" y1="0" y2="0" transform="translate(0,21)"/>
    <line x1="0" x2="32" y1="0" y2="0" transform="translate(0,26)"/>
    <!-- <line x1="0" x2="32" y1="0" y2="0" transform="translate(0,31)"/> -->
  </g>
  <g stroke="none" fill="#8f00ff" transform="translate(-1,1)">
    <rect width="5" height="30" x="7" y="0" fill="#a5f"/>
    <rect width="4" height="30" x="8" y="0"/>
    <polygon points="15,0 15,10 30,0" />
    <polygon points="15,10 15,20 25,15" />
  </g>
</svg>