<svg id="emoji" viewBox="0 0 180 108" version="1.1" xmlns="http://www.w3.org/2000/svg">
  <g id="color" transform="translate(54 18)">
    <path fill="#c8102e" d="m-54-18h180v108h-180z"/>
    <path fill="#fff" d="m-9-18h-45v108h45l27.2-10.8-27.2-10.8 27.2-10.8-27.2-10.8 26.8-10.8-26.8-10.8 26.8-10.8-26.8-10.8 26.8-10.8z"/>
    <path fill="none" stroke="#000" stroke-linejoin="round" d="m-9 3.6v-21.6"/>
    <g transform="rotate(-90)" aria-label="12">
      <path d="m3.801-12v-0.4867h1.333v-3.753h-0.04667l-1.173 1.093-0.3267-0.3533 1.233-1.153h0.8733v4.167h1.227v0.4867z"/>
      <path d="m10.81-12h-3.107v-0.5733l1.553-1.4q0.3733-0.3333 0.5733-0.6533 0.2067-0.3267 0.2067-0.66v-0.08q0-0.42-0.2267-0.6467-0.22-0.2333-0.6467-0.2333-0.4067 0-0.6467 0.2067-0.2333 0.2067-0.3533 0.5867l-0.5-0.1867q0.16-0.4733 0.52-0.78 0.3667-0.3133 0.9933-0.3133 0.68 0 1.06 0.3733 0.3867 0.3667 0.3867 0.9733 0 0.4933-0.2667 0.9067-0.26 0.4133-0.7733 0.86l-1.3 1.133h2.527z"/>
    </g>
    <path fill="none" stroke="#000" stroke-linejoin="round" d="m-54 14.4h180"/>
    <g aria-label="100">
      <path d="m30.58 11.32v-0.4867h1.333v-3.753h-0.04667l-1.173 1.093-0.3267-0.3533 1.233-1.153h0.8733v4.167h1.227v0.4867z"/>
      <path d="m36.01 11.4c-1.084 0-1.627-0.8022-1.627-2.407 0-1.604 0.5422-2.407 1.627-2.407s1.627 0.8022 1.627 2.407c0 1.604-0.5422 2.407-1.627 2.407zm0-0.4867c0.36 0 0.6244-0.1333 0.7933-0.4 0.1689-0.2711 0.2533-0.6511 0.2533-1.14v-0.76c0-0.4889-0.08445-0.8667-0.2533-1.133-0.1689-0.2711-0.4333-0.4067-0.7933-0.4067s-0.6244 0.1356-0.7933 0.4067c-0.1689 0.2667-0.2533 0.6444-0.2533 1.133v0.76c0 0.4889 0.08445 0.8689 0.2533 1.14 0.1689 0.2667 0.4333 0.4 0.7933 0.4z"/>
      <path d="m40.01 11.4c-1.084 0-1.627-0.8022-1.627-2.407 0-1.604 0.5422-2.407 1.627-2.407s1.627 0.8022 1.627 2.407c0 1.604-0.5422 2.407-1.627 2.407zm0-0.4867c0.36 0 0.6244-0.1333 0.7933-0.4 0.1689-0.2711 0.2533-0.6511 0.2533-1.14v-0.76c0-0.4889-0.08444-0.8667-0.2533-1.133-0.1689-0.2711-0.4333-0.4067-0.7933-0.4067s-0.6244 0.1356-0.7933 0.4067c-0.1689 0.2667-0.2533 0.6444-0.2533 1.133v0.76c0 0.4889 0.08444 0.8689 0.2533 1.14 0.1689 0.2667 0.4333 0.4 0.7933 0.4z"/>
    </g>
    <path fill="none" stroke="#000" stroke-linejoin="round" d="m106.5-18v108"/>
    <g transform="rotate(-90)" aria-label="60">
      <path d="m-38.02 103.5q-0.7333 0-1.16-0.4733-0.42-0.48-0.42-1.313 0-0.6467 0.2467-1.227 0.2533-0.58 0.64-1.013 0.3867-0.44 0.8-0.7067h0.72q-0.8067 0.58-1.227 1.113-0.42 0.5267-0.6067 1.3l0.03333 0.0133q0.1867-0.3133 0.46-0.4867 0.28-0.18 0.6867-0.18t0.72 0.18q0.32 0.1733 0.4933 0.5 0.18 0.32 0.18 0.7533 0 0.4533-0.1933 0.8067-0.1933 0.3467-0.5533 0.54-0.3533 0.1933-0.82 0.1933zm-0.0067-0.4733q0.4733 0 0.74-0.26 0.2667-0.2667 0.2667-0.7333v-0.0533q0-0.4667-0.2667-0.7267-0.2667-0.2667-0.74-0.2667t-0.74 0.2667q-0.2667 0.26-0.2667 0.7267v0.0533q0 0.4667 0.2667 0.7333 0.2667 0.26 0.74 0.26z"/>
      <path d="m-34.03 103.5c-1.084 0-1.627-0.8022-1.627-2.407 0-1.604 0.5422-2.407 1.627-2.407s1.627 0.8022 1.627 2.407c0 1.604-0.5422 2.407-1.627 2.407zm0-0.4867c0.36 0 0.6244-0.1333 0.7933-0.4 0.1689-0.2711 0.2533-0.6511 0.2533-1.14v-0.76c0-0.4889-0.08444-0.8667-0.2533-1.133-0.1689-0.2711-0.4333-0.4067-0.7933-0.4067s-0.6244 0.1356-0.7933 0.4067c-0.1689 0.2667-0.2533 0.6444-0.2533 1.133v0.76c0 0.4889 0.08444 0.8689 0.2533 1.14 0.1689 0.2667 0.4333 0.4 0.7933 0.4z"/>
    </g>
    <path fill="none" stroke="#000" stroke-linejoin="round" d="m-54 68.4h180"/>
    <path fill="none" stroke="#000" stroke-linejoin="round" d="m-11.5 3.6h5"/>
    <path fill="none" stroke="#000" stroke-linejoin="round" d="m-9 65.9v5"/>
    <path fill="none" stroke="#000" stroke-linejoin="round" d="m18.2 66.06v5"/>
    <g aria-label="60">
      <path d="m70.33 65.4q-0.7333 0-1.16-0.4733-0.42-0.48-0.42-1.313 0-0.6467 0.2467-1.227 0.2533-0.58 0.64-1.013 0.3867-0.44 0.8-0.7067h0.72q-0.8067 0.58-1.227 1.113-0.42 0.5267-0.6067 1.3l0.03333 0.01333q0.1867-0.3133 0.46-0.4867 0.28-0.18 0.6867-0.18t0.72 0.18q0.32 0.1733 0.4933 0.5 0.18 0.32 0.18 0.7533 0 0.4533-0.1933 0.8067-0.1933 0.3467-0.5533 0.54-0.3533 0.1933-0.82 0.1933zm-0.0067-0.4733q0.4733 0 0.74-0.26 0.2667-0.2667 0.2667-0.7333v-0.05333q0-0.4667-0.2667-0.7267-0.2667-0.2667-0.74-0.2667t-0.74 0.2667q-0.2667 0.26-0.2667 0.7267v0.05333q0 0.4667 0.2667 0.7333 0.2667 0.26 0.74 0.26z"/>
      <path d="m74.32 65.4c-1.084 0-1.627-0.8022-1.627-2.407s0.5422-2.407 1.627-2.407 1.627 0.8022 1.627 2.407-0.5422 2.407-1.627 2.407zm0-0.4867c0.36 0 0.6244-0.1333 0.7933-0.4 0.1689-0.2711 0.2533-0.6511 0.2533-1.14v-0.76c0-0.4889-0.08445-0.8667-0.2533-1.133-0.1689-0.2711-0.4333-0.4067-0.7933-0.4067s-0.6244 0.1356-0.7933 0.4067c-0.1689 0.2667-0.2533 0.6444-0.2533 1.133v0.76c0 0.4889 0.08445 0.8689 0.2533 1.14 0.1689 0.2667 0.4333 0.4 0.7933 0.4z"/>
    </g>
    <g aria-label="15">
      <path d="m7.215 67.32v-0.4867h1.333v-3.753h-0.04667l-1.173 1.093-0.3267-0.3533 1.233-1.153h0.8733v4.167h1.227v0.4867z"/>
      <path d="m13.99 63.15h-2.08l-0.1333 1.78h0.04667q0.1867-0.2533 0.4067-0.38t0.5667-0.1267q0.4067 0 0.7267 0.1733t0.5 0.5q0.18 0.32 0.18 0.76 0 0.4533-0.1933 0.8067-0.1867 0.3467-0.5467 0.54t-0.8467 0.1933q-0.5333 0-0.88-0.2133-0.34-0.22-0.6-0.58l0.42-0.32q0.2133 0.3133 0.4467 0.4733 0.2333 0.1533 0.6267 0.1533 0.4733 0 0.7333-0.26t0.26-0.72v-0.05333q0-0.46-0.2667-0.72-0.26-0.26-0.74-0.26-0.3 0-0.4933 0.1-0.1867 0.1-0.36 0.2933l-0.4733-0.06667 0.1667-2.56h2.533z"/>
    </g>
    <g aria-label="25">
      <path d="m-32.16 65.32h-3.107v-0.5733l1.553-1.4q0.3733-0.3333 0.5733-0.6533 0.2067-0.3267 0.2067-0.66v-0.08q0-0.42-0.2267-0.6467-0.22-0.2333-0.6467-0.2333-0.4067 0-0.6467 0.2067-0.2333 0.2067-0.3533 0.5867l-0.5-0.1867q0.16-0.4733 0.52-0.78 0.3667-0.3133 0.9933-0.3133 0.68 0 1.06 0.3733 0.3867 0.3667 0.3867 0.9733 0 0.4933-0.2667 0.9067-0.26 0.4133-0.7733 0.86l-1.3 1.133h2.527z"/>
      <path d="m-28.4 61.15h-2.08l-0.1333 1.78h0.04667q0.1867-0.2533 0.4067-0.38t0.5667-0.1267q0.4067 0 0.7267 0.1733t0.5 0.5q0.18 0.32 0.18 0.76 0 0.4533-0.1933 0.8067-0.1867 0.3467-0.5467 0.54t-0.8467 0.1933q-0.5333 0-0.88-0.2133-0.34-0.22-0.6-0.58l0.42-0.32q0.2133 0.3133 0.4467 0.4733 0.2333 0.1533 0.6267 0.1533 0.4733 0 0.7333-0.26t0.26-0.72v-0.05333q0-0.46-0.2667-0.72-0.26-0.26-0.74-0.26-0.3 0-0.4933 0.1-0.1867 0.1-0.36 0.2933l-0.4733-0.06667 0.1667-2.56h2.533z"/>
    </g>
  </g>
</svg>
