<svg xmlns="http://www.w3.org/2000/svg" xmlns:xlink="http://www.w3.org/1999/xlink" width="1290" height="690" viewBox="-3780 -3780 108360 57960" fill="none" font-family="Calibri,Arial,'Liberation Sans',sans-serif">
	<title>Flag of New Zealand — construction sheet</title>
	<!-- DIMENSIONS
		SVG:
			S_RAW:     108360.00 × 57960.00
			S_DISPLAY:  1290.00 × 690.00
		FLAG:
			F_RAW:     100800.00 × 50400.00
			F_DISPLAY:  1200.00 × 600.00
			F_LABEL:     120.00 × 60.00
			F_RATIO:       2.00 × 1.00
	-->
	<defs>
		<marker id="left-arrow" viewBox="-4 -4 10 8" orient="auto" markerWidth="10" markerHeight="8">
			<path fill="blue" d="m2 0 4 4-10-4L6-4z"/>
		</marker>
		<marker id="right-arrow" viewBox="-6 -4 10 8" orient="auto" markerWidth="10" markerHeight="8">
			<path fill="blue" d="m-2 0-4 4L4 0-6-4z"/>
		</marker>
		<clipPath id="f">
			<path d="m0 0h120v60H0z"/>
		</clipPath>
		<clipPath id="s">
			<path d="m0 0v15h62v16zm0 30v1h30V0h30z"/>
		</clipPath>
		<path id="MJX-1-TEX-LO-221A" d="M1001 1150Q1017 1150 1020 1132Q1020 1127 741 244L460 -643Q453 -650 436 -650H424Q423 -647 423 -645T421 -640T419 -631T415 -617T408 -594T399 -560T385 -512T367 -448T343 -364T312 -259L203 119L138 41L111 67L212 188L264 248L472 -474L983 1140Q988 1150 1001 1150Z"/>
		<path id="MJX-1-TEX-N-221A" d="M95 178Q89 178 81 186T72 200T103 230T169 280T207 309Q209 311 212 311H213Q219 311 227 294T281 177Q300 134 312 108L397 -77Q398 -77 501 136T707 565T814 786Q820 800 834 800Q841 800 846 794T853 782V776L620 293L385 -193Q381 -200 366 -200Q357 -200 354 -197Q352 -195 256 15L160 225L144 214Q129 202 113 190T95 178Z"/>
		<path id="MJX-1-TEX-N-3D" d="M56 347Q56 360 70 367H707Q722 359 722 347Q722 336 708 328L390 327H72Q56 332 56 347ZM56 153Q56 168 72 173H708Q722 163 722 153Q722 140 707 133H70Q56 140 56 153Z"/>
		<path id="MJX-1-TEX-N-D7" d="M630 29Q630 9 609 9Q604 9 587 25T493 118L389 222L284 117Q178 13 175 11Q171 9 168 9Q160 9 154 15T147 29Q147 36 161 51T255 146L359 250L255 354Q174 435 161 449T147 471Q147 480 153 485T168 490Q173 490 175 489Q178 487 284 383L389 278L493 382Q570 459 587 475T609 491Q630 491 630 471Q630 464 620 453T522 355L418 250L522 145Q606 61 618 48T630 29Z"/>
		<path id="MJX-1-TEX-SS-1D5A0" d="M183 181Q183 179 152 91T118 0H28L154 346L280 693Q281 694 333 694H385L511 349Q636 4 638 2Q638 0 584 0H530L464 183H184L183 181ZM324 606Q319 578 292 492T238 332T210 256Q210 254 324 254T438 255L429 281L419 308Q409 336 395 378T365 465T339 551T324 611V606Z"/>
		<path id="MJX-1-TEX-SS-1D5A1" d="M425 363Q438 363 465 353T526 324T585 270T610 192Q610 132 561 78T426 7Q404 2 387 2T240 0H90V694H227Q373 693 396 689Q484 673 533 623T583 517Q583 494 574 473T551 437T520 409T487 388T456 374T433 366L425 363ZM490 516Q490 527 485 539T467 568T423 599T347 621Q340 622 262 623H188V399H261H286Q432 399 478 475Q490 496 490 516ZM514 190Q514 245 462 280T343 322Q336 323 259 323H188V71H274Q365 72 388 77Q445 88 479 121T514 190Z"/>
		<path id="MJX-1-TEX-SS-1D5A2" d="M59 347Q59 440 100 521T218 654T392 705Q473 705 550 680Q577 670 577 667Q576 666 572 642T564 595T559 571Q515 601 479 613T392 626Q300 626 232 549T164 347Q164 231 229 150T397 68Q453 68 489 80T568 120L581 129L582 110Q584 91 585 71T587 46Q580 40 566 31T502 5T396 -11Q296 -11 218 41T99 174T59 347Z"/>
		<path id="MJX-1-TEX-SS-1D7E2" d="M117 621Q174 678 247 678Q305 678 351 647Q396 617 424 557Q460 472 460 328Q460 271 455 224Q448 154 427 104T376 27T314 -10T249 -22Q201 -22 160 1T91 67Q39 154 39 316Q39 541 117 621ZM250 55Q274 55 293 66T324 93T344 136T357 185T364 240T366 291T367 340Q367 373 367 393T363 449T352 507T332 553T299 589T250 601Q217 601 194 584T159 542T141 479T133 411T132 340V331Q132 299 133 277T137 219T147 157T167 107T201 68T250 55Z"/>
		<path id="MJX-1-TEX-SS-1D7E3" d="M94 612Q172 616 211 632T284 678H307V73H430V0H88V73H213V317Q213 560 212 560Q210 558 197 554T155 546T96 540L83 539V612H94Z"/>
		<path id="MJX-1-TEX-SS-1D7E4" d="M222 599Q190 599 166 585T128 550T108 509T97 474T93 459L67 492L42 526L47 539Q72 608 120 642T225 677Q304 677 355 644Q449 579 449 454Q449 373 361 290Q351 280 315 250T199 144Q156 103 137 85L293 86H449V0H50V79L216 242Q284 302 317 349T351 456Q351 517 315 558T222 599Z"/>
		<path id="MJX-1-TEX-SS-1D7E5" d="M333 521Q333 554 313 579T243 604Q154 604 99 514L78 546Q56 577 56 579Q56 580 62 589T82 611T114 637T162 662T222 677Q224 677 231 677T242 678H245Q318 678 374 634T430 520Q430 483 417 452T382 398T351 369T329 354L328 353Q369 333 373 330Q408 306 432 268T457 184Q457 103 397 41T242 -22Q131 -22 51 58L42 68L49 105L55 142L58 138Q62 134 66 130T77 120T91 108T108 96T129 83T152 72T179 63T209 57T242 54Q285 54 319 86T353 184Q353 231 331 267T260 315L213 316H166V354Q166 392 167 392Q233 395 257 405Q290 418 311 450T333 521Z"/>
		<path id="MJX-1-TEX-SS-1D7E6" d="M271 654L272 656H380V235H471V159H380V0H286V159H28V235L149 443Q269 652 271 654ZM292 235V607Q292 604 290 591T286 571T280 548T269 517T252 476T226 422T189 354T140 267Q136 260 132 253T126 240L123 236Q123 235 207 235H292Z"/>
		<path id="MJX-1-TEX-SS-1D7E7" d="M257 350Q236 350 218 342T189 323T171 301T160 281L157 273Q157 272 116 272H75V656H416V577H162V486Q162 396 163 396T174 403T207 418T258 426Q339 426 394 360T449 203Q449 113 386 46T226 -21H223Q188 -21 156 -11T102 13T64 42T41 66T33 77Q34 78 44 95T64 128L73 144Q93 112 117 93Q165 54 223 54Q270 54 306 86T345 197Q345 350 257 350Z"/>
		<path id="MJX-1-TEX-SS-1D7E8" d="M42 318Q42 396 61 460T109 564T173 629T237 666T289 677H301H317Q359 677 408 658V621Q408 585 407 585H406Q359 605 308 605Q246 605 203 556T146 421Q143 403 144 403Q145 402 152 409Q216 469 299 469Q333 469 357 457T407 405Q457 330 457 226Q457 126 402 57Q340 -22 251 -22Q216 -22 183 -7T116 43T63 149T42 318ZM260 393Q216 393 188 365T150 306T141 243Q141 153 172 104Q192 68 230 56Q238 54 251 54Q311 54 342 116Q360 152 360 226Q360 297 344 332Q320 382 277 392Q275 392 270 392T260 393Z"/>
		<path id="MJX-1-TEX-SS-1D7E9" d="M42 570V656H457V577L447 564Q345 439 295 289T244 0V-11H145V12Q160 330 356 550Q360 556 365 561T374 571L208 570H42Z"/>
		<path id="MJX-1-TEX-SS-1D7EA" d="M55 500Q55 568 109 623T250 678Q327 678 385 627T444 501Q444 445 410 410T336 357L329 353H330Q378 335 417 293T456 184Q456 93 393 36T249 -22T106 35T43 184Q43 251 82 293T169 353Q171 354 166 356Q165 356 163 357Q113 378 84 416T55 500ZM358 496Q358 557 325 581T250 605Q206 605 174 580T141 496Q141 446 171 420T250 393Q298 393 328 419T358 496ZM245 316Q205 316 172 285T139 185V179Q139 79 222 57Q231 55 250 55H254Q295 55 327 84Q360 120 360 188Q360 254 326 285Q295 316 245 316Z"/>
		<path id="MJX-1-TEX-SS-1D7EB" d="M44 476Q57 561 116 619T245 677H255Q308 677 349 647Q392 619 424 545T457 334Q457 178 382 78T205 -22Q168 -22 135 -10T86 14L72 25Q73 25 91 58L110 91Q127 78 136 72T163 60T203 54Q238 54 265 71T308 110T335 164T350 214T357 253V257L347 248Q284 187 200 187Q165 187 140 201T87 258Q42 332 42 430Q42 458 44 476ZM269 604Q265 605 254 605Q222 605 199 591T164 554T148 517T141 487Q140 478 140 430T141 373Q146 335 164 307T207 269Q223 263 247 263Q299 266 328 308T358 417Q358 435 356 456T346 511T318 570T269 604Z"/>
		<path id="MJX-1-TEX-SS-2212" d="M84 237T84 250T98 270H679Q694 262 694 250T679 230H98Q84 237 84 250Z"/>
		<path id="MJX-1-TEX-SS-2248" d="M55 319Q55 360 72 393T114 444T163 472T205 482Q207 482 213 482T223 483Q262 483 296 468T393 413L443 381Q502 346 553 346Q609 346 649 375T694 454Q694 465 698 474T708 483Q722 483 722 452Q722 386 675 338T555 289Q514 289 468 310T388 357T308 404T224 426Q164 426 125 393T83 318Q81 289 69 289Q55 289 55 319ZM55 85Q55 126 72 159T114 210T163 238T205 248Q207 248 213 248T223 249Q262 249 296 234T393 179L443 147Q502 112 553 112Q609 112 649 141T694 220Q694 249 708 249T722 217Q722 153 675 104T555 55Q514 55 468 76T388 123T308 170T224 192Q164 192 125 159T83 84Q80 55 69 55Q55 55 55 85Z"/>
		<path id="MJX-1-TEX-SS-2B" d="M56 237T56 250T70 270H369V420L370 570Q380 583 389 583Q402 583 409 568V270H707Q722 262 722 250T707 230H409V-68Q401 -82 391 -82H389H387Q375 -82 369 -68V230H70Q56 237 56 250Z"/>
		<path id="MJX-1-TEX-SS-2E" d="M90 0V98H188V0H90Z"/>
	</defs>
	<path fill="#fafafa" d="m-3780-3780h108360v57960H-3780z"/>
	<path fill="#fff" d="m0 0h100800v50400H0z"/>
	<g opacity=".5">
		<g transform="scale(840)">
			<path fill="#012169" d="m0 0h120v60H0z"/>
			<g clip-path="url(#f)" stroke="#c8102e" stroke-width="6">
				<path stroke="#fff" stroke-width="6" d="m0 0 60 30M0 30 60 0"/>
				<path stroke="#c8102e" stroke-width="4" clip-path="url(#s)" d="m0 0 60 30M0 30 60 0"/>
				<path stroke="#fff" stroke-width="10" d="m30 0v31M0 15h62"/>
				<path d="m30 0v31M0 15h62"/>
			</g>
			<path fill="#012169" d="m60 0h60v60H0V30h60z"/>
		</g>
		<path id="s" fill="#c8102e" stroke="#fff" stroke-width="420" d="m75600 6751 747 2300h2419l-1957 1422 748 2300-1957-1421-1957 1421 748-2300-1957-1422h2419zm9982 9118 648 1996h2098l-1697 1233 648 1995-1697-1233-1697 1233 648-1995-1697-1233h2098zm-9982 20680 847 2606h2739l-2216 1610 846 2606-2216-1611-2216 1611 846-2606-2216-1610h2739zM63954 18467l748 2301h2419l-1957 1422 747 2300-1957-1422-1956 1422 747-2300-1957-1422h2419z"/>
	</g>
	<g stroke="#000" stroke-width="140" stroke-linejoin="round" stroke-linecap="round">
		<g opacity=".4" stroke-width="100">
			<path stroke-dashoffset="362" stroke-dasharray="725,315,105,315" d="m50400 25200V0m0 25200v25200"/>
			<path stroke-dashoffset="382" stroke-dasharray="765,315,105,315" d="m50400 25200H0m50400 0h17002m6043 0h27355"/>
			<path stroke-dasharray="735,315,105,315" stroke-dashoffset="840" d="m50400-2520V0M-2520 25200H0"/>
		</g>
		<g stroke="#888">
			<path stroke-dasharray="1490,630,210,630" stroke-dashoffset="745" d="m25200 12600 8400-4200m-8400 4200-8400 4200m8400-4200-8400-4200m8400 4200 8400 4200"/>
		</g>
		<g stroke="#d55">
			<path stroke-dasharray="1554,630,210,630" stroke-dashoffset="777" d="m25200 12600V0m0 12600v12600"/>
			<path stroke-dasharray="1450,630,210,630" stroke-dashoffset="725" d="m25200 12600H0m25200 0h25200"/>
		</g>
		<path stroke="#808" stroke-width="75" stroke-dasharray="210,210" d="m75600 20160 9982-1403m-9982 1403-11646 1637"/>
		<g stroke="#800" opacity=".4">
			<path stroke-dasharray="420,418" stroke-dashoffset="210" d="m75600 6071a1 1 0 0 0 0 8018m0-8018a1 1 0 0 1 0 8018m-11646 3699a1 1 0 0 0 0 8018m0-8018a1 1 0 0 1 0 8018"/>
			<path stroke-dasharray="420,410" stroke-dashoffset="210" d="m85582 15190a1 1 0 0 0 0 7134m0-7134a1 1 0 0 1 0 7134"/>
			<path stroke-dasharray="420,425" stroke-dashoffset="210" d="m75600 35870a1 1 0 0 0 0 8900m0-8900a1 1 0 0 1 0 8900"/>
			<path stroke-dasharray="735,315,105,315" stroke-dashoffset="368" d="m75600 10080h-4009m4009 0h4009m5973 8677h-3567m3567 0h3567M75600 40320h-4450m4450 0h4450M63954 21797h-4009m4009 0h4009"/>
		</g>
		<path stroke="#444" stroke-width="250" d="m0 0h100800v50400H0z"/>
		<path stroke="#222" opacity=".1" stroke-width="75" stroke-dasharray="210,210" d="m21000 7683v9834m8400-9834v9834M11165 8400h28070m-28070 8400h28070m-9835-9117-18235 9117m9835 717 18235-9117m-18235-717 18235 9117m-9835 717-18235-9117"/>
		<path d="m22680 0v10080H0M21000 0v7683L5635 0M0 8400h11165L0 2817M0 0l16800 8400h-3757L0 1878M27720 0v10080h22680M29400 0v7683L44765 0m5635 0-16800 8400h-3757L46643 0M22680 25200V15120H0m0 1680h11165L0 22383m0 2817 16800-8400h3757L3757 25200m23963 0V15120h22680m0 10080-16800-8400h3757l13043 6522m0-23322v2817L39235 8400h11165v8400H39235l11165 5583v2817h-5635l-15365-7683v7683h-8400v-7683L5635 25200H0M75600 7430l595 1831h1925l-1557 1132 594 1831-1557-1132-1557 1132 594-1831-1557-1132h1925zm0-1359 900 2770h2913l-2357 1712 900 2770-2356-1712-2356 1712 900-2770-2357-1712h2913zm9982 10478 496 1526h1604l-1298 943 496 1526-1298-943-1298 943 496-1526-1298-943h1604zm0-1359 801 2465h2592l-2097 1523 801 2465-2097-1523-2097 1523 801-2465-2097-1523h2592zm-9982 22039 694 2136h2246l-1817 1320 694 2136-1817-1320-1817 1320 694-2136-1817-1320h2246zm0-1359 999 3075h3234l-2616 1900 999 3075-2616-1900-2616 1900 999-3075-2616-1900h3234zM63954 19147l595 1831h1925l-1557 1131 595 1831-1558-1131-1557 1131 595-1831-1558-1131h1926zm0-1359 900 2770h2913l-2356 1712 900 2770-2357-1712-2356 1712 900-2770-2356-1712h2912z"/>
		<path stroke="#222" stroke-width="75" stroke-dasharray="210,210" d="m0-2520v27720m0 27720V25200M21000-2520V0m1680-2520V0m5040-2520V0m1680-2520V0m42191 1451v8629m1489-6109v5290m2520 10899V10080m0 10080v20160m2520-36349v5290m1489-7810v8629m2406 490v8187m1467-5667v4985m4200-4985v4985m1467-7505v8187M71150 49390v-9070m1510 6550v-7505m5880 7505v-7505m1510 10025v-9070M59946 13168v8629m1488-6109v5290m5040-5290v5290m1489-7810v8629m32837-24317v27720m0 27720V25200M-2520 0h52920m52920 0H50400M-2520 8400H0m-2520 1680H0m-2520 5040H0m-2520 1680H0m69510-6720h2081m25328 0H79609M66866 8841h4921m-4921 420h6214m18274 8394h-2379m2379 420h-3672m9237 22245H80050m-13625-1375h4942m-4942 420h6235M55221 20558h4921m-4921 420h6213m8076-818h6090M-2520 50400h52920m52920 0H50400m25945-24937-745-5303m10727 3900-745-5303m-20882 8343-746-5303"/>
		<path stroke-width="135" d="m75225 10080h750m-375-375v750m9607 8302h750m-375-375v750M75225 40320h750m-375-375v750M63579 21797h750m-375-375v750"/>
	</g>
	<g fill="#008" opacity=".8">
		<circle r="200" cx="0" cy="0"/>
		<circle r="200" cx="50400" cy="0"/>
		<circle r="200" cx="50400" cy="25200"/>
		<circle r="200" cx="-0" cy="25200"/>
		<circle r="200" cx="25200" cy="12600"/>
		<circle r="200" cx="71591" cy="10080"/>
		<circle r="200" cx="79609" cy="10080"/>
		<circle r="200" cx="82015" cy="18757"/>
		<circle r="200" cx="89149" cy="18757"/>
		<circle r="200" cx="71150" cy="40320"/>
		<circle r="200" cx="80050" cy="40320"/>
		<circle r="200" cx="59946" cy="21797"/>
		<circle r="200" cx="67963" cy="21797"/>
		<circle r="200" cx="75600" cy="20160"/>
	</g>
	<g fill="#008" opacity=".8">
		<circle r="150" cx="73080" cy="9261"/>
		<circle r="150" cx="78120" cy="9261"/>
		<circle r="150" cx="83482" cy="18075"/>
		<circle r="150" cx="87682" cy="18075"/>
		<circle r="150" cx="72660" cy="39365"/>
		<circle r="150" cx="78540" cy="39365"/>
		<circle r="150" cx="61434" cy="20978"/>
		<circle r="150" cx="66474" cy="20978"/>
		<circle r="150" cx="71367" cy="38945"/>
		<circle r="150" cx="71787" cy="8841"/>
		<circle r="150" cx="88975" cy="17655"/>
	</g>
	<g fill="#808">
		<circle r="75" cx="85582" cy="18757"/>
		<circle r="75" cx="63954" cy="21797"/>
	</g>
	<g stroke="#00f" stroke-width="75" marker-start="url(#left-arrow)">
		<path d="m300-1575h8400"/>
		<path d="m20700-1575h-8400"/>
		<path d="m22980-1575h1120"/>
		<path d="m27420-1575h-1120"/>
		<path d="m29700-1575h8400"/>
		<path d="m50100-1575h-8400"/>
		<path d="m50700-1575h23100"/>
		<path d="m100500-1575H77400"/>
		<path d="m300 51975h47700"/>
		<path d="m100500 51975H52800"/>
		<path d="m50700 31185h10500"/>
		<path d="m75300 31185H64800"/>
		<path d="m73380 4916h1120"/>
		<path d="m77820 4916h-1120"/>
		<path d="m71891 2396h2609"/>
		<path d="m79309 2396h-2609"/>
		<path d="m83782 14035h700"/>
		<path d="m87382 14035h-700"/>
		<path d="m82315 11515h2167"/>
		<path d="m88849 11515h-2167"/>
		<path d="m61734 16633h1120"/>
		<path d="m66174 16633h-1120"/>
		<path d="m60246 14113h2608"/>
		<path d="m67663 14113h-2609"/>
		<path d="m72960 45925h1540"/>
		<path d="m78240 45925h-1540"/>
		<path d="m71450 48445h3050"/>
		<path d="m79750 48445h-3050"/>
		<path d="m-1575 50100V39600"/>
		<path d="m-1575 25500v10500"/>
		<path d="m-1575 24900v-2100"/>
		<path d="m-1575 17100v2100"/>
		<path d="m-1575 14820v-1120"/>
		<path d="m-1575 10380v1120"/>
		<path d="m-1575 8100V6000"/>
		<path d="m-1575 300v2100"/>
		<path d="m102375 50100V27000"/>
		<path d="m102375 300v23100"/>
		<path d="m70455 19860v-2940"/>
		<path d="m70455 10380v2940"/>
		<path d="m95974 50100v-2940"/>
		<path d="m95974 40620v2940"/>
		<path d="m95974 40020v-5460"/>
		<path d="m95974 25500v5460"/>
		<path d="m95974 24900v-5460"/>
		<path d="m95974 10380v5460"/>
		<path d="m95974 9780V6840"/>
		<path d="m95974 300v2940"/>
		<path d="m67391 9561v2200"/>
		<path d="m67391 8541V6341"/>
		<path d="m90829 18375v2200"/>
		<path d="m90829 17355v-2200"/>
		<path d="m66950 39665v2200"/>
		<path d="m66950 38645v-2200"/>
		<path d="m55746 21278v2200"/>
		<path d="m55746 20258v-2200"/>
		<path d="m64865 26122 3843-540"/>
		<path d="m75917 24569-3843 540"/>
		<path d="m76511 24485 3010-423"/>
		<path d="m85899 23166-3011 423"/>
		<path d="m3758 5032-760 1520"/>
		<path d="m4402 3744 760-1521"/>
		<path d="m7515 5971-761 1520"/>
		<path d="m8534 3932 760-1521"/>
		<path d="m11647 6159-760 1520"/>
		<path d="m13042 3368 760-1520"/>
		<g marker-end="url(#right-arrow)">
			<path d="m75900 16275a3885 3885 0 0 1 3505 3047"/>
		</g>
	</g>
	<g fill="#000" text-anchor="middle" font-size="50" transform="scale(50)">
		<g>
			<text x="210" y="-16">25</text>
			<text x="437" y="-16">2</text>
			<text x="504" y="-16">6</text>
			<text x="571" y="-16">2</text>
			<text x="798" y="-16">25</text>
			<text x="1512" y="-16">60</text>
			<text x="1512" y="63">A</text>
			<text x="1512" y="113">6</text>
			<text x="1712" y="245">B</text>
			<text x="1712" y="296">5</text>
			<text x="1279" y="297">A</text>
			<text x="1585" y="334">82°</text>
			<text x="1279" y="348">6</text>
			<text x="1260" y="639">30</text>
			<text x="1512" y="934">7</text>
			<text x="1512" y="984">C</text>
			<text x="1008" y="1054">120</text>
			<g text-anchor="start">
				<text x="1829" y="372">½</text>
			</g>
			<g text-anchor="end">
				<text x="1336" y="196">½</text>
				<text x="1103" y="430">½</text>
				<text x="1327" y="798">½</text>
			</g>
		</g>
		<g transform="rotate(270)">
			<text x="-84" y="-16">10</text>
			<text x="-101" y="1934">12</text>
			<text x="-185" y="-16">2</text>
			<text x="-252" y="-16" text-decoration="underline">6</text>
			<text x="-302" y="1424">12</text>
			<text x="-319" y="-16">2</text>
			<text x="-353" y="1934">18</text>
			<text x="-420" y="-16">10</text>
			<text x="-504" y="2062">60</text>
			<text x="-655" y="1934">18</text>
			<text x="-756" y="-16">30</text>
			<text x="-907" y="1934">12</text>
		</g>
		<g transform="rotate(296.6)">
			<text x="-42" y="127">1</text>
			<text x="25" y="278">3</text>
			<text x="-17" y="203">2</text>
		</g>
		<g transform="rotate(352)">
			<text x="1542" y="713">12</text>
			<text x="1324" y="713">14</text>
		</g>
		<g font-size="27">
			<text x="-37" y="1058">[<tspan font-weight="bold" fill="#080">NZ</tspan>]</text>
			<text x="2053" y="1058">[<tspan font-weight="bold" fill="#080">1:2</tspan>]</text>
		</g>
	</g>
	<g fill="#000" transform="matrix(2,0,0,-2,5100,38500)">
		<g transform="translate(0,2400.3)">
			<use xlink:href="#MJX-1-TEX-SS-1D5A0"/>
			<g transform="translate(667,0)">
				<g transform="translate(277.8,0)">
					<use xlink:href="#MJX-1-TEX-N-3D"/>
				</g>
				<g transform="translate(1333.6,0)">
					<use xlink:href="#MJX-1-TEX-SS-1D7E3"/>
					<use x="500" xlink:href="#MJX-1-TEX-SS-1D7E4"/>
					<g transform="translate(1222.2,0)">
						<use xlink:href="#MJX-1-TEX-N-D7"/>
					</g>
					<g transform="translate(2222.4,0)">
						<g transform="translate(1020,0)">
							<g transform="translate(220,421.3) scale(0.707)">
								<use xlink:href="#MJX-1-TEX-SS-1D7E7"/>
								<g transform="translate(500,0)">
									<use xlink:href="#MJX-1-TEX-SS-2212"/>
								</g>
								<g transform="translate(1278,0)">
									<g transform="translate(853,0)">
										<use xlink:href="#MJX-1-TEX-SS-1D7E7"/>
									</g>
									<g transform="translate(0,102.6)">
										<use xlink:href="#MJX-1-TEX-N-221A"/>
									</g>
									<rect width="500" height="42.4" x="853" y="860.1"/>
								</g>
							</g>
							<g transform="translate(796.6,-345) scale(0.707)">
								<use xlink:href="#MJX-1-TEX-SS-1D7E3"/>
								<use x="500" xlink:href="#MJX-1-TEX-SS-1D7E2"/>
							</g>
							<rect width="2060.4" height="60" x="120" y="220"/>
						</g>
						<g transform="translate(0,229.7)">
							<use xlink:href="#MJX-1-TEX-LO-221A"/>
						</g>
						<rect width="2300.4" height="60" x="1020" y="1319.7"/>
					</g>
					<g transform="translate(5765.1,0)">
						<use xlink:href="#MJX-1-TEX-SS-2B"/>
					</g>
					<g transform="translate(6765.3,0)">
						<use xlink:href="#MJX-1-TEX-SS-1D7E3"/>
					</g>
					<g transform="translate(7487.5,0)">
						<use xlink:href="#MJX-1-TEX-SS-2B"/>
					</g>
					<g transform="translate(8487.7,0)">
						<g transform="translate(853,0)">
							<use xlink:href="#MJX-1-TEX-SS-1D7E7"/>
						</g>
						<g transform="translate(0,132.7)">
							<use xlink:href="#MJX-1-TEX-N-221A"/>
						</g>
						<rect width="500" height="60" x="853" y="872.8"/>
					</g>
					<g transform="translate(10118.5,0)">
						<use xlink:href="#MJX-1-TEX-SS-2248"/>
					</g>
					<g transform="translate(11174.3,0)">
						<use xlink:href="#MJX-1-TEX-SS-1D7EB"/>
						<use x="500" xlink:href="#MJX-1-TEX-SS-2E"/>
						<use x="778" xlink:href="#MJX-1-TEX-SS-1D7E7"/>
						<use x="1278" xlink:href="#MJX-1-TEX-SS-1D7E6"/>
						<use x="1778" xlink:href="#MJX-1-TEX-SS-1D7E6"/>
						<use x="2278" xlink:href="#MJX-1-TEX-SS-1D7EA"/>
						<use x="2778" xlink:href="#MJX-1-TEX-SS-1D7E6"/>
						<use x="3278" xlink:href="#MJX-1-TEX-SS-1D7E3"/>
						<use x="3778" xlink:href="#MJX-1-TEX-SS-1D7E5"/>
						<use x="4278" xlink:href="#MJX-1-TEX-SS-1D7E4"/>
					</g>
				</g>
			</g>
		</g>
		<g transform="translate(0,-259.7)">
			<use xlink:href="#MJX-1-TEX-SS-1D5A1"/>
			<g transform="translate(667,0)">
				<g transform="translate(277.8,0)">
					<use xlink:href="#MJX-1-TEX-N-3D"/>
				</g>
				<g transform="translate(1333.6,0)">
					<use xlink:href="#MJX-1-TEX-SS-1D7E3"/>
					<use x="500" xlink:href="#MJX-1-TEX-SS-1D7E2"/>
					<g transform="translate(1222.2,0)">
						<use xlink:href="#MJX-1-TEX-N-D7"/>
					</g>
					<g transform="translate(2222.4,0)">
						<g transform="translate(1020,0)">
							<g transform="translate(220,421.3) scale(0.707)">
								<use xlink:href="#MJX-1-TEX-SS-1D7E7"/>
								<g transform="translate(500,0)">
									<use xlink:href="#MJX-1-TEX-SS-2212"/>
								</g>
								<g transform="translate(1278,0)">
									<g transform="translate(853,0)">
										<use xlink:href="#MJX-1-TEX-SS-1D7E7"/>
									</g>
									<g transform="translate(0,102.6)">
										<use xlink:href="#MJX-1-TEX-N-221A"/>
									</g>
									<rect width="500" height="42.4" x="853" y="860.1"/>
								</g>
							</g>
							<g transform="translate(796.6,-345) scale(0.707)">
								<use xlink:href="#MJX-1-TEX-SS-1D7E3"/>
								<use x="500" xlink:href="#MJX-1-TEX-SS-1D7E2"/>
							</g>
							<rect width="2060.4" height="60" x="120" y="220"/>
						</g>
						<g transform="translate(0,229.7)">
							<use xlink:href="#MJX-1-TEX-LO-221A"/>
						</g>
						<rect width="2300.4" height="60" x="1020" y="1319.7"/>
					</g>
					<g transform="translate(5765.1,0)">
						<use xlink:href="#MJX-1-TEX-SS-2B"/>
					</g>
					<g transform="translate(6765.3,0)">
						<use xlink:href="#MJX-1-TEX-SS-1D7E3"/>
					</g>
					<g transform="translate(7487.5,0)">
						<use xlink:href="#MJX-1-TEX-SS-2B"/>
					</g>
					<g transform="translate(8487.7,0)">
						<g transform="translate(853,0)">
							<use xlink:href="#MJX-1-TEX-SS-1D7E7"/>
						</g>
						<g transform="translate(0,132.7)">
							<use xlink:href="#MJX-1-TEX-N-221A"/>
						</g>
						<rect width="500" height="60" x="853" y="872.8"/>
					</g>
					<g transform="translate(10118.5,0)">
						<use xlink:href="#MJX-1-TEX-SS-2248"/>
					</g>
					<g transform="translate(11174.3,0)">
						<use xlink:href="#MJX-1-TEX-SS-1D7EA"/>
						<use x="500" xlink:href="#MJX-1-TEX-SS-2E"/>
						<use x="778" xlink:href="#MJX-1-TEX-SS-1D7E6"/>
						<use x="1278" xlink:href="#MJX-1-TEX-SS-1D7EB"/>
						<use x="1778" xlink:href="#MJX-1-TEX-SS-1D7E5"/>
						<use x="2278" xlink:href="#MJX-1-TEX-SS-1D7E5"/>
						<use x="2778" xlink:href="#MJX-1-TEX-SS-1D7E9"/>
						<use x="3278" xlink:href="#MJX-1-TEX-SS-1D7EB"/>
						<use x="3778" xlink:href="#MJX-1-TEX-SS-1D7E3"/>
						<use x="4278" xlink:href="#MJX-1-TEX-SS-1D7E2"/>
					</g>
				</g>
			</g>
		</g>
		<g transform="translate(0,-2919.7)">
			<g transform="translate(28,0)">
				<use xlink:href="#MJX-1-TEX-SS-1D5A2"/>
			</g>
			<g transform="translate(667,0)">
				<g transform="translate(277.8,0)">
					<use xlink:href="#MJX-1-TEX-N-3D"/>
				</g>
				<g transform="translate(1333.6,0)">
					<use xlink:href="#MJX-1-TEX-SS-1D7E3"/>
					<use x="500" xlink:href="#MJX-1-TEX-SS-1D7E6"/>
					<g transform="translate(1222.2,0)">
						<use xlink:href="#MJX-1-TEX-N-D7"/>
					</g>
					<g transform="translate(2222.4,0)">
						<g transform="translate(1020,0)">
							<g transform="translate(220,421.3) scale(0.707)">
								<use xlink:href="#MJX-1-TEX-SS-1D7E7"/>
								<g transform="translate(500,0)">
									<use xlink:href="#MJX-1-TEX-SS-2212"/>
								</g>
								<g transform="translate(1278,0)">
									<g transform="translate(853,0)">
										<use xlink:href="#MJX-1-TEX-SS-1D7E7"/>
									</g>
									<g transform="translate(0,102.6)">
										<use xlink:href="#MJX-1-TEX-N-221A"/>
									</g>
									<rect width="500" height="42.4" x="853" y="860.1"/>
								</g>
							</g>
							<g transform="translate(796.6,-345) scale(0.707)">
								<use xlink:href="#MJX-1-TEX-SS-1D7E3"/>
								<use x="500" xlink:href="#MJX-1-TEX-SS-1D7E2"/>
							</g>
							<rect width="2060.4" height="60" x="120" y="220"/>
						</g>
						<g transform="translate(0,229.7)">
							<use xlink:href="#MJX-1-TEX-LO-221A"/>
						</g>
						<rect width="2300.4" height="60" x="1020" y="1319.7"/>
					</g>
					<g transform="translate(5765.1,0)">
						<use xlink:href="#MJX-1-TEX-SS-2B"/>
					</g>
					<g transform="translate(6765.3,0)">
						<use xlink:href="#MJX-1-TEX-SS-1D7E3"/>
					</g>
					<g transform="translate(7487.5,0)">
						<use xlink:href="#MJX-1-TEX-SS-2B"/>
					</g>
					<g transform="translate(8487.7,0)">
						<g transform="translate(853,0)">
							<use xlink:href="#MJX-1-TEX-SS-1D7E7"/>
						</g>
						<g transform="translate(0,132.7)">
							<use xlink:href="#MJX-1-TEX-N-221A"/>
						</g>
						<rect width="500" height="60" x="853" y="872.8"/>
					</g>
					<g transform="translate(10118.5,0)">
						<use xlink:href="#MJX-1-TEX-SS-2248"/>
					</g>
					<g transform="translate(11174.3,0)">
						<use xlink:href="#MJX-1-TEX-SS-1D7E3"/>
						<use x="500" xlink:href="#MJX-1-TEX-SS-1D7E2"/>
						<use x="1000" xlink:href="#MJX-1-TEX-SS-2E"/>
						<use x="1278" xlink:href="#MJX-1-TEX-SS-1D7E7"/>
						<use x="1778" xlink:href="#MJX-1-TEX-SS-1D7EB"/>
						<use x="2278" xlink:href="#MJX-1-TEX-SS-1D7E8"/>
						<use x="2778" xlink:href="#MJX-1-TEX-SS-1D7E5"/>
						<use x="3278" xlink:href="#MJX-1-TEX-SS-1D7E2"/>
						<use x="3778" xlink:href="#MJX-1-TEX-SS-1D7E5"/>
						<use x="4278" xlink:href="#MJX-1-TEX-SS-1D7E7"/>
						<use x="4778" xlink:href="#MJX-1-TEX-SS-1D7E7"/>
					</g>
				</g>
			</g>
		</g>
	</g>
</svg>
