<svg version="1" xmlns="http://www.w3.org/2000/svg" width="1600" height="1100" viewBox="-16 -11 32 22"><defs><marker id="b" markerWidth="9" markerHeight="6" refX="9" refY="3" orient="auto"><path d="M3 3L0 0l9 2.5v1L0 6z"/></marker><marker id="a" markerWidth="9" markerHeight="6" refY="3" orient="auto"><path d="M6 3l3-3-9 2.5v1L9 6z"/></marker></defs><g opacity=".5"><path fill="#fff" d="M-15-10h30v20h-30z"/><path fill="#006233" d="M-15-10H0v20h-15z"/><path d="M4.324-2.496a5 5 0 1 0 0 4.992 4 4 0 1 1 0-4.992" fill="#d21034"/><path d="M4.523 0L0 1.47l2.795-3.848v4.756L0-1.47z" fill="#d21034"/></g><g fill="none" stroke="#000" stroke-width=".05"><path d="M-15-10h30v20h-30zM0-3.813v7.63m0 1.181V10m0-20v5.006"/><path d="M4.324-2.496a5 5 0 1 0 0 4.992 4 4 0 1 1 0-4.992" stroke-linejoin="bevel"/><path d="M2.795-2.377L1.727-.908 0-1.468 1.068 0 0 1.469l1.727-.56 1.068 1.468V.561L4.523 0 2.795-.56v-1.817z" stroke-linejoin="bevel"/><g stroke-dasharray=".05,.05"><circle r="2.5" cx="2.023"/><path d="M0 0h5.199"/><path d="M4.324-2.496a4 4 0 0 1 0 4.992 5 5 0 0 0 0-4.992z" stroke-linejoin="bevel"/><path d="M5.196 3L0 0l5.196-3M0-3.813v-1.181m0 9.992V3.816M0-5h-13M0 5h-13"/><path d="M-10-4H1.199v8H-10"/><path d="M-7-2.5h9.023v5H-7"/></g><g marker-start="url(#a)" marker-end="url(#b)"><path d="M5.196 3a6 6 0 0 0 0-6M-13-5V5M-10-4v8M-7-2.5v5M14-10v20M-15-9H0M15-9H0"/></g></g><path d="M6.597-.037q-.062 0-.098.042-.036.043-.036.116 0 .074.036.117.036.042.098.042.062 0 .098-.042.037-.043.037-.117 0-.073-.037-.116-.036-.042-.098-.042zm.183-.289v.084q-.034-.016-.07-.025-.035-.008-.07-.008-.09 0-.14.061-.047.062-.054.186.027-.04.068-.06.04-.022.089-.022.102 0 .162.062.06.062.06.17 0 .104-.063.168-.062.063-.165.063-.118 0-.18-.09Q6.355.172 6.355 0q0-.161.076-.257.077-.096.206-.096.034 0 .07.007.035.007.073.02zM7.18-.28q-.07 0-.107.07-.035.07-.035.21 0 .14.035.21.036.07.107.07.072 0 .107-.07.036-.07.036-.21 0-.14-.036-.21-.035-.07-.107-.07zm0-.073q.115 0 .175.09.06.091.06.263 0 .172-.06.263-.06.09-.175.09-.114 0-.175-.09-.06-.091-.06-.263 0-.172.06-.262.061-.091.175-.091zM7.711-.294q-.036 0-.061.025t-.025.062q0 .036.025.06.025.026.061.026.037 0 .062-.025t.025-.061q0-.036-.026-.062-.025-.025-.06-.025zm0-.059q.03 0 .056.011.027.011.047.032.02.02.031.047.01.026.01.056 0 .06-.042.102-.042.041-.103.041-.061 0-.102-.04-.041-.042-.041-.103 0-.061.042-.104.042-.042.102-.042zM-7.76-.34h.362v.077h-.277v.167q.02-.007.04-.01.02-.004.04-.004.114 0 .18.062.067.063.067.17 0 .11-.068.17-.068.061-.193.061-.043 0-.087-.007-.045-.008-.092-.022V.23q.041.023.085.034.044.01.092.01.08 0 .125-.041.046-.041.046-.113 0-.07-.046-.112-.046-.042-.125-.042-.037 0-.074.009-.036.008-.074.025zM-10.581.017q-.066 0-.104.035-.037.035-.037.096 0 .062.037.097.038.035.104.035t.103-.035q.038-.036.038-.097 0-.061-.038-.096-.037-.035-.103-.035zm-.092-.04q-.06-.014-.093-.055-.032-.04-.032-.099 0-.081.057-.129.059-.047.16-.047.102 0 .16.047.057.048.057.13 0 .058-.033.098t-.092.055q.067.016.104.061.037.045.037.11 0 .1-.06.152-.06.053-.173.053-.113 0-.173-.053-.06-.053-.06-.152 0-.065.037-.11t.104-.06zm-.034-.145q0 .053.033.083.033.03.093.03t.092-.03q.034-.03.034-.083 0-.053-.034-.082-.033-.03-.092-.03-.06 0-.093.03t-.033.082zM-14.358.262h.15v-.519l-.163.033v-.084l.162-.033h.092v.603h.15V.34h-.391zM-13.583-.28q-.071 0-.107.07-.036.07-.036.21 0 .14.036.21.036.07.107.07.072 0 .107-.07.036-.07.036-.21 0-.14-.036-.21-.035-.07-.107-.07zm0-.073q.114 0 .175.09.06.091.06.263 0 .172-.06.263-.06.09-.175.09-.114 0-.175-.09-.06-.091-.06-.263 0-.172.06-.262.06-.091.175-.091z"/><g><path d="M12.705.262h.322V.34h-.432V.262l.142-.145.114-.118q.044-.05.062-.084.017-.035.017-.068 0-.054-.038-.088-.038-.034-.099-.034-.043 0-.091.015t-.103.045v-.093q.056-.022.104-.034.048-.011.088-.011.106 0 .169.053.063.053.063.141 0 .042-.016.08-.016.037-.057.088-.011.014-.072.077l-.173.176zM13.417-.28q-.071 0-.107.07-.036.07-.036.21 0 .14.036.21.036.07.107.07.072 0 .107-.07.036-.07.036-.21 0-.14-.036-.21-.035-.07-.107-.07zm0-.073q.114 0 .175.09.06.091.06.263 0 .172-.06.263-.06.09-.175.09-.114 0-.175-.09-.06-.091-.06-.263 0-.172.06-.262.06-.091.175-.091z"/></g><g><path d="M7.019-8.037h.15v-.52l-.164.034v-.084l.163-.033h.092v.603h.15v.077H7.02zM7.598-8.64h.361v.078h-.277v.166q.02-.007.04-.01t.04-.003q.114 0 .18.062.067.063.067.17 0 .109-.068.17-.068.06-.193.06-.043 0-.087-.007-.045-.007-.092-.021v-.093q.041.022.085.033.044.011.092.011.08 0 .125-.041.046-.042.046-.113 0-.07-.046-.112-.046-.042-.125-.042-.037 0-.074.008-.036.009-.074.026z"/></g><g><path d="M-7.989-8.037h.15v-.52l-.163.034v-.084l.163-.033h.092v.603h.15v.077h-.392zM-7.41-8.64h.362v.078h-.277v.166q.02-.007.04-.01t.04-.003q.114 0 .18.062.067.063.067.17 0 .109-.068.17-.069.06-.193.06-.043 0-.088-.007-.044-.007-.091-.021v-.093q.04.022.085.033.043.011.092.011.079 0 .125-.041.046-.042.046-.113 0-.07-.046-.112-.046-.042-.125-.042-.037 0-.074.008-.036.009-.075.026z"/></g></svg>