<svg
   xmlns="http://www.w3.org/2000/svg" xmlns:xlink="http://www.w3.org/1999/xlink"   
   xmlns:dc="http://purl.org/dc/elements/1.1/"
   xmlns:cc="http://web.resource.org/cc/"
   xmlns:rdf="http://www.w3.org/1999/02/22-rdf-syntax-ns#"
   xmlns:svg="http://www.w3.org/2000/svg"
   xmlns:sodipodi="http://sodipodi.sourceforge.net/DTD/sodipodi-0.dtd"
   xmlns:inkscape="http://www.inkscape.org/namespaces/inkscape"
   version="1.0"
   id="Layer_1"
   width="380"
   height="276"
   viewBox="0 0 380 276"
   overflow="visible"
   enable-background="new 0 0 380 276"
   xml:space="preserve"
   sodipodi:version="0.32"
   inkscape:version="0.45.1"
   sodipodi:docname="Flag_of_Andorra_(construction).svg"
   inkscape:output_extension="org.inkscape.output.svg.inkscape"
   sodipodi:docbase="C:\Documents and Settings\Zach\Desktop"><metadata
   id="metadata304"><rdf:RDF><cc:Work
       rdf:about=""><dc:format>image/svg+xml</dc:format><dc:type
         rdf:resource="http://purl.org/dc/dcmitype/StillImage" /></cc:Work></rdf:RDF></metadata><defs
   id="defs302" /><sodipodi:namedview
   inkscape:window-height="720"
   inkscape:window-width="1024"
   inkscape:pageshadow="2"
   inkscape:pageopacity="0.0"
   guidetolerance="10.0"
   gridtolerance="10.0"
   objecttolerance="10.0"
   borderopacity="1.0"
   bordercolor="#666666"
   pagecolor="#ffffff"
   id="base"
   inkscape:zoom="2.3782432"
   inkscape:cx="190"
   inkscape:cy="222.09569"
   inkscape:window-x="-4"
   inkscape:window-y="-4"
   inkscape:current-layer="Layer_1" />
<rect
   x="110.137"
   y="43.382"
   fill="#E7E7E8"
   stroke="#000000"
   width="138.4"
   height="217.262"
   id="rect3" />
<rect
   x="24.417"
   y="43.382"
   fill="#A7A9AC"
   stroke="#000000"
   width="99.748"
   height="217.262"
   id="rect5" />
<rect
   x="233.887"
   y="43.382"
   fill="#939598"
   stroke="#000000"
   width="99.748"
   height="217.262"
   id="rect7" />
<circle
   cx="24.417"
   cy="28.42"
   r="1.87"
   id="circle9" />
<circle
   cx="123.541"
   cy="28.42"
   r="1.87"
   id="circle11" />
<circle
   cx="233.887"
   cy="28.42"
   r="1.87"
   id="circle13" />
<circle
   cx="333.634"
   cy="28.42"
   r="1.87"
   id="circle15" />
<circle
   cx="348.596"
   cy="43.694"
   r="1.87"
   id="circle17" />
<circle
   cx="348.596"
   cy="260.645"
   r="1.87"
   id="circle19" />
<circle
   cx="124.164"
   cy="86.71"
   r="1.87"
   id="circle21" />
<circle
   cx="233.574"
   cy="86.71"
   r="1.87"
   id="circle23" />
<circle
   cx="103.279"
   cy="100.737"
   r="1.87"
   id="circle25" />
<circle
   cx="103.279"
   cy="116.323"
   r="1.87"
   id="circle27" />
<circle
   cx="103.279"
   cy="177.418"
   r="1.87"
   id="circle29" />
<circle
   cx="103.279"
   cy="202.355"
   r="1.87"
   id="circle31" />
<circle
   cx="103.279"
   cy="260.333"
   r="1.87"
   id="circle33" />
<circle
   cx="131.645"
   cy="86.71"
   r="1.87"
   id="circle35" />
<circle
   cx="148.789"
   cy="86.71"
   r="1.87"
   id="circle37" />
<circle
   cx="209.573"
   cy="86.71"
   r="1.87"
   id="circle39" />
<circle
   cx="226.405"
   cy="86.71"
   r="1.87"
   id="circle41" />
<path
   style="fill:none;stroke:#000000"
   d="M 24.417,28.42 L 333.634,28.42"
   id="line43" />
<path
   style="fill:none;stroke:#000000"
   d="M 348.59601,43.694 L 348.59601,260.64499"
   id="line45" />
<path
   style="fill:none;stroke:#000000"
   d="M 124.164,86.709999 L 233.88699,86.709999"
   id="line47" />
<path
   style="fill:none;stroke:#000000"
   d="M 103.279,100.737 L 103.279,260.33301"
   id="line49" />
<g
   id="g51">
	<path
   d="M70.945,16.677c-0.216-0.012-0.492,0.012-0.792,0.06c-1.668,0.264-2.532,1.476-2.712,2.772h0.024   c0.372-0.504,1.032-0.912,1.896-0.912c1.38,0,2.352,1.008,2.352,2.52c0,1.44-0.972,2.76-2.604,2.76   c-1.656,0-2.748-1.296-2.748-3.324c0-1.536,0.54-2.748,1.32-3.528c0.648-0.636,1.512-1.032,2.496-1.152   c0.312-0.048,0.576-0.06,0.768-0.06V16.677z M69.133,23.061c0.9,0,1.512-0.756,1.512-1.872c0-1.116-0.636-1.788-1.608-1.788   c-0.636,0-1.236,0.384-1.524,0.96c-0.06,0.12-0.108,0.264-0.108,0.456c0.012,1.284,0.612,2.244,1.716,2.244H69.133z"
   id="path53" />
	<path
   d="M75.913,23.745v-2.124h-3.624v-0.684l3.48-4.992h1.14v4.86H78v0.816h-1.092v2.124H75.913z M75.913,20.805v-2.616   c0-0.408,0.012-0.816,0.036-1.224h-0.036c-0.24,0.456-0.432,0.792-0.648,1.164l-1.908,2.652v0.024H75.913z"
   id="path55" />
</g>
<g
   id="g57">
	<path
   d="M91.228,105.143h-0.024l-1.356,0.732l-0.204-0.804l1.704-0.912h0.9v7.8h-1.02V105.143z"
   id="path59" />
	<path
   d="M97.384,105.143H97.36l-1.356,0.732L95.8,105.07l1.704-0.912h0.9v7.8h-1.02V105.143z"
   id="path61" />
</g>
<g
   id="g63">
	<path
   d="M131.893,72.94h-2.976l-0.3,1.98c0.18-0.024,0.348-0.048,0.636-0.048c0.612,0,1.2,0.132,1.68,0.42   c0.612,0.336,1.116,1.02,1.116,2.028c0,1.524-1.212,2.664-2.904,2.664c-0.852,0-1.56-0.24-1.944-0.48l0.264-0.804   c0.324,0.192,0.96,0.432,1.68,0.432c0.984,0,1.848-0.648,1.836-1.704c0-1.032-0.684-1.74-2.232-1.74   c-0.456,0-0.804,0.036-1.092,0.084l0.504-3.72h3.732V72.94z"
   id="path65" />
</g>
<g
   id="g67">
	<path
   d="M231.641,72.94h-2.976l-0.3,1.98c0.18-0.024,0.348-0.048,0.636-0.048c0.612,0,1.2,0.132,1.68,0.42   c0.612,0.336,1.116,1.02,1.116,2.028c0,1.524-1.212,2.664-2.904,2.664c-0.852,0-1.56-0.24-1.943-0.48l0.264-0.804   c0.324,0.192,0.96,0.432,1.68,0.432c0.984,0,1.848-0.648,1.836-1.704c0-1.032-0.684-1.74-2.231-1.74   c-0.456,0-0.804,0.036-1.093,0.084l0.504-3.72h3.732V72.94z"
   id="path69" />
</g>
<g
   id="g71">
	<path
   d="M212.172,73.036h-0.023l-1.356,0.732l-0.204-0.804l1.704-0.912h0.899v7.8h-1.02V73.036z"
   id="path73" />
	<path
   d="M218.328,73.036h-0.024l-1.356,0.732l-0.203-0.804l1.703-0.912h0.9v7.8h-1.02V73.036z"
   id="path75" />
</g>
<g
   id="g77">
	<path
   d="M176.362,79.852v-2.124h-3.624v-0.684l3.48-4.992h1.14v4.86h1.092v0.816h-1.092v2.124H176.362z M176.362,76.912v-2.616   c0-0.408,0.012-0.816,0.036-1.224h-0.036c-0.24,0.456-0.432,0.792-0.648,1.164l-1.908,2.652v0.024H176.362z"
   id="path79" />
	<path
   d="M181.738,79.984c-1.524,0-2.568-1.428-2.592-4.008c0-2.628,1.14-4.056,2.724-4.056c1.632,0,2.579,1.464,2.579,3.948   c0,2.652-0.995,4.116-2.699,4.116H181.738z M181.786,79.168c1.068,0,1.584-1.26,1.584-3.252c0-1.92-0.48-3.18-1.584-3.18   c-0.96,0-1.584,1.224-1.584,3.18c-0.024,2.028,0.6,3.252,1.572,3.252H181.786z"
   id="path81" />
</g>
<g
   id="g83">
	<path
   d="M139.543,73.036h-0.024l-1.356,0.732l-0.204-0.804l1.704-0.912h0.9v7.8h-1.02V73.036z"
   id="path85" />
	<path
   d="M145.699,73.036h-0.024l-1.356,0.732l-0.204-0.804l1.704-0.912h0.9v7.8h-1.02V73.036z"
   id="path87" />
</g>
<g
   id="g89">
	<path
   d="M92.2,153.104v-2.123h-3.624v-0.685l3.48-4.992h1.14v4.86h1.092v0.816h-1.092v2.123H92.2z M92.2,150.164v-2.616   c0-0.407,0.012-0.815,0.036-1.224H92.2c-0.24,0.455-0.432,0.791-0.648,1.164l-1.908,2.652v0.023H92.2z"
   id="path91" />
	<path
   d="M97.576,153.236c-1.524,0-2.568-1.428-2.592-4.008c0-2.629,1.14-4.057,2.724-4.057c1.632,0,2.58,1.464,2.58,3.948   c0,2.651-0.996,4.116-2.7,4.116H97.576z M97.624,152.42c1.068,0,1.584-1.26,1.584-3.252c0-1.92-0.48-3.18-1.584-3.18   c-0.96,0-1.584,1.224-1.584,3.18c-0.024,2.027,0.6,3.252,1.572,3.252H97.624z"
   id="path93" />
</g>
<g
   id="g95">
	<path
   d="M91.228,186.188h-0.024l-1.356,0.732l-0.204-0.805l1.704-0.912h0.9v7.801h-1.02V186.188z"
   id="path97" />
	<path
   d="M99.748,186.092h-2.976l-0.3,1.979c0.18-0.024,0.348-0.048,0.636-0.048c0.612,0,1.2,0.132,1.68,0.42   c0.612,0.336,1.116,1.02,1.116,2.027c0,1.525-1.212,2.664-2.904,2.664c-0.852,0-1.56-0.239-1.944-0.479l0.264-0.804   c0.324,0.191,0.96,0.432,1.68,0.432c0.984,0,1.848-0.648,1.836-1.703c0-1.033-0.684-1.74-2.232-1.74   c-0.456,0-0.804,0.035-1.092,0.084l0.504-3.721h3.732V186.092z"
   id="path99" />
</g>
<g
   id="g101">
	<path
   d="M89.188,232.637c0.3,0.181,0.984,0.48,1.728,0.48c1.344,0,1.776-0.852,1.764-1.512c-0.012-1.092-0.996-1.561-2.016-1.561   h-0.588v-0.791h0.588c0.768,0,1.74-0.396,1.74-1.32c0-0.624-0.396-1.176-1.368-1.176c-0.624,0-1.224,0.275-1.56,0.516l-0.288-0.768   c0.42-0.301,1.212-0.601,2.052-0.601c1.536,0,2.232,0.912,2.232,1.86c0,0.816-0.492,1.5-1.44,1.848v0.023   c0.96,0.181,1.74,0.9,1.74,1.992c0,1.248-0.984,2.34-2.844,2.34c-0.876,0-1.644-0.275-2.028-0.527L89.188,232.637z"
   id="path103" />
	<path
   d="M100.156,226.037v0.696l-3.396,7.104h-1.08l3.372-6.9v-0.023h-3.816v-0.877H100.156z"
   id="path105" />
</g>
<g
   id="g107">
	<path
   d="M283.221,16.677c-0.217-0.012-0.492,0.012-0.793,0.06c-1.668,0.264-2.531,1.476-2.712,2.772h0.024   c0.371-0.504,1.031-0.912,1.896-0.912c1.379,0,2.352,1.008,2.352,2.52c0,1.44-0.973,2.76-2.604,2.76   c-1.656,0-2.748-1.296-2.748-3.324c0-1.536,0.539-2.748,1.319-3.528c0.647-0.636,1.513-1.032,2.496-1.152   c0.312-0.048,0.575-0.06,0.769-0.06V16.677z M281.408,23.061c0.9,0,1.512-0.756,1.512-1.872c0-1.116-0.636-1.788-1.607-1.788   c-0.637,0-1.236,0.384-1.524,0.96c-0.06,0.12-0.108,0.264-0.108,0.456c0.012,1.284,0.612,2.244,1.717,2.244H281.408z"
   id="path109" />
	<path
   d="M288.188,23.745v-2.124h-3.623v-0.684l3.479-4.992h1.14v4.86h1.092v0.816h-1.092v2.124H288.188z M288.188,20.805v-2.616   c0-0.408,0.012-0.816,0.036-1.224h-0.036c-0.24,0.456-0.432,0.792-0.647,1.164l-1.908,2.652v0.024H288.188z"
   id="path111" />
</g>
<g
   id="g113">
	<path
   d="M179.72,15.944v0.696l-3.396,7.104h-1.08l3.372-6.9v-0.024H174.8v-0.876H179.72z"
   id="path115" />
	<path
   d="M180.812,23.745v-0.648l0.828-0.804c1.991-1.896,2.903-2.904,2.903-4.08c0-0.792-0.371-1.524-1.535-1.524   c-0.708,0-1.296,0.36-1.656,0.66l-0.336-0.744c0.528-0.444,1.308-0.792,2.208-0.792c1.668,0,2.376,1.152,2.376,2.268   c0,1.44-1.044,2.604-2.688,4.188l-0.612,0.576v0.024h3.492v0.876H180.812z"
   id="path117" />
</g>
<g
   id="g119">
	<path
   d="M355.598,151.275h-0.024l-1.356,0.732l-0.203-0.805l1.703-0.912h0.9v7.801h-1.02V151.275z"
   id="path121" />
	<path
   d="M362.725,158.092v-2.124h-3.623v-0.685l3.479-4.992h1.14v4.861h1.092v0.815h-1.092v2.124H362.725z M362.725,155.152v-2.617   c0-0.407,0.012-0.815,0.036-1.224h-0.036c-0.24,0.456-0.432,0.792-0.647,1.164l-1.908,2.652v0.024H362.725z"
   id="path123" />
	<path
   d="M368.101,158.224c-1.524,0-2.567-1.428-2.592-4.008c0-2.628,1.14-4.056,2.724-4.056c1.633,0,2.58,1.463,2.58,3.947   c0,2.652-0.996,4.116-2.699,4.116H368.101z M368.148,157.408c1.068,0,1.584-1.26,1.584-3.252c0-1.92-0.48-3.181-1.584-3.181   c-0.96,0-1.584,1.224-1.584,3.181c-0.023,2.027,0.6,3.252,1.572,3.252H368.148z"
   id="path125" />
</g>
<g
   id="g127">
	
		<namedview
   id="base"
   window-width="1280"
   window-height="971"
   cx="584.84303"
   pageshadow="2"
   bordercolor="#666666"
   borderopacity="1.0"
   pageopacity="0.0"
   window-y="-4"
   current-layer="Flag of Andorra"
   window-x="-4"
   zoom="0.57357145"
   cy="152.0745"
   pagecolor="#ffffff">
		</namedview>
	
		<path
   id="path1074"
   nodetypes="csccccccccccccsccccccccccssccccccccccsccccccccccccccccccccc"
   fill="#E7E7E8"
   stroke="#939598"
   stroke-width="0.5832"
   d="   M221.255,169.229c4.558,6.628,1.118,19.755-14.608,19.755c-11.617,0-15.329,1.657-16.571,2.899c2.646,2.321,2.023,6.837-1.766,7.15   c-2.076,1.62-3.978,2.012-6.105-0.209c-1.03,1.387-1.798,2.788-3.314,3.415c-1.725-1.045-2.598-2.141-3.675-3.516   c-2.072,1.657-3.665,2.075-5.113,0.463c-4.473,0-7.071-4.564-2.972-7.255c-2.389-2.792-8.125-2.948-13.097-2.948   c-18.229,2.071-23.312-12.89-16.572-21.127c-4.562-1.437-4.584-8.104,1.662-6.784c2.246-0.622,2.531-6.793,1.881-8.44   c-3.469,2.308-7.648-1.635-4.087-5.512c-9.472-3.32-5.784-20.784,5.516-18.618c2.03,0.371,2.284-0.795,2.9-1.657   c0.616-1.75-0.31-3.829-3.21-6.314c-4.557-2.899-2.381-7.356-1.15-8.02c0.202-0.985,1.785-2.842,2.615-2.52   c0.829-1.609,4.361-2.493,4.955-1.787c1.396-1.098,3.221-1.347,4.407-0.724c1.762-0.684,3.327,0.044,3.363,0.933   c2.912,0.366,3.599,2.482,2.702,5.023c1.3,1.497,2.386,1.449,5.282,1.191c3.314-0.415,3.507-3.523,1.851-5.18   c-2.901-7.042,2.646-10.375,6.527-7.871c5.375,3.562,8.193,3.19,11.186,0.415c3.328-3.087,10.674,0.108,7.774,7.15   c-1.657,2.071-1.829,5.329,2.583,5.277c0.491-0.105,4.653-0.213,4.858-0.351c-2.304-2.28-0.474-5.976,2.441-6.02   c0.198-0.62,1.661-0.84,2.848-0.261c0.56-0.78,3.431-0.31,4.199,0.679c1.083-0.422,4.887,0.563,5.338,2.333   c1.966,0.358,2.808,1.44,2.799,2.426c2.711,1.508,1.291,5.759-1.766,7.464c-2.9,2.071-3.008,4.384-3.008,5.213   c0,0.828,0.885,2.962,3.004,2.602c13.332-2.247,14.554,15.018,5.8,18.642c1.319,2.445,0.713,5.456-3.471,4.956   c-1.803,2.658-0.233,8.337,2.147,9.945c4.972-2.117,7.048,6.235,1.846,6.77V169.229L221.255,169.229L221.255,169.229   L221.255,169.229L221.255,169.229L221.255,169.229L221.255,169.229L221.255,169.229L221.255,169.229L221.255,169.229   L221.255,169.229L221.255,169.229L221.255,169.229L221.255,169.229L221.255,169.229L221.255,169.229L221.255,169.229   L221.255,169.229z" />
	
		<path
   id="path1077"
   type="spiral"
   t0="0"
   revolution="1"
   cx="190.00955"
   expansion="1"
   radius="5.9726992"
   argument="-18.116739"
   cy="179.29407"
   fill="none"
   stroke="#939598"
   stroke-width="0.3565"
   d="   M216.107,144.517c0.218,0.411,0.677,0.011,0.701-0.236c0.069-0.67-0.793-1.143-1.427-1.127c-1.134,0.027-1.664,1.105-1.382,2.074   c0.413,1.42,2.137,2.257,3.556,2.019" />
	
		<path
   id="path1079"
   type="spiral"
   t0="0"
   revolution="1"
   cx="190.00955"
   expansion="1"
   radius="5.9726992"
   argument="-18.116739"
   cy="179.29407"
   fill="none"
   stroke="#939598"
   stroke-width="0.3565"
   d="   M216.107,134.258c0.218-0.411,0.677-0.011,0.701,0.236c0.069,0.67-0.793,1.143-1.427,1.128c-1.134-0.027-1.664-1.106-1.382-2.074   c0.413-1.42,2.137-2.258,3.556-2.019" />
	
		<path
   id="path1082"
   type="spiral"
   t0="0"
   revolution="1"
   cx="190.00955"
   expansion="1"
   radius="5.9726992"
   argument="-18.116739"
   cy="179.29407"
   fill="none"
   stroke="#939598"
   stroke-width="0.3565"
   d="   M175.013,114.543c0.411-0.218,0.01-0.677-0.237-0.702c-0.671-0.069-1.144,0.793-1.128,1.426c0.027,1.134,1.107,1.665,2.074,1.383   c1.421-0.413,2.258-2.137,2.02-3.556" />
	
		<path
   id="path1083"
   type="spiral"
   t0="0"
   revolution="1"
   cx="190.00955"
   expansion="1"
   radius="5.9726992"
   argument="-18.116739"
   cy="179.29407"
   fill="none"
   stroke="#939598"
   stroke-width="0.3565"
   d="   M182.444,114.555c-0.411-0.218-0.011-0.677,0.237-0.702c0.668-0.068,1.142,0.793,1.126,1.427c-0.026,1.133-1.106,1.665-2.073,1.383   c-1.421-0.414-2.258-2.138-2.019-3.556" />
	
		<path
   id="path1084"
   type="spiral"
   t0="0"
   revolution="3"
   cx="190.00955"
   expansion="2"
   radius="5.9726992"
   argument="-18.116739"
   cy="179.29407"
   fill="none"
   stroke="#939598"
   stroke-width="0.2594"
   d="   M187.705,194.719c-0.008-0.011,0.016-0.021,0.02-0.022c0.051-0.005,0.066,0.066,0.058,0.104c-0.026,0.119-0.167,0.143-0.259,0.104   c-0.19-0.084-0.219-0.347-0.129-0.523c0.157-0.309,0.551-0.348,0.812-0.18c0.414,0.265,0.453,0.87,0.196,1.273   c-0.375,0.59-1.165,0.645-1.685,0.256c-0.72-0.539-0.768-1.637-0.256-2.358c0.682-0.96,2.01-1.028,2.872-0.329   c1.109,0.904,1.164,2.647,0.311,3.776c-1.074,1.421-3.087,1.502-4.374,0.398c-1.585-1.358-1.645-3.899-0.361-5.528" />
	
		<path
   id="path1085"
   type="spiral"
   t0="0"
   revolution="1"
   cx="190.00955"
   expansion="1"
   radius="5.9726992"
   argument="-18.116739"
   cy="179.29407"
   fill="none"
   stroke="#939598"
   stroke-width="0.2703"
   d="   M211.943,173.596c-0.379-0.448,0.408-0.783,0.734-0.692c0.881,0.245,0.937,1.463,0.522,2.184c-0.739,1.288-2.423,1.378-3.46,0.586   c-1.522-1.161-1.496-3.546-0.313-5.059" />
	
		<path
   id="path1087"
   type="spiral"
   t0="0"
   revolution="3"
   cx="190.00955"
   expansion="2"
   radius="5.9726992"
   argument="-18.116739"
   cy="179.29407"
   fill="none"
   stroke="#939598"
   stroke-width="0.2594"
   d="   M200.933,111.666c-0.001,0.012-0.026,0.002-0.029-0.001c-0.038-0.033,0.004-0.094,0.038-0.113c0.105-0.06,0.218,0.028,0.25,0.123   c0.067,0.197-0.107,0.395-0.299,0.447c-0.334,0.093-0.628-0.171-0.681-0.478c-0.083-0.485,0.337-0.921,0.808-1.004   c0.689-0.121,1.262,0.425,1.325,1.07c0.087,0.895-0.689,1.671-1.568,1.78c-1.168,0.146-2.114-0.79-2.179-1.897   c-0.083-1.429,1.167-2.646,2.577-2.777c1.773-0.167,3.191,1.265,3.245,2.959c0.066,2.087-1.77,3.845-3.837,3.996" />
	
		<path
   id="path1088"
   type="spiral"
   t0="0"
   revolution="3"
   cx="190.00955"
   expansion="2"
   radius="5.9726992"
   argument="-18.116739"
   cy="179.29407"
   fill="none"
   stroke="#939598"
   stroke-width="0.2594"
   d="   M156.59,111.666c0.001,0.012,0.025,0.002,0.029-0.001c0.039-0.033-0.004-0.094-0.039-0.113c-0.104-0.06-0.218,0.028-0.249,0.123   c-0.068,0.197,0.108,0.395,0.298,0.447c0.334,0.093,0.629-0.171,0.682-0.478c0.083-0.485-0.337-0.921-0.809-1.004   c-0.689-0.121-1.261,0.425-1.325,1.07c-0.088,0.895,0.69,1.671,1.567,1.78c1.169,0.146,2.116-0.79,2.18-1.897   c0.083-1.429-1.167-2.646-2.577-2.777c-1.773-0.167-3.191,1.265-3.245,2.959c-0.066,2.087,1.769,3.845,3.836,3.996" />
	<path
   id="path1090"
   nodetypes="cccsscsc"
   fill="none"
   stroke="#939598"
   stroke-width="0.5832"
   d="M211.981,173.109   c2.041-2.988,6.569-0.121,5.729,3.824c-1.458,3.791-6.124,8.165-12.539,8.165c-6.416,0-10.846-0.257-15.457,0.874   c-4.665,1.134-9.374,3.265-10.381,6.088c-1.961,5.416,0.592,5.693,1.277,2.621c0.584-2.041,1.379-3.278,2.604-4.128   c1.862-1.296,3.001-0.79,3.001-0.79" />
	<path
   id="path1091"
   nodetypes="ccccssc"
   fill="none"
   stroke="#939598"
   stroke-width="0.5832"
   d="M184.809,191.822   c1.304-2.59,5.489-4.683,8.697-4.683s7.582,0,11.081-0.292c3.5-0.291,8.458-1.167,11.665-4.082   c3.208-2.916,4.199-5.346,3.964-7.976c-0.188-2.676-3.226-5.694-5.713-6.021c-2.331-0.313-4.34,0.821-5.112,1.956" />
	<path
   id="path1092"
   nodetypes="csc"
   fill="none"
   stroke="#939598"
   stroke-width="0.5832"
   d="M218.33,164.597   c-3.369-1.794-4.887-4.687-4.994-8.074c-0.146-4.646,1.969-6.538,2.46-7" />
	<path
   id="path1093"
   nodetypes="cccc"
   fill="none"
   stroke="#939598"
   stroke-width="0.5832"
   d="M220.949,168.939   c-5.719-0.729-10.991-5.874-9.654-14.458c0.583-3.208,2.844-7.29,5.176-7.29c0.912,0.109,2.88,0.183,4.011-0.036" />
	<path
   id="path1094"
   nodetypes="csc"
   fill="none"
   stroke="#939598"
   stroke-width="0.5832"
   d="M217.419,131.481   c3.572,0.547,4.886,3.442,5.214,6.488c0.263,2.798-0.655,7.866-6.206,6.761" />
	<path
   id="path1095"
   nodetypes="cc"
   fill="none"
   stroke="#939598"
   stroke-width="0.5832"
   d="M214.064,134.688   c-1.458-2.333-0.145-6.452-0.145-6.452" />
	<path
   id="path1096"
   nodetypes="ccc"
   fill="none"
   stroke="#939598"
   stroke-width="0.5832"
   d="M216.252,137.859   c-3.79,1.167-5.832,0-6.707-2.332c-1.094-2.843-0.33-4.708,0.252-6.166" />
	<path
   id="path1097"
   nodetypes="ccc"
   fill="none"
   stroke="#939598"
   stroke-width="0.5832"
   d="M218.877,139.026   c-2.625,3.499-7.582,2.334-9.04,0.293c-1.458-2.042-1.75-3.063-1.75-3.063" />
	<path
   id="path1098"
   nodetypes="cccc"
   fill="none"
   stroke="#939598"
   stroke-width="0.5832"
   d="M208.087,140.412   c0.876,1.458,2.041,2.697,2.625,4.447c-2.042,1.749-1.604,4.228-0.438,5.977c-0.875,2.041-1.969,9.55,0.511,11.736" />
	<path
   id="path1099"
   nodetypes="ccc"
   fill="none"
   stroke="#939598"
   stroke-width="0.5832"
   d="M216.689,112.71   c0.583,2.333-3.062,5.905-5.104,7.946s-2.719,4.198-2.428,6.531" />
	<path
   id="path1100"
   nodetypes="cc"
   fill="none"
   stroke="#939598"
   stroke-width="0.5832"
   d="M212.972,109.648   c1.458,2.624,0.073,6.998-1.823,7.436" />
	<path
   id="path1101"
   nodetypes="cc"
   fill="none"
   stroke="#939598"
   stroke-width="0.5832"
   d="M208.087,108.263   c2.041,2.625,1.167,5.322-0.656,7.071" />
	<path
   id="path1102"
   nodetypes="cc"
   fill="none"
   stroke="#939598"
   stroke-width="0.5832"
   d="M204.515,107.898   c1.749,2.041,1.458,5.322,0.219,6.416" />
	<path
   id="path1103"
   nodetypes="csssccssscc"
   fill="none"
   stroke="#939598"
   stroke-width="0.5832"
   d="M200.797,115.699   c-4.229,1.167-13.257-0.246-14.873-0.344c-1.737-0.101-1.662-1.46-0.279-2.612c1.932-1.553,2.775-4.037,3.049-5.427   c0.528-2.811-1.239-4.083-3.354-3.281c-2.624,1.75-8.456,2.624-11.373,0.875c-2.916-1.75-6.728-1.299-5.541,2.333   c0.604,2.051,1.889,4.543,3.037,5.528c1.881,1.556,1.883,2.331-0.12,2.816c-1.521,0.381-3.792,0.404-6.926,0.841   c-4.667,0-7.875-0.729-7.875-0.729" />
	<path
   id="path1104"
   nodetypes="cccc"
   fill="none"
   stroke="#939598"
   stroke-width="0.5832"
   d="M186.215,108.118   c0.583-1.604-1.458-1.75-2.916,0c-1.458,1.75-6.999,2.624-8.749,0.875s-3.937-2.041-3.135-0.729" />
	<path
   id="path1105"
   nodetypes="cccccccccc"
   fill="none"
   stroke="#939598"
   stroke-width="0.5832"
   d="M148.596,168.478   V117.74l59.491-0.292c0,0,0,48.405,0.292,52.195c0.291,3.792-2.917,8.165-8.166,7.874c-5.249-0.292-16.549-1.095-18.663,0   c-0.729,0.729-2.115,1.821-2.698,2.113c-0.51-0.364-2.771-2.041-3.426-2.405c-2.479-0.438-15.748,0.874-18.373,0   C154.428,176.351,148.304,168.478,148.596,168.478L148.596,168.478z" />
	<path
   id="path1106"
   nodetypes="ccccccc"
   fill="#6D6F71"
   stroke="#939598"
   stroke-width="0.5832"
   d="M151.191,120.394   l26.538-0.137l-0.048,26.274l-26.169,0.077l-0.107-26.214l0,0H151.191L151.191,120.394z" />
	<path
   id="path1107"
   nodetypes="cccccccc"
   fill="#D1D3D4"
   stroke="#939598"
   stroke-width="0.5832"
   d="M151.512,148.436   l26.246-0.077c0,0,0.06,23.958,0.06,25.124s-1.227-0.339-3.268-0.339s-11.957,0.583-14.873,0.583c-2.917,0-8.166-4.083-8.166-6.707   S151.512,148.728,151.512,148.436L151.512,148.436L151.512,148.436z" />
	
		<path
   id="path1108"
   type="spiral"
   t0="0"
   revolution="1"
   cx="190.00955"
   expansion="1"
   radius="5.9726992"
   argument="-18.116739"
   cy="179.29407"
   fill="none"
   stroke="#939598"
   stroke-width="0.3565"
   d="   M218.456,150.912c-0.421-0.196-0.548,0.398-0.419,0.611c0.35,0.576,1.322,0.435,1.819,0.041c0.888-0.704,0.661-1.887-0.146-2.489   c-1.186-0.884-3.066-0.514-4.056,0.532" />
	
		<path
   id="path1109"
   type="spiral"
   t0="0"
   revolution="1"
   cx="190.00955"
   expansion="1"
   radius="5.9726992"
   argument="-18.116739"
   cy="179.29407"
   fill="none"
   stroke="#939598"
   stroke-width="0.3565"
   d="   M220.727,162.719c-0.379,0.269-0.61-0.294-0.522-0.526c0.24-0.63,1.222-0.666,1.782-0.368c1.001,0.532,0.991,1.734,0.306,2.475   c-1.007,1.083-2.924,1.059-4.085,0.209" />
	
		<path
   id="path1110"
   type="spiral"
   t0="0"
   revolution="1"
   cx="190.00955"
   expansion="1"
   radius="5.9726992"
   argument="-18.116739"
   cy="179.29407"
   fill="none"
   stroke="#939598"
   stroke-width="0.3565"
   d="   M211.984,128.238c-0.424-0.189-0.057-0.675,0.188-0.717c0.664-0.115,1.196,0.712,1.226,1.345c0.051,1.133-0.989,1.737-1.975,1.523   c-1.446-0.314-2.4-1.977-2.26-3.408" />
	
		<path
   id="path1111"
   type="spiral"
   t0="0"
   revolution="1"
   cx="190.00955"
   expansion="1"
   radius="5.9726992"
   argument="-18.116739"
   cy="179.29407"
   fill="none"
   stroke="#939598"
   stroke-width="0.3645"
   d="   M140.995,144.999c-0.208,0.412-0.646,0.011-0.669-0.237c-0.065-0.673,0.756-1.148,1.36-1.133c1.08,0.027,1.586,1.111,1.318,2.083   c-0.394,1.427-2.038,2.268-3.389,2.027" />
	
		<path
   id="path1113"
   type="spiral"
   t0="0"
   revolution="1"
   cx="190.00955"
   expansion="1"
   radius="5.9726992"
   argument="-18.116739"
   cy="179.29407"
   fill="none"
   stroke="#939598"
   stroke-width="0.3645"
   d="   M140.995,134.695c-0.208-0.412-0.646-0.011-0.669,0.238c-0.065,0.672,0.756,1.147,1.36,1.132c1.08-0.027,1.586-1.111,1.318-2.083   c-0.394-1.427-2.038-2.268-3.389-2.027" />
	
		<path
   id="path1116"
   type="spiral"
   t0="0"
   revolution="3"
   cx="190.00955"
   expansion="2"
   radius="5.9726992"
   argument="-18.116739"
   cy="179.29407"
   fill="none"
   stroke="#939598"
   stroke-width="0.2651"
   d="   M168.058,195.417c0.008-0.01-0.016-0.021-0.02-0.021c-0.048-0.005-0.063,0.066-0.055,0.105c0.026,0.118,0.161,0.143,0.247,0.103   c0.183-0.085,0.208-0.348,0.124-0.524c-0.15-0.312-0.525-0.351-0.775-0.182c-0.394,0.268-0.431,0.874-0.187,1.279   c0.358,0.593,1.109,0.646,1.604,0.257c0.686-0.541,0.732-1.644,0.245-2.369c-0.649-0.964-1.916-1.032-2.736-0.328   c-1.058,0.906-1.111,2.657-0.297,3.792c1.024,1.428,2.941,1.507,4.168,0.398c1.51-1.364,1.567-3.915,0.343-5.55" />
	
		<path
   id="path1117"
   type="spiral"
   t0="0"
   revolution="1"
   cx="190.00955"
   expansion="1"
   radius="5.9726992"
   argument="-18.116739"
   cy="179.29407"
   fill="none"
   stroke="#939598"
   stroke-width="0.2764"
   d="   M144.963,174.204c0.36-0.451-0.39-0.786-0.7-0.696c-0.84,0.247-0.893,1.471-0.499,2.193c0.705,1.293,2.309,1.383,3.297,0.588   c1.45-1.166,1.425-3.561,0.297-5.08" />
	<path
   id="path1119"
   nodetypes="cccsscsc"
   fill="none"
   stroke="#939598"
   stroke-width="0.5832"
   d="M144.926,173.715   c-1.945-3.001-6.26-0.121-5.459,3.841c1.389,3.807,5.835,8.2,11.949,8.2c6.114,0,10.334-0.257,14.729,0.878   c4.446,1.138,8.932,3.279,9.894,6.114c1.868,5.439-0.565,5.718-1.219,2.633c-0.556-2.05-1.314-3.292-2.48-4.146   c-1.775-1.3-2.86-0.793-2.86-0.793" />
	<path
   id="path1120"
   nodetypes="ccccssc"
   fill="none"
   stroke="#939598"
   stroke-width="0.5832"
   d="M170.818,192.509   c-1.241-2.602-5.23-4.703-8.287-4.703c-3.057,0-7.225,0-10.56-0.293c-3.335-0.293-8.059-1.171-11.116-4.1s-4.001-5.369-3.776-8.011   c0.179-2.688,3.073-5.719,5.444-6.046c2.22-0.314,4.134,0.825,4.872,1.964" />
	<path
   id="path1121"
   nodetypes="csc"
   fill="none"
   stroke="#939598"
   stroke-width="0.5832"
   d="M138.875,165.166   c3.471-1.151,4.657-4.707,4.759-8.109c0.14-4.665-1.875-6.567-2.343-7.031" />
	<path
   id="path1122"
   nodetypes="cccc"
   fill="none"
   stroke="#939598"
   stroke-width="0.5832"
   d="M137.161,167.966   c5.449-0.732,9.692-4.339,8.419-12.96c-0.556-3.221-2.709-7.061-4.933-7.061c-1.128-0.151-2.354,0.054-3.17-0.688" />
	<path
   id="path1123"
   nodetypes="csc"
   fill="none"
   stroke="#939598"
   stroke-width="0.5832"
   d="M139.745,131.906   c-3.404,0.549-5.436,2.937-5.748,5.996c-0.251,2.81,1.404,8.42,6.694,7.31" />
	<path
   id="path1124"
   nodetypes="cc"
   fill="none"
   stroke="#939598"
   stroke-width="0.5832"
   d="M142.94,135.128   c1.39-2.343,0.139-6.48,0.139-6.48" />
	<path
   id="path1125"
   nodetypes="ccc"
   fill="none"
   stroke="#939598"
   stroke-width="0.5832"
   d="M140.856,138.312   c3.613,1.173,5.558,0,6.392-2.343c1.042-2.855,0.315-4.728-0.241-6.192" />
	<path
   id="path1126"
   nodetypes="ccc"
   fill="none"
   stroke="#939598"
   stroke-width="0.5832"
   d="M138.355,139.485   c2.501,3.514,7.225,2.343,8.615,0.292c1.389-2.051,1.667-3.076,1.667-3.076" />
	<path
   id="path1127"
   nodetypes="cccc"
   fill="none"
   stroke="#939598"
   stroke-width="0.5832"
   d="M148.637,140.876   c-0.834,1.464-1.945,2.709-2.501,4.466c1.945,1.758,1.529,4.247,0.417,6.004c0.834,2.05,1.875,9.591-0.486,11.787" />
	<path
   id="path1128"
   nodetypes="ccc"
   fill="none"
   stroke="#939598"
   stroke-width="0.5832"
   d="M140.699,112.533   c-0.556,2.343,2.658,6.451,4.603,8.5c1.945,2.05,2.591,4.216,2.313,6.559" />
	<path
   id="path1129"
   nodetypes="cc"
   fill="none"
   stroke="#939598"
   stroke-width="0.5832"
   d="M144.112,109.458   c-1.389,2.636-0.2,7.549,1.607,7.988" />
	<path
   id="path1130"
   nodetypes="cc"
   fill="none"
   stroke="#939598"
   stroke-width="0.5832"
   d="M148.767,107.938   c-1.945,2.635-1.242,5.995,0.495,7.752" />
	<path
   id="path1131"
   nodetypes="cc"
   fill="none"
   stroke="#939598"
   stroke-width="0.5832"
   d="M152.691,107.441   c-1.667,2.05-2.04,6.125-0.859,7.223" />
	
		<path
   id="path1134"
   type="spiral"
   t0="0"
   revolution="1"
   cx="190.00955"
   expansion="1"
   radius="5.9726992"
   argument="-18.116739"
   cy="179.29407"
   fill="none"
   stroke="#939598"
   stroke-width="0.3645"
   d="   M138.757,151.421c0.402-0.197,0.521,0.401,0.399,0.615c-0.333,0.577-1.26,0.436-1.733,0.04c-0.846-0.707-0.631-1.894,0.139-2.499   c1.13-0.889,2.923-0.517,3.864,0.533" />
	
		<path
   id="path1135"
   type="spiral"
   t0="0"
   revolution="1"
   cx="190.00955"
   expansion="1"
   radius="5.9726992"
   argument="-18.116739"
   cy="179.29407"
   fill="none"
   stroke="#939598"
   stroke-width="0.3645"
   d="   M136.593,163.279c0.361,0.271,0.581-0.296,0.497-0.529c-0.228-0.632-1.164-0.668-1.697-0.369c-0.954,0.534-0.945,1.742-0.292,2.483   c0.959,1.09,2.786,1.065,3.892,0.212" />
	
		<path
   id="path1136"
   type="spiral"
   t0="0"
   revolution="1"
   cx="190.00955"
   expansion="1"
   radius="5.9726992"
   argument="-18.116739"
   cy="179.29407"
   fill="none"
   stroke="#939598"
   stroke-width="0.3645"
   d="   M144.922,128.65c0.404-0.19,0.055-0.678-0.178-0.72c-0.633-0.115-1.139,0.715-1.167,1.351c-0.049,1.138,0.942,1.745,1.88,1.53   c1.378-0.315,2.288-1.985,2.154-3.422" />
	<path
   id="path1221"
   nodetypes="cccccccc"
   fill="#D1D3D4"
   stroke="#939598"
   stroke-width="0.5832"
   d="M205.646,148.28   l-25.924,0.138c0,0-0.059,24.064-0.059,25.23c0,1.167,1.012-1.089,3.053-1.089c2.041,0,11.957,0.584,14.873,0.584   c2.915,0,8.165-4.083,8.165-6.707S205.754,148.894,205.646,148.28L205.646,148.28L205.646,148.28z" />
	<path
   id="path1222"
   nodetypes="cccccc"
   fill="#D1D3D4"
   stroke="#939598"
   stroke-width="0.5832"
   d="M179.509,120.239   l26.215-0.029l-0.047,26.38l-26.168-0.028V120.239L179.509,120.239L179.509,120.239z" />
	<path
   id="path1235"
   nodetypes="ccssc"
   fill="none"
   stroke="#FFFFFF"
   stroke-width="1.5164"
   d="M154.932,142.737   c-3.512-0.269-2.136-4.467,0.339-4.055c2.475,0.413,1.555,3.368,2.21,4.541c0.756,1.479,3.15,2.193,4.527,0.682   c1.186-1.361,0.76-3.126,0.76-3.877" />
	<path
   id="path1231"
   nodetypes="csscc"
   fill="none"
   stroke="#D1D3D4"
   stroke-width="1.3997"
   d="M173.855,126.104   c3.913-0.738,2.448-4.128,0.413-4.536c-1.885-0.331-3.593,0.698-3.111,2.608c0.206,0.928,0.498,2.479-0.601,3.165   c-1.237,0.825-16.08,17.464-16.427,17.742" />
	<path
   id="path1233"
   nodetypes="ccccccccc"
   fill="#FFFFFF"
   d="M164.648,121.915c-0.417,0.277-6.677,7.909-7.016,8.177   c-0.338,0.269-0.621,1.433-0.347,1.841c0.273,0.408,3.785,8.192,3.785,8.192l7.011-0.073c0.278-0.209,3.656-7.871,3.924-8.319   c0.339-0.423,0.125-1.501-0.208-1.775C171.534,129.615,164.986,122.123,164.648,121.915L164.648,121.915L164.648,121.915z" />
	<path
   id="path1230"
   nodetypes="ccssc"
   fill="none"
   stroke="#FFFFFF"
   stroke-width="1.5164"
   d="M174.268,142.807   c3.513-0.269,2.137-4.467-0.339-4.054c-2.474,0.414-1.555,3.368-2.209,4.541c-0.756,1.479-3.151,2.193-4.528,0.682   c-1.186-1.36-0.76-3.407-0.76-4.064" />
	<path
   id="path1232"
   nodetypes="ccccc"
   fill="#D1D3D4"
   stroke="#6D6F71"
   stroke-width="0.3671"
   d="M165.305,125.388   c0,0,0,11.473,0,12.748c-0.069,0.631,1.914,0.784,2.401-1.136c0.485-0.774,2.135-5.663,2.135-5.663L165.305,125.388   L165.305,125.388z" />
	<path
   id="path1234"
   nodetypes="ccccc"
   fill="#D1D3D4"
   stroke="#6D6F71"
   stroke-width="0.3616"
   d="M164.046,125.37   c0,0,0,11.437,0,12.707c0.069,0.629-1.915,0.781-2.401-1.132c-0.486-0.771-2.136-5.645-2.136-5.645L164.046,125.37L164.046,125.37z   " />
	
		<path
   id="path958"
   nodetypes="cccccccccccccccccccccccccccccccccccccccccccccccccccccccccccccccccc"
   fill="#6D6F71"
   stroke="#939598"
   stroke-width="0.1232"
   d="   M197.992,165.699c0.14,0.608,0.281,0.468,0.562,0.608c0.279,0.14,0.187,0.514,0.279,0.888c0.018,0.662,0.227,1.805,0.29,2.17   c0.062,0.212-0.285,0.327-0.355,0.058c-0.093-0.187-0.121-0.17-0.168,0.109c-0.046,0.281-0.353,0.451-0.685,0.457   c-0.179,0.024,0.184-0.368-0.277-0.138l-0.038-0.03c-0.193-0.096,0.206-0.289,0.439-0.615c0.234-0.328,0.326-1.029,0.14-1.263   c-0.187-0.234-0.326-0.514-0.326-0.748c0-0.233-0.281-0.28-0.562-0.515c-0.281-0.233-0.468-0.28-0.561,0.047   c-0.095,0.327,0.093,0.561,0.046,0.936c-0.046,0.374-0.421,0.28-0.654,0.607c-0.234,0.327-1.403,1.309-1.403,1.309   s-0.279-0.14-0.327,0.094c-0.047,0.234-0.537,0.449-0.748,0.401l-0.047-0.214h-0.374c-0.022-0.164,0.141-0.281,0.328-0.515   c0.187-0.233,0.421-0.14,0.7-0.327c0.281-0.187,0.562-0.562,0.843-0.981c0.279-0.421,0.279-0.795,0.14-0.936   c-0.14-0.14-0.233-0.467-0.233-0.467s-0.327,0.046-0.374-0.234c-0.047-0.281-1.637,0.515-1.87,0.654   c-0.234,0.141-0.842,0.188-0.842,0.188s0.14,1.402,0.188,1.683c0.046,0.281,0.14,0.537-0.188,0.49   c-0.047-0.256-0.28-0.187-0.233,0.071c0,0.374-0.281,0.607-0.281,0.607l-0.607,0.012v-0.339l-0.262,0.112   c-0.047-0.069,0.004-0.229,0.215-0.439c0.326-0.28,0.515-1.075,0.515-1.402c0-0.328-0.188-0.702-0.188-0.702   s-1.214-0.047-1.355-0.233c-0.14-0.187-1.401-1.028-1.543-1.215c-0.14-0.188-1.262-1.263-1.402-1.497   c-0.141-0.233-0.468,0.095-0.7,0.048c-0.234-0.048-0.375,0.42-0.656,0.515c-0.279,0.093-0.654,0.045-0.841-0.047   c-0.187-0.095-0.14-0.281-0.374-0.468c-0.233-0.188-0.187-0.281,0.093-0.468c0.281-0.187,0.562-0.842,0.468-0.982   c-0.093-0.14-0.14-0.327,0-0.468c0.141-0.14,0.281-0.56,0.281-0.747s0.14-0.467,0.327-0.467s1.169-0.142,1.402,0.045   c0.233,0.188,1.87,0.843,2.432,0.843c0.561,0,2.058-0.141,2.291-0.047c0.234,0.094,2.852,0.094,3.226,0.047   c0.375-0.047,1.076-0.328,1.637-0.233c0.562,0.093,0.843,0.187,1.076,0.514c0.232,0.327,0.607,0.561,0.981,0.795   C199.442,163.923,199.208,165.278,197.992,165.699L197.992,165.699L197.992,165.699L197.992,165.699L197.992,165.699   L197.992,165.699L197.992,165.699L197.992,165.699L197.992,165.699z" />
	<path
   id="path956"
   nodetypes="cccc"
   fill="#6D6F71"
   stroke="#939598"
   stroke-width="0.1232"
   d="M185.135,161.306   c-0.328-0.328-0.094-0.516-0.515-0.421c0,0.373,0.093,0.654,0.327,0.841C185.181,161.913,185.135,161.351,185.135,161.306   L185.135,161.306z" />
	<path
   id="path957"
   nodetypes="ccc"
   fill="#D1D3D4"
   stroke="#939598"
   stroke-width="0.1232"
   d="M197.806,165.186   c0.841-0.375,0.888-1.402-0.328-1.964C196.263,162.66,197.853,165.231,197.806,165.186L197.806,165.186z" />
	<path
   id="path959"
   fill="#6D6F71"
   stroke="#939598"
   stroke-width="0.1232"
   d="M191.119,162.146   c-0.289,0.271-0.561,0.634-0.028,0.841c0.061,0.024,0.089,0.032,0.081,0.098" />
	<path
   id="path960"
   fill="#6D6F71"
   stroke="#939598"
   stroke-width="0.1232"
   d="M196.402,161.96c0,0.181,0.407,0.548,0.561,0.666" />
	<path
   id="path961"
   nodetypes="cccc"
   fill="#6D6F71"
   stroke="#939598"
   stroke-width="0.1232"
   d="M196.355,162.848   c0,0.337-0.054,0.564,0,0.867c0.054,0.309,0.049,0.627-0.071,0.9c-0.048,0.025-0.075,0.113-0.124,0.161" />
	<path
   id="path963"
   nodetypes="ccccc"
   fill="#6D6F71"
   stroke="#939598"
   stroke-width="0.1232"
   d="M189.295,165.278   c0,0.375,0.349,0.78,0.634,1.012c0.145,0.117,0.225,0.293,0.435,0.347c0.036,0.01,0.501,0.3,0.532,0.329   c0.084,0.077,0.072,0.232,0.168,0.325" />
	<path
   id="path965"
   nodetypes="ccc"
   fill="#6D6F71"
   stroke="#939598"
   stroke-width="0.1232"
   d="M195.258,165.303   c0.228,0.228,0.452,0.518,0.715,0.715c0.208,0.155,0.606,0.514,0.867,0.496" />
	<path
   id="path966"
   nodetypes="ccc"
   fill="#6D6F71"
   stroke="#939598"
   stroke-width="0.1232"
   d="M194.532,166.356   c0.334,0,0.649-0.088,0.973-0.146c0.059-0.011,0.413-0.186,0.395-0.237" />
	<path
   id="path971"
   nodetypes="ccccc"
   fill="#6D6F71"
   stroke="#939598"
   stroke-width="0.1232"
   d="M188.778,162.969   c0,0.22,0.151,0.495,0.096,0.715c-0.054,0.22-0.139,0.372-0.14,0.601c0,0.209-0.25,0.846-0.331,1.053   c-0.035,0.086,0.024,0.185,0.051,0.272" />
	<path
   id="path972"
   nodetypes="cc"
   fill="#6D6F71"
   stroke="#939598"
   stroke-width="0.1232"
   d="M187.145,163.735   c0,0.295-0.411,0.488-0.646,0.582" />
	<path
   id="path973"
   fill="#6D6F71"
   stroke="#939598"
   stroke-width="0.1232"
   d="M186.678,162.614   c-0.298,0.596-1.048-0.042-1.028,0.516c0.003,0.092,0.577,0.138,0.562-0.194" />
	<path
   id="path974"
   fill="#6D6F71"
   stroke="#939598"
   stroke-width="0.1232"
   d="M186.07,163.128c0,0.212-0.262,0.192-0.382,0.377" />
	<path
   id="path975"
   fill="#6D6F71"
   stroke="#939598"
   stroke-width="0.1232"
   d="M185.368,161.726c0.136,0.067,0.387-0.024,0.49,0.047   c0.054,0.037,0.151,0.155,0.171,0.093" />
	<path
   id="path976"
   fill="#6D6F71"
   stroke="#939598"
   stroke-width="0.1232"
   d="M184.76,162.987c0.131,0,0.301,0,0.297,0" />
	<path
   id="path977"
   fill="#6D6F71"
   stroke="#939598"
   stroke-width="0.1232"
   d="M185.414,164.905c0.398,0,0.205-0.689,0.233-0.752" />
	<path
   id="path978"
   fill="#6D6F71"
   stroke="#939598"
   stroke-width="0.1232"
   d="M184.9,164.203c-0.1,0.201-0.527,0.322,0.01,0.423   c0.029,0.005,0.152-0.155,0.131-0.191" />
	<path
   id="path979"
   fill="#6D6F71"
   stroke="#939598"
   stroke-width="0.1232"
   d="M191.914,167.195l-0.047-1.823" />
	<path
   id="path980"
   nodetypes="ccccccccccc"
   fill="#6D6F71"
   stroke="#939598"
   stroke-width="0.1232"
   d="M197.758,165.186   c-0.748,0.14-2.01,0.046-2.571-0.422c-0.561-0.466-1.403-1.401-2.058-1.262c-0.654,0.141-1.448,0.094-1.122,0.328   c0.328,0.233,0.796,0.468,1.076,0.373c0.28-0.094-1.544-0.14-0.936,0.095c0.608,0.233,1.075,0.326,1.31,0.187   c0.233-0.141,0.421-0.234,0.888,0.14c0.468,0.373,1.263,0.982,1.731,1.029c0.466,0.046,1.869,0,1.869,0h0.115" />
	<path
   id="path981"
   fill="#6D6F71"
   stroke="#939598"
   stroke-width="0.1232"
   d="M191.961,163.735   c0.487,0.245,0.888,0.103,1.364,0.041" />
	<path
   id="path982"
   nodetypes="ccccccccccc"
   fill="#A7A9AC"
   stroke="#939598"
   stroke-width="0.1232"
   d="M188.163,162.052   c0.234,1.216-0.598,2.666-0.831,2.759c-0.234,0.095-0.421-0.233-0.421-0.233s0,0.375,0.093,0.562   c0.094,0.187-0.279,0.748-0.279,0.98c0,0.234,1.075,0.234,0.981,0c-0.094-0.14-0.234-0.654-0.234-0.7   c0.094-0.233,1.637-1.107,1.263-3.305c-0.141,0.047-0.374-0.172-0.607-0.172l0,0L188.163,162.052L188.163,162.052z" />
	<path
   id="path983"
   nodetypes="cc"
   fill="#6D6F71"
   stroke="#939598"
   stroke-width="0.1232"
   d="M197.853,169.476   c0.202,0.038,0.498,0.057,0.702,0.057" />
	<path
   id="path984"
   nodetypes="cc"
   fill="#6D6F71"
   stroke="#939598"
   stroke-width="0.1232"
   d="M193.551,169.767   c0.047,0.039,0.204-0.241,0.273-0.214" />
	<path
   id="path985"
   nodetypes="cc"
   fill="#6D6F71"
   stroke="#939598"
   stroke-width="0.1232"
   d="M193.551,169.393   c0.074,0,0.943,0.157,0.918,0.197" />
	<path
   id="path986"
   fill="#6D6F71"
   stroke="#939598"
   stroke-width="0.1232"
   d="M190.745,169.532c0.374,0.188,0.625,0.133,0.89-0.142   " />
	<path
   id="path990"
   fill="#6D6F71"
   stroke="#939598"
   stroke-width="0.1232"
   d="M187.028,165.278l0.421,0.117" />
	
		<path
   id="path991"
   ry="1.8978195"
   rx="1.0438004"
   type="arc"
   cx="146.22705"
   cy="169.07578"
   fill="#6D6F71"
   stroke="#939598"
   stroke-width="0.3077"
   d="   M187.379,166.308c0,0.128-0.059,0.233-0.129,0.233s-0.129-0.105-0.129-0.233c0-0.13,0.059-0.234,0.129-0.234   S187.379,166.178,187.379,166.308L187.379,166.308z" />
	<path
   id="path992"
   nodetypes="cc"
   fill="none"
   stroke="#939598"
   stroke-width="0.1232"
   d="M185.836,162.918   c0.07,0.163,0.143,0.235,0.143,0.235" />
	
		<rect
   id="rect1253"
   x="182.821"
   y="120.964"
   fill="#6D6F71"
   stroke="#6D6F71"
   stroke-width="0.9253"
   width="4.608"
   height="24.865" />
	
		<rect
   id="rect1254"
   x="171.952"
   y="149.135"
   fill="#6D6F71"
   stroke="#6D6F71"
   stroke-width="0.9223"
   width="2.832"
   height="23.68" />
	
		<rect
   id="rect1255"
   x="190.378"
   y="120.964"
   fill="#6D6F71"
   stroke="#6D6F71"
   stroke-width="0.9253"
   width="4.609"
   height="24.865" />
	
		<rect
   id="rect1256"
   x="197.936"
   y="120.979"
   fill="#6D6F71"
   stroke="#6D6F71"
   stroke-width="0.9253"
   width="4.609"
   height="24.866" />
	
		<rect
   id="rect1257"
   x="166.267"
   y="149.135"
   fill="#6D6F71"
   stroke="#6D6F71"
   stroke-width="0.9277"
   width="2.833"
   height="23.961" />
	
		<rect
   id="rect1258"
   x="160.302"
   y="149.183"
   fill="#6D6F71"
   stroke="#6D6F71"
   stroke-width="0.9259"
   width="2.833"
   height="23.867" />
	<polygon
   id="rect1259"
   fill="#6D6F71"
   stroke="#6D6F71"
   stroke-width="0.9177"
   points="154.383,149.183 157.215,149.183    157.215,172.627 154.383,171.236  " />
	<path
   id="path1261"
   nodetypes="cccccccc"
   fill="none"
   stroke="#939598"
   stroke-width="0.5832"
   d="M151.512,148.436   l26.246-0.077c0,0,0.06,23.958,0.06,25.124s-1.227-0.339-3.268-0.339s-11.957,0.583-14.873,0.583c-2.917,0-8.166-4.083-8.166-6.707   S151.512,148.728,151.512,148.436L151.512,148.436L151.512,148.436z" />
	<path
   id="path794"
   nodetypes="ccccccccccccc"
   fill="#6D6F71"
   stroke="#939598"
   stroke-width="0.1232"
   d="M189.514,166.976   c-0.586,0.136-0.668,0.605-0.395,0.67c0.273,0.063,1.232,0.099,0.841,0.438c-0.18,0.15,0.633-0.066,0.476,0.496   c-0.074,0.318-0.177,0.441-0.332,0.284l-0.032,0.241c-0.239-0.009-0.343-0.08-0.502-0.214c-0.378-0.233-0.704-0.776-0.933-0.831   c-0.373-0.09-0.412-0.289-0.646-0.728c-0.013-0.513,0.448-1.222,0.502-1.157C188.712,166.503,189.334,166.62,189.514,166.976   L189.514,166.976L189.514,166.976L189.514,166.976z" />
	<path
   id="path988"
   fill="#6D6F71"
   stroke="#939598"
   stroke-width="0.1232"
   d="M189.816,168.828c0.201-0.048,0.224,0.08,0.371,0.088   " />
	<path
   id="path987"
   nodetypes="cc"
   fill="#6D6F71"
   stroke="#939598"
   stroke-width="0.1232"
   d="M189.739,168.955   c0.189-0.228,0.265-0.51,0.331-0.79" />
	<path
   id="path795"
   nodetypes="cccc"
   fill="#6D6F71"
   stroke="#939598"
   stroke-width="0.1232"
   d="M186.884,161.378   c0.328-0.327,0.094-0.515,0.515-0.421c0,0.373-0.094,0.654-0.328,0.841C186.837,161.985,186.884,161.425,186.884,161.378   L186.884,161.378z" />
	
		<path
   id="path796"
   nodetypes="cccccccccccccccccccccccccccccccccccccccccccccccccccccccccccccccccc"
   fill="#6D6F71"
   stroke="#939598"
   stroke-width="0.1232"
   d="   M197.944,155.695c0.14,0.608,0.28,0.468,0.562,0.608c0.279,0.141,0.187,0.515,0.279,0.889c0.017,0.663,0.227,1.804,0.29,2.17   c0.063,0.211-0.285,0.326-0.356,0.057c-0.093-0.187-0.12-0.17-0.166,0.111c-0.047,0.279-0.354,0.45-0.686,0.456   c-0.179,0.024,0.185-0.368-0.277-0.138l-0.039-0.03c-0.192-0.097,0.206-0.288,0.44-0.616c0.233-0.328,0.327-1.027,0.14-1.262   c-0.187-0.233-0.327-0.515-0.327-0.748c0-0.234-0.28-0.281-0.562-0.515c-0.279-0.233-0.468-0.281-0.561,0.047   c-0.094,0.328,0.093,0.562,0.046,0.935c-0.046,0.374-0.42,0.281-0.654,0.607c-0.233,0.328-1.401,1.31-1.401,1.31   s-0.281-0.14-0.328,0.094s-0.537,0.448-0.748,0.401l-0.047-0.215h-0.374c-0.022-0.164,0.14-0.28,0.328-0.515   c0.187-0.233,0.42-0.14,0.701-0.326c0.28-0.188,0.561-0.562,0.841-0.982c0.281-0.421,0.281-0.794,0.141-0.936   c-0.141-0.14-0.234-0.467-0.234-0.467s-0.326,0.047-0.374-0.234c-0.047-0.279-1.636,0.515-1.87,0.656   c-0.233,0.14-0.841,0.187-0.841,0.187s0.14,1.402,0.187,1.683s0.14,0.537-0.187,0.491c-0.047-0.258-0.281-0.188-0.233,0.069   c0,0.374-0.281,0.608-0.281,0.608l-0.607,0.011v-0.338l-0.262,0.112c-0.047-0.07,0.004-0.229,0.215-0.439   c0.327-0.281,0.515-1.075,0.515-1.403c0-0.326-0.188-0.701-0.188-0.701s-1.216-0.046-1.355-0.234   c-0.142-0.187-1.403-1.027-1.544-1.214c-0.14-0.188-1.262-1.264-1.401-1.497c-0.142-0.233-0.468,0.094-0.702,0.047   c-0.233-0.047-0.374,0.421-0.654,0.515c-0.28,0.093-0.655,0.047-0.842-0.047c-0.188-0.094-0.141-0.281-0.374-0.468   s-0.188-0.28,0.093-0.468c0.281-0.187,0.562-0.841,0.468-0.981c-0.093-0.14-0.14-0.327,0-0.467c0.141-0.141,0.28-0.562,0.28-0.748   c0-0.188,0.142-0.468,0.328-0.468s1.169-0.14,1.403,0.047c0.233,0.187,1.869,0.841,2.431,0.841c0.561,0,2.058-0.14,2.291-0.047   c0.233,0.094,2.852,0.094,3.227,0.047c0.373-0.047,1.075-0.327,1.636-0.233c0.562,0.094,0.842,0.187,1.076,0.515   c0.233,0.326,0.607,0.561,0.98,0.794C199.394,153.919,199.16,155.274,197.944,155.695L197.944,155.695L197.944,155.695   L197.944,155.695L197.944,155.695L197.944,155.695L197.944,155.695L197.944,155.695L197.944,155.695z" />
	<path
   id="path797"
   nodetypes="cccc"
   fill="#6D6F71"
   stroke="#939598"
   stroke-width="0.1232"
   d="M185.087,151.302   c-0.328-0.328-0.095-0.515-0.515-0.421c0,0.374,0.094,0.654,0.327,0.842C185.134,151.909,185.087,151.349,185.087,151.302   L185.087,151.302z" />
	<path
   id="path798"
   nodetypes="ccc"
   fill="#D1D3D4"
   stroke="#939598"
   stroke-width="0.1232"
   d="M197.757,155.183   c0.842-0.375,0.889-1.403-0.327-1.965C196.215,152.657,197.804,155.229,197.757,155.183L197.757,155.183z" />
	<path
   id="path799"
   fill="#6D6F71"
   stroke="#939598"
   stroke-width="0.1232"
   d="M191.07,152.143c-0.289,0.272-0.56,0.634-0.028,0.842   c0.062,0.024,0.09,0.031,0.082,0.098" />
	<path
   id="path800"
   fill="#6D6F71"
   stroke="#939598"
   stroke-width="0.1232"
   d="M196.354,151.956c0,0.181,0.407,0.549,0.562,0.666" />
	<path
   id="path801"
   nodetypes="cccc"
   fill="#6D6F71"
   stroke="#939598"
   stroke-width="0.1232"
   d="M196.308,152.845   c0,0.336-0.055,0.563-0.001,0.866c0.056,0.309,0.05,0.628-0.071,0.9c-0.048,0.025-0.073,0.115-0.124,0.161" />
	<path
   id="path802"
   nodetypes="ccccc"
   fill="#6D6F71"
   stroke="#939598"
   stroke-width="0.1232"
   d="M189.247,155.274   c0,0.375,0.349,0.781,0.634,1.013c0.144,0.117,0.225,0.292,0.435,0.347c0.035,0.009,0.5,0.3,0.532,0.328   c0.084,0.077,0.071,0.232,0.168,0.326" />
	<path
   id="path803"
   nodetypes="ccc"
   fill="#6D6F71"
   stroke="#939598"
   stroke-width="0.1232"
   d="M195.209,155.299   c0.229,0.228,0.453,0.518,0.717,0.716c0.206,0.155,0.605,0.514,0.866,0.495" />
	<path
   id="path804"
   nodetypes="ccc"
   fill="#6D6F71"
   stroke="#939598"
   stroke-width="0.1232"
   d="M194.484,156.354   c0.333,0,0.649-0.088,0.974-0.146c0.058-0.012,0.411-0.186,0.394-0.238" />
	<path
   id="path805"
   nodetypes="ccccc"
   fill="#6D6F71"
   stroke="#939598"
   stroke-width="0.1232"
   d="M188.73,152.965   c0,0.22,0.151,0.496,0.096,0.716c-0.055,0.22-0.139,0.372-0.14,0.6c-0.001,0.209-0.251,0.848-0.332,1.053   c-0.034,0.086,0.026,0.185,0.052,0.273" />
	<path
   id="path806"
   nodetypes="cc"
   fill="#6D6F71"
   stroke="#939598"
   stroke-width="0.1232"
   d="M187.097,153.732   c0,0.295-0.412,0.487-0.646,0.581" />
	<path
   id="path807"
   fill="#6D6F71"
   stroke="#939598"
   stroke-width="0.1232"
   d="M186.629,152.61   c-0.298,0.596-1.047-0.041-1.027,0.516c0.003,0.092,0.577,0.138,0.562-0.194" />
	<path
   id="path808"
   fill="#6D6F71"
   stroke="#939598"
   stroke-width="0.1232"
   d="M186.021,153.125c0,0.213-0.261,0.192-0.381,0.377" />
	<path
   id="path809"
   fill="#6D6F71"
   stroke="#939598"
   stroke-width="0.1232"
   d="M185.32,151.723c0.135,0.067,0.387-0.024,0.49,0.047   c0.054,0.036,0.15,0.154,0.171,0.093" />
	<path
   id="path810"
   fill="#6D6F71"
   stroke="#939598"
   stroke-width="0.1232"
   d="M184.712,152.984c0.131,0,0.301,0,0.297,0" />
	<path
   id="path811"
   fill="#6D6F71"
   stroke="#939598"
   stroke-width="0.1232"
   d="M185.367,154.901c0.397,0,0.204-0.689,0.232-0.751" />
	<path
   id="path812"
   fill="#6D6F71"
   stroke="#939598"
   stroke-width="0.1232"
   d="M184.853,154.199   c-0.101,0.202-0.528,0.322,0.01,0.423c0.028,0.006,0.153-0.154,0.131-0.19" />
	<path
   id="path813"
   fill="#6D6F71"
   stroke="#939598"
   stroke-width="0.1232"
   d="M191.866,157.192l-0.047-1.823" />
	<path
   id="path814"
   nodetypes="ccccccccccc"
   fill="#6D6F71"
   stroke="#939598"
   stroke-width="0.1232"
   d="M197.71,155.183   c-0.747,0.14-2.011,0.046-2.571-0.421c-0.562-0.468-1.402-1.403-2.057-1.264c-0.655,0.142-1.449,0.095-1.123,0.328   c0.328,0.233,0.795,0.468,1.076,0.373c0.279-0.092-1.543-0.14-0.936,0.095c0.607,0.233,1.075,0.326,1.31,0.187   c0.233-0.141,0.42-0.233,0.888,0.14c0.468,0.375,1.263,0.982,1.73,1.029c0.467,0.046,1.869,0,1.869,0h0.116" />
	<path
   id="path815"
   fill="#6D6F71"
   stroke="#939598"
   stroke-width="0.1232"
   d="M191.913,153.732   c0.487,0.244,0.888,0.102,1.363,0.041" />
	<path
   id="path816"
   nodetypes="ccccccccccc"
   fill="#A7A9AC"
   stroke="#939598"
   stroke-width="0.1232"
   d="M188.115,152.049   c0.233,1.215-0.598,2.666-0.832,2.759c-0.233,0.094-0.42-0.234-0.42-0.234s0,0.375,0.094,0.562   c0.093,0.188-0.281,0.749-0.281,0.982s1.075,0.233,0.981,0c-0.093-0.141-0.233-0.654-0.233-0.701   c0.094-0.233,1.637-1.107,1.263-3.305c-0.14,0.047-0.374-0.172-0.607-0.172l0,0L188.115,152.049L188.115,152.049z" />
	<path
   id="path817"
   nodetypes="cc"
   fill="#6D6F71"
   stroke="#939598"
   stroke-width="0.1232"
   d="M197.804,159.472   c0.203,0.038,0.5,0.059,0.702,0.059" />
	<path
   id="path818"
   nodetypes="cc"
   fill="#6D6F71"
   stroke="#939598"
   stroke-width="0.1232"
   d="M193.503,159.764   c0.048,0.039,0.204-0.241,0.273-0.214" />
	<path
   id="path819"
   nodetypes="cc"
   fill="#6D6F71"
   stroke="#939598"
   stroke-width="0.1232"
   d="M193.503,159.389   c0.074,0,0.943,0.158,0.919,0.198" />
	<path
   id="path820"
   fill="#6D6F71"
   stroke="#939598"
   stroke-width="0.1232"
   d="M190.697,159.53c0.373,0.187,0.624,0.132,0.89-0.144" />
	<path
   id="path821"
   fill="#6D6F71"
   stroke="#939598"
   stroke-width="0.1232"
   d="M186.98,155.274l0.42,0.117" />
	
		<path
   id="path822"
   ry="1.8978195"
   rx="1.0438004"
   type="arc"
   cx="146.22705"
   cy="169.07578"
   fill="#6D6F71"
   stroke="#939598"
   stroke-width="0.3077"
   d="   M187.331,156.304c0,0.13-0.059,0.233-0.129,0.233c-0.071,0-0.128-0.104-0.128-0.233c0-0.129,0.057-0.233,0.128-0.233   C187.272,156.07,187.331,156.175,187.331,156.304L187.331,156.304z" />
	<path
   id="path823"
   nodetypes="cc"
   fill="none"
   stroke="#939598"
   stroke-width="0.1232"
   d="M185.788,152.914   c0.07,0.164,0.142,0.236,0.142,0.236" />
	<path
   id="path824"
   nodetypes="ccccccccccccc"
   fill="#6D6F71"
   stroke="#939598"
   stroke-width="0.1232"
   d="M189.465,156.972   c-0.584,0.136-0.667,0.606-0.394,0.67c0.272,0.064,1.233,0.099,0.84,0.438c-0.18,0.149,0.634-0.067,0.478,0.496   c-0.076,0.319-0.179,0.44-0.333,0.284l-0.033,0.241c-0.239-0.008-0.342-0.081-0.502-0.215c-0.378-0.232-0.704-0.776-0.932-0.829   c-0.373-0.091-0.411-0.29-0.646-0.729c-0.014-0.513,0.448-1.222,0.502-1.156C188.665,156.5,189.285,156.617,189.465,156.972   L189.465,156.972L189.465,156.972L189.465,156.972z" />
	<path
   id="path825"
   fill="#6D6F71"
   stroke="#939598"
   stroke-width="0.1232"
   d="M189.77,158.826c0.201-0.048,0.222,0.079,0.37,0.086" />
	<path
   id="path826"
   nodetypes="cc"
   fill="#6D6F71"
   stroke="#939598"
   stroke-width="0.1232"
   d="M189.691,158.951   c0.189-0.228,0.265-0.509,0.33-0.789" />
	<path
   id="path827"
   nodetypes="cccc"
   fill="#6D6F71"
   stroke="#939598"
   stroke-width="0.1232"
   d="M186.836,151.374   c0.327-0.326,0.094-0.514,0.515-0.421c0,0.374-0.095,0.654-0.327,0.842C186.789,151.982,186.836,151.421,186.836,151.374   L186.836,151.374z" />
	<g
   enable-background="new    "
   id="g259">
		<path
   fill="#6D6F71"
   d="M170.301,180.817v0.11c-0.153,0.002-0.257,0.013-0.313,0.032c-0.098,0.035-0.146,0.105-0.146,0.212    c0,0.054,0.018,0.13,0.052,0.228c0.035,0.097,0.101,0.259,0.196,0.487l0.954,2.271l0.867-2.461    c0.038-0.109,0.067-0.202,0.087-0.277c0.02-0.076,0.03-0.139,0.03-0.186c0-0.128-0.051-0.214-0.153-0.26    c-0.059-0.025-0.157-0.041-0.295-0.046v-0.11h1.249v0.11c-0.128,0.02-0.224,0.057-0.286,0.112    c-0.093,0.083-0.186,0.25-0.277,0.501l-1.35,3.677h-0.091l-1.509-3.592c-0.126-0.306-0.228-0.496-0.305-0.57    s-0.188-0.117-0.335-0.128v-0.11H170.301z"
   id="path261" />
		<path
   fill="#6D6F71"
   d="M173.052,185.021c0.251-0.028,0.413-0.089,0.484-0.184c0.07-0.095,0.107-0.314,0.107-0.658v-2.88    l-0.083-0.106c-0.089-0.112-0.165-0.182-0.228-0.208c-0.062-0.027-0.156-0.043-0.28-0.047v-0.12h1.039l2.365,3.131v-2.176    c0-0.356-0.05-0.59-0.149-0.698c-0.066-0.07-0.211-0.115-0.437-0.137v-0.12h1.438v0.12c-0.233,0.025-0.388,0.086-0.466,0.183    c-0.078,0.096-0.116,0.314-0.116,0.657v3.44h-0.104l-2.709-3.586v2.547c0,0.356,0.049,0.589,0.146,0.697    c0.064,0.071,0.207,0.118,0.426,0.145v0.119h-1.432V185.021z"
   id="path263" />
		<path
   fill="#6D6F71"
   d="M177.499,185.021c0.248-0.02,0.409-0.06,0.481-0.119c0.074-0.061,0.11-0.217,0.11-0.468v-2.909    c0-0.24-0.036-0.396-0.11-0.464c-0.072-0.069-0.233-0.109-0.481-0.123v-0.12h1.803v0.12c-0.248,0.014-0.409,0.054-0.481,0.123    c-0.074,0.068-0.111,0.224-0.111,0.464v2.909c0,0.251,0.038,0.407,0.111,0.468c0.072,0.06,0.233,0.1,0.481,0.119v0.119h-1.803    V185.021z"
   id="path265" />
		<path
   fill="#6D6F71"
   d="M179.547,180.817H183l0.028,1.106h-0.144c-0.071-0.349-0.163-0.574-0.272-0.68    c-0.111-0.104-0.344-0.157-0.698-0.157h-0.337v3.347c0,0.251,0.036,0.407,0.11,0.468c0.074,0.06,0.233,0.1,0.482,0.119v0.119    h-1.785v-0.119c0.263-0.021,0.425-0.067,0.491-0.137c0.064-0.069,0.097-0.246,0.097-0.527v-3.27h-0.341    c-0.338,0-0.568,0.052-0.691,0.155c-0.122,0.104-0.215,0.331-0.276,0.682h-0.149L179.547,180.817z"
   id="path267" />
		<path
   fill="#6D6F71"
   d="M182.766,185.14v-0.119c0.158-0.02,0.275-0.083,0.353-0.19c0.078-0.108,0.213-0.401,0.403-0.881    l1.271-3.204h0.127l1.518,3.7c0.102,0.245,0.182,0.396,0.242,0.456c0.062,0.058,0.163,0.098,0.306,0.119v0.119h-1.552v-0.119    c0.178-0.018,0.293-0.038,0.345-0.062s0.077-0.085,0.077-0.181c0-0.03-0.01-0.087-0.029-0.168    c-0.021-0.08-0.048-0.166-0.084-0.254l-0.245-0.629h-1.604c-0.162,0.428-0.258,0.688-0.289,0.782    c-0.031,0.095-0.047,0.169-0.047,0.225c0,0.11,0.042,0.188,0.126,0.229c0.052,0.026,0.149,0.045,0.292,0.059v0.119H182.766z     M185.396,183.462l-0.7-1.797l-0.697,1.797H185.396z"
   id="path269" />
	</g>
	<g
   enable-background="new    "
   id="g271">
		<path
   fill="#6D6F71"
   d="M188.675,184.604c0.227-0.062,0.363-0.129,0.409-0.203c0.046-0.075,0.05-0.25,0.009-0.529l-0.409-2.802    c-0.033-0.229-0.088-0.375-0.16-0.436c-0.073-0.062-0.22-0.085-0.438-0.07l-0.018-0.118l3.102-0.454l0.16,0.925l-0.162,0.023    c-0.083-0.29-0.186-0.467-0.307-0.529s-0.345-0.07-0.668-0.023l-0.802,0.117c-0.079,0.012-0.127,0.033-0.145,0.066    c-0.018,0.032-0.02,0.091-0.007,0.178l0.21,1.438l0.847-0.124c0.248-0.036,0.399-0.1,0.455-0.19    c0.057-0.093,0.087-0.266,0.093-0.521l0.138-0.02l0.218,1.493l-0.138,0.02c-0.08-0.244-0.16-0.401-0.239-0.472    c-0.08-0.07-0.243-0.09-0.489-0.053l-0.847,0.123l0.207,1.418c0.034,0.236,0.089,0.383,0.165,0.439    c0.075,0.056,0.225,0.078,0.448,0.064l0.018,0.118l-1.633,0.238L188.675,184.604z"
   id="path273" />
		<path
   fill="#6D6F71"
   d="M192.071,180.354c0.303-0.432,0.716-0.687,1.239-0.763c0.525-0.077,0.995,0.049,1.408,0.38    c0.449,0.357,0.726,0.881,0.825,1.569c0.103,0.7-0.017,1.286-0.358,1.759c-0.307,0.422-0.714,0.67-1.225,0.745    c-0.545,0.079-1.028-0.06-1.449-0.416c-0.426-0.365-0.688-0.874-0.783-1.531C191.628,181.409,191.743,180.828,192.071,180.354z     M192.971,183.454c0.288,0.29,0.607,0.409,0.957,0.357c0.344-0.05,0.614-0.251,0.812-0.603c0.196-0.352,0.245-0.876,0.144-1.571    c-0.103-0.704-0.301-1.195-0.592-1.472c-0.293-0.277-0.606-0.392-0.945-0.342c-0.348,0.051-0.62,0.257-0.813,0.616    c-0.194,0.36-0.242,0.881-0.143,1.562C192.488,182.681,192.683,183.165,192.971,183.454z"
   id="path275" />
		<path
   fill="#6D6F71"
   d="M196.123,183.516c0.221-0.056,0.352-0.124,0.396-0.205c0.045-0.082,0.047-0.257,0.008-0.525l-0.409-2.802    c-0.033-0.228-0.086-0.371-0.157-0.433c-0.073-0.062-0.214-0.087-0.428-0.074l-0.017-0.119l1.611-0.236    c0.335-0.049,0.623-0.042,0.86,0.021c0.451,0.117,0.711,0.415,0.78,0.896c0.048,0.322-0.01,0.583-0.174,0.783    c-0.164,0.201-0.404,0.353-0.721,0.454l1.438,1.461c0.088,0.091,0.173,0.153,0.254,0.188c0.08,0.036,0.18,0.051,0.297,0.046    l0.018,0.119l-0.938,0.138l-1.749-1.775l-0.253,0.051l0.187,1.273c0.034,0.239,0.09,0.386,0.164,0.44    c0.075,0.054,0.225,0.076,0.447,0.064l0.018,0.119l-1.616,0.235L196.123,183.516z M197.786,180.993    c0.29-0.187,0.407-0.476,0.351-0.867c-0.056-0.375-0.231-0.611-0.529-0.709c-0.16-0.052-0.361-0.06-0.606-0.023    c-0.165,0.023-0.265,0.052-0.298,0.084c-0.033,0.031-0.043,0.095-0.028,0.192l0.232,1.598    C197.324,181.189,197.617,181.099,197.786,180.993z"
   id="path277" />
		<path
   fill="#6D6F71"
   d="M199.101,178.833l3.293-0.479l0.184,1.091l-0.138,0.02c-0.119-0.334-0.238-0.546-0.36-0.634    c-0.12-0.089-0.351-0.107-0.689-0.06l-0.313,0.047l0.483,3.312c0.036,0.248,0.095,0.398,0.174,0.447    c0.078,0.05,0.238,0.066,0.478,0.051l0.018,0.118l-1.704,0.249l-0.018-0.118c0.246-0.059,0.395-0.126,0.446-0.203    c0.051-0.079,0.056-0.257,0.016-0.535l-0.473-3.236l-0.324,0.048c-0.322,0.047-0.535,0.131-0.637,0.251    c-0.102,0.119-0.156,0.356-0.165,0.712l-0.143,0.021L199.101,178.833z"
   id="path279" />
		<path
   fill="#6D6F71"
   d="M203.246,182.476c0.234-0.054,0.383-0.115,0.443-0.186c0.062-0.069,0.074-0.229,0.038-0.479l-0.42-2.878    c-0.035-0.237-0.093-0.386-0.173-0.443c-0.079-0.059-0.239-0.076-0.479-0.055l-0.017-0.119l1.723-0.251l0.017,0.118    c-0.235,0.048-0.383,0.111-0.443,0.189c-0.06,0.078-0.072,0.237-0.038,0.475l0.42,2.878c0.036,0.249,0.095,0.399,0.173,0.448    c0.079,0.05,0.239,0.066,0.479,0.051l0.018,0.118l-1.723,0.251L203.246,182.476z"
   id="path281" />
		<path
   fill="#6D6F71"
   d="M205.311,178.422c0.303-0.432,0.716-0.687,1.238-0.764c0.526-0.077,0.995,0.05,1.41,0.381    c0.448,0.357,0.724,0.88,0.824,1.568c0.102,0.7-0.018,1.286-0.359,1.76c-0.306,0.422-0.714,0.67-1.224,0.744    c-0.546,0.08-1.028-0.058-1.448-0.416c-0.428-0.363-0.688-0.874-0.785-1.53C204.866,179.477,204.981,178.896,205.311,178.422z     M206.209,181.521c0.288,0.289,0.607,0.408,0.958,0.356c0.344-0.05,0.613-0.251,0.812-0.603c0.197-0.352,0.244-0.875,0.143-1.571    c-0.103-0.703-0.3-1.193-0.592-1.472c-0.293-0.276-0.606-0.391-0.943-0.341c-0.35,0.051-0.621,0.256-0.815,0.616    c-0.194,0.359-0.242,0.88-0.143,1.561C205.728,180.748,205.922,181.232,206.209,181.521z"
   id="path283" />
		<path
   fill="#6D6F71"
   d="M209.363,181.582c0.22-0.056,0.352-0.124,0.395-0.205c0.045-0.082,0.048-0.256,0.009-0.524l-0.41-2.803    c-0.033-0.227-0.086-0.371-0.157-0.432c-0.072-0.062-0.214-0.087-0.428-0.075l-0.017-0.119l1.613-0.235    c0.335-0.049,0.621-0.042,0.858,0.02c0.451,0.117,0.711,0.416,0.782,0.896c0.046,0.322-0.012,0.584-0.176,0.783    c-0.164,0.2-0.404,0.353-0.721,0.454l1.438,1.461c0.088,0.09,0.173,0.152,0.254,0.188s0.18,0.051,0.298,0.047l0.017,0.118    l-0.938,0.137l-1.748-1.775l-0.253,0.051l0.187,1.273c0.035,0.239,0.09,0.386,0.164,0.441c0.075,0.054,0.224,0.075,0.446,0.064    l0.018,0.118l-1.616,0.236L209.363,181.582z M211.024,179.061c0.291-0.187,0.407-0.477,0.351-0.867    c-0.056-0.375-0.231-0.612-0.529-0.708c-0.158-0.054-0.36-0.062-0.605-0.025c-0.166,0.024-0.266,0.052-0.298,0.084    c-0.034,0.031-0.043,0.096-0.029,0.193l0.233,1.597C210.563,179.256,210.856,179.165,211.024,179.061z"
   id="path285" />
	</g>
	<g
   enable-background="new    "
   id="g287">
		<path
   fill="#6D6F71"
   d="M148.39,176.145l-0.028,0.107c-0.146-0.035-0.247-0.05-0.305-0.045c-0.101,0.011-0.164,0.067-0.19,0.172    c-0.014,0.053-0.016,0.13-0.007,0.234c0.008,0.104,0.029,0.276,0.063,0.52l0.334,2.447l1.427-2.193    c0.063-0.098,0.114-0.181,0.151-0.25c0.038-0.069,0.062-0.128,0.075-0.174c0.032-0.125,0.005-0.222-0.079-0.29    c-0.049-0.039-0.138-0.078-0.265-0.115l0.027-0.106l1.172,0.298l-0.027,0.107c-0.126-0.013-0.226,0.001-0.298,0.04    c-0.109,0.059-0.237,0.199-0.386,0.423l-2.18,3.264l-0.087-0.023l-0.528-3.865c-0.043-0.327-0.091-0.537-0.145-0.628    c-0.054-0.092-0.147-0.16-0.283-0.205l0.027-0.107L148.39,176.145z"
   id="path289" />
		<path
   fill="#6D6F71"
   d="M149.961,180.911c0.239,0.042,0.4,0.042,0.485,0c0.084-0.04,0.158-0.185,0.221-0.43l0.723-2.838    c0.06-0.234,0.064-0.396,0.012-0.48s-0.194-0.163-0.424-0.235l0.029-0.117l1.701,0.434l-0.03,0.116    c-0.237-0.047-0.399-0.046-0.485,0.005c-0.086,0.049-0.16,0.192-0.219,0.427l-0.724,2.838c-0.062,0.245-0.067,0.407-0.013,0.482    c0.054,0.077,0.196,0.155,0.426,0.232l-0.03,0.116l-1.701-0.434L149.961,180.911z"
   id="path291" />
		<path
   fill="#6D6F71"
   d="M151.848,181.392c0.226,0.034,0.376,0.021,0.448-0.037c0.073-0.059,0.143-0.22,0.21-0.484l0.705-2.763    c0.057-0.225,0.063-0.379,0.021-0.464c-0.043-0.085-0.166-0.164-0.369-0.235l0.03-0.116l1.591,0.405    c0.331,0.084,0.595,0.201,0.792,0.351c0.374,0.283,0.501,0.661,0.38,1.133c-0.081,0.317-0.236,0.537-0.466,0.659    c-0.229,0.123-0.511,0.169-0.845,0.143l0.775,1.92c0.047,0.118,0.102,0.209,0.163,0.273c0.062,0.064,0.148,0.116,0.259,0.157    l-0.03,0.117l-0.926-0.236l-0.938-2.328l-0.258-0.051l-0.32,1.256c-0.06,0.236-0.066,0.395-0.018,0.474    c0.048,0.08,0.178,0.158,0.39,0.233l-0.029,0.117l-1.595-0.406L151.848,181.392z M154.375,179.685    c0.34-0.062,0.561-0.284,0.658-0.668c0.095-0.369,0.022-0.656-0.217-0.86c-0.128-0.11-0.313-0.196-0.555-0.258    c-0.163-0.041-0.266-0.054-0.309-0.037s-0.077,0.072-0.102,0.168l-0.4,1.568C153.869,179.687,154.177,179.716,154.375,179.685z"
   id="path293" />
		<path
   fill="#6D6F71"
   d="M156.43,178.193l3.248,0.827l-0.253,1.093l-0.14-0.037c0.02-0.357-0.009-0.601-0.086-0.729    c-0.077-0.13-0.282-0.236-0.613-0.321l-0.312-0.079l-0.832,3.261c-0.062,0.247-0.066,0.407-0.012,0.484    c0.054,0.076,0.196,0.153,0.426,0.231l-0.03,0.117l-1.682-0.429l0.03-0.117c0.251,0.043,0.415,0.036,0.494-0.016    c0.077-0.053,0.151-0.217,0.221-0.491l0.812-3.188l-0.321-0.082c-0.318-0.081-0.548-0.085-0.688-0.013    c-0.141,0.073-0.284,0.273-0.43,0.601l-0.14-0.035L156.43,178.193z"
   id="path295" />
		<path
   fill="#6D6F71"
   d="M161.455,179.475l-0.027,0.106c-0.146-0.035-0.248-0.05-0.306-0.044c-0.101,0.011-0.164,0.067-0.19,0.172    c-0.014,0.052-0.016,0.13-0.007,0.232c0.008,0.104,0.029,0.277,0.062,0.52l0.333,2.449l1.427-2.194    c0.063-0.097,0.114-0.181,0.151-0.249c0.037-0.069,0.062-0.128,0.075-0.175c0.031-0.124,0.005-0.222-0.079-0.29    c-0.049-0.039-0.138-0.078-0.266-0.115l0.028-0.106l1.172,0.299l-0.028,0.106c-0.127-0.012-0.227,0.002-0.298,0.04    c-0.108,0.06-0.237,0.2-0.386,0.423l-2.18,3.264l-0.087-0.022l-0.527-3.865c-0.043-0.328-0.091-0.538-0.145-0.628    c-0.054-0.092-0.148-0.16-0.283-0.205l0.027-0.108L161.455,179.475z"
   id="path297" />
		<path
   fill="#6D6F71"
   d="M163.598,183.15c0.024,0.312,0.08,0.568,0.167,0.771c0.154,0.354,0.399,0.576,0.737,0.661    c0.184,0.048,0.358,0.022,0.525-0.072c0.166-0.094,0.279-0.257,0.338-0.487c0.053-0.207,0.032-0.405-0.064-0.593    c-0.063-0.12-0.212-0.314-0.444-0.581l-0.405-0.466c-0.121-0.141-0.212-0.275-0.272-0.403c-0.111-0.242-0.135-0.485-0.074-0.728    c0.082-0.322,0.247-0.565,0.494-0.729c0.248-0.165,0.53-0.206,0.848-0.125c0.131,0.033,0.279,0.108,0.446,0.227    c0.166,0.119,0.262,0.182,0.288,0.188c0.07,0.019,0.125,0.012,0.162-0.019c0.037-0.029,0.072-0.077,0.104-0.142l0.116,0.029    l-0.22,1.389l-0.14-0.037c0.011-0.432-0.066-0.757-0.231-0.971c-0.166-0.214-0.35-0.348-0.552-0.398    c-0.157-0.041-0.307-0.024-0.45,0.049s-0.237,0.201-0.284,0.383c-0.042,0.164-0.033,0.316,0.027,0.456    c0.061,0.141,0.168,0.301,0.325,0.477l0.418,0.476c0.261,0.296,0.434,0.551,0.517,0.765c0.082,0.216,0.09,0.448,0.027,0.697    c-0.085,0.335-0.27,0.585-0.555,0.752c-0.284,0.166-0.603,0.204-0.956,0.114c-0.178-0.045-0.355-0.13-0.529-0.253    c-0.174-0.125-0.275-0.19-0.304-0.197c-0.067-0.017-0.118-0.006-0.152,0.034c-0.035,0.039-0.063,0.084-0.084,0.134l-0.125-0.032    l0.173-1.4L163.598,183.15z"
   id="path299" />
	</g>
</g>
</svg>