<?xml version="1.0" encoding="UTF-8"?>
<svg version="1.0" xmlns="http://www.w3.org/2000/svg" xmlns:xlink="http://www.w3.org/1999/xlink" width="1000" height="520" viewBox="-25 -13 50 26">
<defs>
  <marker id="end" markerUnits="strokeWidth" markerWidth="9" markerHeight="6" refX="9" refY="3" orient="auto">
    <path d="M 3,3 l -3,-3 l 9,2.5 v 1 l -9,2.5 z"/>
  </marker>
  <marker id="start" markerUnits="strokeWidth" markerWidth="9" markerHeight="6" refX="0" refY="3" orient="auto">
    <path d="M 6,3 l 3,-3 l -9,2.5 v 1 l 9,2.5 z"/>
  </marker>
</defs>
<g style="opacity:0.5;">
  <rect x="-24" y="-12" width="48" height="12" style="fill:#e70013;"/>
  <rect x="-24" y="0" width="48" height="12" style="fill:#239e46;"/>
  <rect x="-24" y="-6" width="48" height="12" style="fill:000000#;"/>
  <circle r="3" style="fill:#ffffff;"/>
  <circle cx="0.6066017" r="2.6066017" style="fill:#000000;"/>
	<path transform="translate(3.689262)scale(2.230479)rotate(-90)" d="M0,-1 L0.58779,0.80902 L-0.95106,-0.30902 L0.95106,-0.30902 L-0.58779,0.80902z" style="fill:#ffffff;"/>
</g>
<g style="fill:none;stroke:#000000;stroke-width:0.06;stroke-dasharray:0.1,0.1;">
  <path d="M -24,0 H 6 M 0,-12 V 12"/>
  <path d="M 3,-3 H -8 M 3,3 H -8"/>
  <path d="M -3,3 V -7 M -2,3 V -7"/>
  <path d="M -3,-3 L 5.65685,5.65685 M -3,3 L 5.65685,-5.65685"/>
  <path d="M 2.12132,-2.12132 A 3,3 0 0 1 2.12132,2.12132"/>
  <path d="M 0,-2.12132 H 6 M 0,2.12132 H 6"/>
  <path d="M 3,-3 V 3"/>
</g>
<g style="fill:none;stroke:#000000;stroke-width:0.1;">
  <rect x="-24" y="-12" width="48" height="24"/>
  <path d="M -24,-6 H 24 M -24,6 H 24"/>
  <path d="M 2.12132,-2.12132 A 3,3 0 1 0 2.12132,2.12132 A 2.6066017,2.6066017 0 1 1 2.12132,-2.12132"/>
  <path style="stroke-linejoin:bevel;" d="M 3 -2.1210938 L 3 -0.5 L 1.4589844 0 L 3 0.5 L 3 2.1210938 L 3.953125 0.81054688 L 5.4941406 1.3105469 L 4.5410156 0 L 5.4941406 -1.3105469 L 3.953125 -0.81054688 L 3 -2.1210938 z"/>
</g>
<g style="fill:none;stroke:#000000;stroke-width:0.1;marker-start:url(#start);marker-end:url(#end);">
  <path d="M 5.65685,-5.65685 A 8,8 0 0 1 5.65685,5.65685"/>
  <path d="M -8,-3 V 3"/>
  <path d="M -3,-7 H -2" style="marker-start:url(#end);marker-end:url(#start);"/>
  <path d="M -24,-10.5 H 0"/>
  <path d="M 24,-10.5 H 0"/>
  <path d="M -22,-12 V -6"/>
  <path d="M -22,-6 V 0"/>
  <path d="M -22,0 V 6"/>
  <path d="M -22,6 V 12"/>
  <path d="M -3,-3.5 H 0"/>
</g>
<g id="labels">
  <path id="height" d="m -8.7597211,-0.05305997 q -0.088542,0 -0.140625,0.06054688 -0.051432,0.06054687 -0.051432,0.16601563 0,0.10481771 0.051432,0.16601563 0.052083,0.0605469 0.140625,0.0605469 0.088542,0 0.139974,-0.0605469 0.052083,-0.0611979 0.052083,-0.16601563 0,-0.10546876 -0.052083,-0.16601563 -0.051432,-0.06054688 -0.139974,-0.06054688 z m 0.2610677,-0.41210939 v 0.11979167 q -0.049479,-0.0234375 -0.1002604,-0.0358073 -0.05013,-0.0123698 -0.099609,-0.0123698 -0.1302083,0 -0.1992187,0.0878906 -0.068359,0.0878906 -0.078125,0.26562501 0.038411,-0.05664062 0.096354,-0.08658854 0.057943,-0.030599 0.1276042,-0.030599 0.1464844,0 0.2311198,0.08919271 0.085287,0.08854167 0.085287,0.24153647 0,0.14973958 -0.088542,0.24023438 -0.088542,0.0904948 -0.2356771,0.0904948 -0.1686198,0 -0.2578125,-0.12890625 -0.089193,-0.1295573 -0.089193,-0.37500001323 0,-0.23046875677 0.109375,-0.36718750677 0.109375,-0.1373698 0.2936198,-0.1373698 0.049479,0 0.099609,0.009766 0.050781,0.009766 0.1054689,0.0292966 z"/>
  <use xlink:href="#height" x="-12.5" y="-9"/>
  <use xlink:href="#height" x="-12.5" y="-3"/>
  <use xlink:href="#height" x="-12.5" y="3"/>
  <use xlink:href="#height" x="-12.5" y="9"/>
  <path id="thickness" d="m -2.770508,-7.4106771 h 0.214844 v -0.7415364 l -0.233724,0.046875 v -0.1197917 l 0.232422,-0.046875 h 0.13151 v 0.8613281 h 0.214844 V -7.3 h -0.559896 z"/>
  <g id="width">
    <path d="m -12.604167,-9.338672 h 0.458984 v 0.1106771 H -12.76237 V -9.338672 q 0.07487,-0.077474 0.203776,-0.2076823 0.129557,-0.1308594 0.16276,-0.1686198 0.06315,-0.070964 0.08789,-0.1197917 0.02539,-0.049479 0.02539,-0.097005 0,-0.077474 -0.05469,-0.1263022 -0.05404,-0.04883 -0.141276,-0.04883 -0.06185,0 -0.130859,0.02148 -0.06836,0.02149 -0.146485,0.0651 v -0.132812 q 0.07943,-0.0319 0.148438,-0.04818 0.06901,-0.01628 0.126302,-0.01628 0.151042,0 0.240885,0.07552 0.08984,0.07552 0.08984,0.2018227 0,0.059896 -0.02279,0.1139323 -0.02214,0.053385 -0.08138,0.1263021 -0.01628,0.01888 -0.103515,0.109375 -0.08724,0.089844 -0.246094,0.2519531 z" />
    <path d="m -11.507162,-10.085417 -0.332031,0.5188804 h 0.332031 z M -11.541667,-10.2 h 0.165365 v 0.6334634 h 0.138672 v 0.109375 h -0.138672 v 0.2291667 h -0.13086 v -0.2291667 h -0.438802 v -0.1269531 z" />
  </g>
  <use xlink:href="#width" x="24"/>
  <g id="angle">
    <path d="M 8.390502,0.46516921 V 0.34537754 q 0.049479,0.0234375 0.1002604,0.0358073 0.050781,0.0123698 0.099609,0.0123698 0.1302083,0 0.1985677,-0.0872396 0.06901,-0.0878906 0.078776,-0.26627605 -0.03776,0.05598958 -0.095703,0.0859375 -0.057943,0.0299479 -0.1282552,0.0299479 -0.1458333,0 -0.2311198,-0.08789063 -0.084635,-0.08854167 -0.084635,-0.24153646 0,-0.14973959 0.088542,-0.24023439 0.088542,-0.0904948 0.2356771,-0.0904948 0.1686198,0 0.2571615,0.1295573 0.089193,0.12890625 0.089193,0.37500000677 0,0.22981771323 -0.109375,0.36718751323 -0.1087239,0.13671875 -0.2929687,0.13671875 -0.049479,0 -0.1002605,-0.009766 -0.050781,-0.009766 -0.1054695,-0.0292965 z M 8.6522207,0.05305982 q 0.088542,0 0.139974,-0.06054687 0.052083,-0.06054688 0.052083,-0.16601563 0,-0.10481771 -0.052083,-0.16536459 -0.051432,-0.0611979 -0.139974,-0.0611979 -0.088542,0 -0.140625,0.0611979 -0.051432,0.0605469 -0.051432,0.16536459 0,0.10546875 0.051432,0.16601563 0.052083,0.06054687 0.140625,0.06054687 z" />
    <path d="m 9.5168041,-0.40006519 q -0.1015625,0 -0.1529948,0.10026042 -0.050781,0.0996094 -0.050781,0.30013021677 0,0.19986979323 0.050781,0.30013021323 0.051432,0.0996094 0.1529948,0.0996094 0.1022136,0 0.1529948,-0.0996094 0.051432,-0.10026042 0.051432,-0.30013021323 0,-0.20052083677 -0.051432,-0.30013021677 -0.050781,-0.10026042 -0.1529948,-0.10026042 z m 0,-0.10416667 q 0.1634115,0 0.249349,0.1295573 0.086588,0.12890625 0.086588,0.37500000677 0,0.24544271323 -0.086588,0.37500001323 -0.085937,0.12890625 -0.249349,0.12890625 -0.1634115,0 -0.25,-0.12890625 -0.085937,-0.1295573 -0.085937,-0.37500001323 0,-0.24609375677 0.085937,-0.37500000677 0.086588,-0.1295573 0.25,-0.1295573 z" />
    <path d="m 10.275268,-0.42024748 q -0.05208,0 -0.08789,0.0364583 -0.03581,0.0358073 -0.03581,0.0878906 0,0.0514323 0.03581,0.0872396 0.03581,0.0351563 0.08789,0.0351563 0.05208,0 0.08789,-0.0351563 0.03581,-0.0358073 0.03581,-0.0872396 0,-0.0514323 -0.03646,-0.0878906 -0.03581,-0.0364583 -0.08724,-0.0364583 z m 0,-0.0839844 q 0.04167,0 0.08008,0.016276 0.03841,0.015625 0.06641,0.0455729 0.02995,0.0292969 0.04492,0.0664063 0.01497,0.0371094 0.01497,0.0800781 0,0.0859375 -0.06055,0.14583334 -0.0599,0.05924479 -0.147135,0.05924479 -0.08789,0 -0.146485,-0.05859375 -0.05859,-0.0585938 -0.05859,-0.14648438 0,-0.0872396 0.0599,-0.14778646 0.0599,-0.0605469 0.146485,-0.0605469 z" />
  </g>
  <path id="radius" d="m -1.3805336,-4.3429686 q 0.094401,0.020182 0.1471355,0.083984 0.053385,0.063802 0.053385,0.1575521 0,0.1438802 -0.098958,0.2226563 -0.098958,0.078776 -0.28125,0.078776 -0.061198,0 -0.1263021,-0.01237 -0.064453,-0.011719 -0.1334635,-0.035807 v -0.1269531 q 0.054687,0.031901 0.1197917,0.048177 0.065104,0.016276 0.1360677,0.016276 0.1236979,0 0.188151,-0.048828 0.065104,-0.048828 0.065104,-0.1419271 0,-0.085937 -0.060547,-0.1341146 -0.059896,-0.048828 -0.1673177,-0.048828 h -0.1132812 v -0.1080729 h 0.1184895 q 0.097005,0 0.1484375,-0.038411 0.051432,-0.039063 0.051432,-0.1119791 0,-0.07487 -0.053385,-0.1145834 -0.052734,-0.040365 -0.1516927,-0.040365 -0.054036,0 -0.1158854,0.011719 -0.061849,0.011719 -0.1360677,0.036458 v -0.1171875 q 0.07487,-0.020833 0.1399739,-0.03125 0.065755,-0.010417 0.123698,-0.010417 0.1497395,0 0.2369791,0.068359 0.08724,0.067708 0.08724,0.1835938 0,0.080729 -0.046224,0.1367187 -0.046224,0.055339 -0.1315106,0.076824 z"/>
</g>
</svg>
