<svg xmlns="http://www.w3.org/2000/svg" width="1080" height="1080" viewBox="-4000 -3500 13000 13000" fill="none" font-family="Calibri,Arial,'Liberation Sans',sans-serif">
  <title>Emblems of the International Red Cross and Red Crescent Movement — construction sheet</title>
<defs>
    <marker id="left-arrow" viewBox="-4 -4 10 8" orient="auto" markerWidth="10" markerHeight="8">
        <path fill="blue" d="m2 0 4 4-10-4L6-4z"/>
    </marker>
</defs>
<path fill="#fafafa" d="m-4000 -3500h13000v13000H-4000z"/>
<path fill="#fff" d="m0 0h5000v5000H0z"/>
<g opacity=".5">
  <path fill="#fff" d="m0 0h5000v5000H0z"/>
  <path fill="#ffffff" d="m0 0.0h5000v2500.0H0z"/>
  <path fill="#ffffff" d="m0 2500.0h5000v2500.0H0z"/>
</g>
<g stroke="#000" stroke-width="140" stroke-linejoin="round" stroke-linecap="round">
  <path stroke="#444" stroke-width="250" d="m0 0h5000v5000H0z"/>
  <path d="m0 2500.0h5000"/>
  <path stroke="#222" stroke-width="75" stroke-dasharray="200,200" d="m2500.0 -2500.0v10000"/>
</g>
<g stroke="#00f" stroke-width="75" marker-start="url(#left-arrow)">
  <path d="m7000 1750.0V2000.0"/>
  <path d="m7000 750.0v-250.0"/>
  <path d="m7000 4250.0V4500.0"/>
  <path d="m7000 3250.0v-250.0"/>
  <path d="m750 7000h1000.0"/>
  <path d="m4250 7000H3250.0"/>
  <path d="m-2000 4250V3250.0"/>
  <path d="m-2000 750v1000.0"/>
</g>
<g fill="#000" text-anchor="middle" font-size="50" transform="scale(50)">
  <text x="150" y="30">1</text>
  <text x="150" y="80">1</text>
  <text x="50" y="165">1</text>
  <g transform="rotate(270)"><text y="-70">1</text></g>
  <g font-size="27">
    <text x="-2" y="172">[<tspan font-weight="bold" fill="#080">RED</tspan>]</text>
    <text x="102" y="172">[<tspan font-weight="bold" fill="#080">1:1</tspan>]</text>
  </g>
</g>
</svg>