<svg height="600" width="900" xmlns="http://www.w3.org/2000/svg"><g stroke-width="1.2"><path d="m0 0h900v600h-900z" fill="#ce1126"/><path d="m0 200h900v400h-900z" fill="#fff"/><path d="m0 400h900v200h-900z"/></g><g fill="#007a3d"><path d="m571.11398 230.35355c-.92031 5.88365-1.20242 11.83541-2.125 17.71875.14635 2.73581-1.13511 5.23655-1.75 7.84375-.4582 1.68582-.98179 3.68338-.0937 5.3125.5492 1.07262 1.8235.61784 1.90625-.5 2.04847-3.85165 3.04476-8.11874 3.84374-12.375.55471-2.31219 1.18366-4.61388 1.81251-6.90625.77924-2.64667 1.82254-5.38549 1.40625-8.1875-.32616-1.49927-1.70507-2.60934-3.21876-2.71875-.58467-.11352-1.18302-.21303-1.78124-.1875zm3.46875 38.125c-.11592.0229-.23487.0754-.34375.125-1.23963 1.27876-1.31177 4.06266-4.44821 5.98377-1.17168-.18535-1.91293-1.61135-2.41619-3.11425-.25163-.75146-.0196-2.15854-.17618-2.80298-.59319-.99883-1.2855-.59678-1.85295-.41738-1.1348 1.68235-1.54008 3.94721-1.63953 5.8193-.0875 1.44429.0325 2.92724.31431 4.09404.57811 1.65564 2.68714 2.25627 4.21875 1.625 1.9425-.69635 3.26253-2.68121 5.375-2.96874 1.32389-.15276 2.22373 1.07436 2.6875 2.15624.45361 1.29745 1.67694 2.35828 3.09375 2.3125 1.14045-.12017 2.18751-.7533 3.0625-1.46874 1.45935-1.27625 2.48399-3.12424 2.65625-5.0625-.0688-1.22904-1.32299-2.10428-2.5-1.90626-1.64977.094-1.82209 2.17525-3.51256 1.92586-1.1878-.33123-2.81404-2.41864-2.76868-3.51961-.0108-.87153.22818-2.05394-.68751-2.5625-.20555-.11784-.45041-.20209-.6875-.21875-.11856-.008-.25909-.0229-.375 0zm42.21875 1.75c-4.95036.0242-5.92571 3.62827-2 6.9375-3.26851 3.29338-12.06838-2.93922-13.53124 2.71875 5.10553 3.72609 12.27451.19953 17.96874.12501 3.67293-1.89228-5.26523-7.17129 1.09375-6.65626 2.56889-.55559 12.39938 2.86384 9.96875-2.375-3.93507-1.34429-8.37695-.27783-12.46875-.71874-.36521-.0313-.70122-.0329-1.03125-.0312zm-52.65717 17.4516c-3.50196 1.20926-3.94496 2.87007-3.78769 7.03309-.18475 3.00355.0616 2.8871.15197 4.05728-.78796 6.00789-1.57093 12.64036-2.90844 17.75213-1.33751 5.11176-3.22954 6.93503-9.7711 8.2742-4.54092-3.18057-4.04418-16.99257-3.98835-21.07809.28303-3.34355-1.8764-8.781-6.44547-8.1777-4.42831.71012-7.59372 4.30428-11.49999 6.21875-4.13412 2.46583-2.93579.99042-6.90626 3.68749-3.89655 4.24986-1.59046 11.14544 2.53125 14.375 3.59393 1.64509 3.87243 2.49991 8.35688.94218 4.72851-1.6425 7.31424-8.55043-.6747-5.89349-3.88711.40446-5.6634-3.19434-3.44985-5.52735 1.24581-1.16511 3.06895-2.49078 4.66519-3.27217 2.08511-.84768 5.10276-.80697 6.14796.21717.89568.90305.63881 6.06958.79848 7.47117-.14753 5.36746.99666 9.06114 1.52756 14.07597 2.4817 5.58923 9.58223 4.63399 13.79013 2.37585 1.66544-.91468 5.59018-4.25231 6.9277-4.94814 3.50657 5.83569 12.56142 7.22102 15.36981 6.08638 3.51803-.42558 6.66223-2.41143 8.56249-5.40625 2.55438-3.32562 5.34227-9.09867 5.35355-13.46507.43021-5.16216-.00015-11.23839 1.84375-15.1875.21856-3.37461 4.24454-9.51051-.625-9.59374-3.96024.85272-5.94487 4.97826-7.5 8.34374-.54436 5.09232-.15246 14.38068-.82287 20.33164-.38142 2.62428-.8368 3.23187-2.16845 5.07042-4.66879 4.62055-10.56588 4.83632-12.80251-.65295-.70068-1.76743-1.6873-2.41574-1.79271-5.06274-.10536-2.64699.14007-5.52493.84296-8.21606 2.11983-5.01802 3.01779-8.69615 3.76449-13.90276.77062-2.64167-1.4921-5.53733-5.49057-5.92845zm48.25092-1.79535c-.27384.0108-.53387.038-.81249.0625-3.22574.30174-.27732 9.22686-1.06251 13.59376-.57516 9.09626-5.91787 28.60183-8.31249 35.18749-2.60454 3.73063.81187 9.09424 4.03124 4.09375 2.84052-5.70493 7.04382-25.61984 8.9375-31.6875 1.30605-6.0507 2.85204-12.51109 1.34375-18.62499-.48547-2.31002-2.20773-2.69838-4.125-2.625z" fill-rule="evenodd" stroke-width="2.681554"/><path d="m372.593 244.00981c-10.33024 7.92554-20.11628 16.52422-30.49999 24.375-3.81909 3.59443-8.23926 6.51235-12.03126 10.125-2.25913 4.26387 1.0653 9.42625 4.59376 3.78124 11.83945-10.01343 24.73106-21.20661 36.65624-31.125 3.73806-1.63216 8.1024-6.64738 1.28125-7.15624zm-3.84374 26.21874c-4.95036.0242-5.92571 3.62827-2 6.9375-3.26852 3.29338-12.06838-2.93922-13.53125 2.71875 5.10554 3.72609 12.27452.19953 17.96875.12501 3.67292-1.89228-5.26524-7.17129 1.09375-6.65626 2.56888-.55559 12.39937 2.86384 9.96875-2.375-3.93508-1.34429-8.37695-.27783-12.46876-.71874-.3652-.0313-.70122-.033-1.03124-.0312zm-4.40626 15.65625c-.27384.0108-.53386.038-.81249.0625-3.22573.30174-.27731 9.22686-1.06251 13.59376-.57516 9.09626-5.91786 28.60182-8.31249 35.18749-2.60454 3.73063.81187 9.09424 4.03124 4.09375 2.84053-5.70493 7.04382-25.61984 8.93751-31.6875 1.30604-6.0507 2.85204-12.51109 1.34374-18.62499-.48547-2.31002-2.20773-2.69838-4.125-2.625zm-35.53124 2.84375c-3.48449.1774-3.59389 4.53616-5.09375 6.875-.96114 2.10165-1.84795 4.24725-2.77373 6.37275-.65337 3.65132-3.59454 12.66751-6.56889 12.7121-1.17774-.058-2.40793-2.07133-3.87613-5.27235-1.90386-3.73287-2.14722-8.64137-5.875-11.21874-4.85316-1.22474-10.21604-1.04249-15.62501 2.68749-2.16983 6.0585-3.03986 13.53079-7.5 16.34375-6.4748 1.12337-8.39622-6.70172-11.59374-7.65625-3.41611-1.86307-4.78337 2.74578-4.25 5.31251.43023 4.75128 4.30095 8.86474 8.65625 9.84374 7.12731 1.94677 9.72298 1.2537 14.0769-4.5821 2.16176-2.9504 4.70434-7.62515 4.66514-9.52942.69875-1.97479 3.0482-2.9924 5.3796-3.02581 5.13112-1.24317 6.10844 3.16481 7.53805 6.48834.59293 1.38618 1.13515 2.81744 1.96255 3.87938 1.50886 2.11906 1.73309 5.21896 4.40901 5.76961 2.94812-.24145 4.29684-1.64372 6.60539-3.23131 2.04904-1.71915 4.4821-5.16432 5.01961-7.83119 2.29724-5.54293 5.6322-10.67481 7.125-16.53124.73902-2.22423-.28617-4.48391-.5625-6.53126-.24117-.66988-1.0821-.86359-1.71875-.875zm-18.21875 39.5625c-5.14397-.19076-8.11043 7.73381-2.12501 8.03125 4.51355.68868 7.37424-7.8482 2.12501-8.03125z" fill-rule="evenodd" stroke-width="2.681554"/><path d="m-.58778525.80901699.58778525-1.80901699.58778525 1.80901699-1.53884177-1.11803398h1.90211304z" transform="matrix(60 0 0 60 200 299.99999)"/><path d="m-.95105652-.30901699h1.90211304l-1.53884177 1.11803398.58778525-1.80901699.58778525 1.80901699z" transform="matrix(60 0 0 60 450 299.99999)"/><path d="m.58778525.80901699-1.53884177-1.11803398h1.90211304l-1.53884177 1.11803398.58778525-1.80901699z" transform="matrix(60 0 0 60 700 299.99999)"/></g></svg>