<svg xmlns="http://www.w3.org/2000/svg" width="1280" height="740">
<rect width="1280" height="740" fill="#1C3160"/>
<circle cx="640" cy="2170" r="1800" fill="#D0202A" />
<g transform="translate(640,370) scale(22)" 
        fill="none" stroke="white" stroke-width=".75">
    <path d="M-5.76 53.03 
        l-5.36-.66 3.25 4.3-4.97 2.12 4.97 2.1-3.25 4.3 5.36-.66-.66 5.37 4.3-3.25
        L0 71.63l2.1-4.98 4.32 3.26-.66-5.36 5.36.67-3.25-4.3 4.97-2.1-4.97-2.12 3.25-4.3-5.36.65.66-5.36-4.3 3.25
        L0 45.95l-2.1 4.97-4.32-3.25.66 5.36z"
        stroke-linejoin="miter-clip"
        transform="translate(0,-58.8)" />
    <g transform="rotate(180)">
    <path d="M-5.76 53.03 
        l-5.36-.66 3.25 4.3-4.97 2.12 4.97 2.1-3.25 4.3 5.36-.66-.66 5.37 4.3-3.25
        L0 71.63l2.1-4.98 4.32 3.26-.66-5.36 5.36.67-3.25-4.3 4.97-2.1-4.97-2.12 3.25-4.3-5.36.65.66-5.36-4.3 3.25
        L0 45.95l-2.1 4.97-4.32-3.25.66 5.36z"
        stroke-linejoin="miter-clip"
        transform="translate(0,-58.8)" />
        </g>
</g>
<g transform="translate(640,370) scale(10)">
    <path d="M 12 .587 l 3.668 7.568 8.332 
            1.151-6.064 5.828 1.48 8.279-7.416-3.967-7.417 
            3.967 1.481-8.279-6.064-5.828 8.332-1.151z"
            fill="white"
            transform="translate(-12,-12)"/>
</g>
<rect width="640" height="370" fill-opacity="0"/>
</svg>