<svg xmlns="http://www.w3.org/2000/svg" width="512" height="512">
  <defs>
    <pattern id="grid" width="64" height="64" patternUnits="userSpaceOnUse">
      <path d="M 64 0 L 0 0 0 64" fill="none" stroke="#ccc" stroke-width="1"/>
    </pattern>
    <pattern id="smallGrid" width="64" height="64" patternUnits="userSpaceOnUse">
      <rect width="64" height="64" x="0" y="0" fill="none" 
        stroke="#8f00ff" stroke-width=".25" stroke-opacity="0.65"/>
      <path d="M 0 32 H 0 64 M 32 0 V 64 0" fill="none" 
        stroke="#8f00ff" stroke-width=".2" stroke-opacity="0.35"/>
      <circle cx="32" cy="32" r="1" fill="#8f00ff" stroke="none" fill-opacity=".35"/>
      <g  fill="#8f00ff" stroke="none" fill-opacity=".65">
        <circle cx="0" cy="0" r="1" />
        <circle cx="0" cy="64" r="1"/>
        <circle cx="64" cy="64" r="1"/>
        <circle cx="64" cy="0" r="1"/>
      </g>
    </pattern>
  </defs>
  <rect width="512" height="512" fill="white"/>
  <rect width="512" height="512" fill="url(#smallGrid)"/>
  <g transform="translate(32,64)"  fill="#70ff00">
    <rect width="8" height="384" x="88" y="0" fill-opacity=".65"/>
    <polygon points="192,0 384,0 400,-16"  fill-opacity=".85"/>
    <polygon points="192,128 320,192 352,176" fill-opacity=".65" />
  </g>
  <g stroke="none" fill="#8f00ff" transform="translate(32,64)">    
    <rect width="64" height="384" x="96" y="0"/>
    <polygon points="192,0 192,128 384,0"/>
    <polygon points="192,128 192,256 320,192" />
  </g>
</svg>