<svg xmlns="http://www.w3.org/2000/svg" height="600" width="900"><path fill="#d01027" d="M0 0H900V600H0z"/><path fill="#fff" d="M0 200H900V600H0z"/><path d="M0 400H900V600H0z"/><path d="m 406.15094,70.27929 c 8.1496,-0.0546 16.299,0.98168 24.4484,5.04496 1.8916,8.79292 0.559,15.65129 -2.7162,21.34406 -16.4894,-1.09817 -24.0298,-12.92622 -21.7322,-26.38902 z" fill="#f4cf50" stroke="#ce1021" stroke-width="4"/><path d="m 393.34454,77.65269 c -3.8488,-9.40769 5.9476,-21.73213 20.1798,-21.73213 8.9934,0 16.6872,7.8707 18.6274,11.25414 l 2e-4,12.03029 c -16.8104,-8.78676 -33.7858,-8.62987 -38.8074,-1.5523 z" fill="#f4cf50" stroke="#ce1021" stroke-width="4"/><path d="m 322.6875,111.8125 c -16.096,0 -27.6557,17.96739 -34.6875,43.5 -3.8464,13.96579 -10.394,31.50672 -20.375,40.3125 25.331,-6.78746 44.9165,-30.25 61.3125,-30.25 25.626,0 38.6893,55.875 121.0625,55.875 82.3732,0 95.4365,-55.875 121.0625,-55.875 16.396,0 35.9815,23.46254 61.3125,30.25 -9.981,-8.80578 -16.5286,-26.34671 -20.375,-40.3125 -7.0318,-25.53261 -18.5915,-43.5 -34.6875,-43.5 -31.75,0 -52.597,45.8125 -73,45.8125 -18.3352,0 -34.0169,-17.125 -54.3125,-17.125 -20.2956,0 -35.9773,17.125 -54.3125,17.125 -20.403,0 -41.25,-45.8125 -73,-45.8125 z m 6.25,60.5625 c -2.32714,0 -5.47982,1.1309 -9.25,3 -17.37278,72.12844 -40.16246,153.18426 -59.125,202.625 9.70016,-3.66306 29.91332,-14.32104 37.75,-38.6875 14.35056,-44.61986 32.10256,-106.80686 45.4375,-158.75 -0.40418,-0.35783 -0.85658,-0.788 -1.25,-1.125 -5.6732,-4.85949 -9.6998,-7.0625 -13.5625,-7.0625 z m 242.125,0 c -3.8627,0 -7.8893,2.20301 -13.5625,7.0625 -0.39342,0.337 -0.84582,0.76717 -1.25,1.125 13.33494,51.94314 31.08694,114.13014 45.4375,158.75 7.83668,24.36646 28.04984,35.02444 37.75,38.6875 -18.96254,-49.44074 -41.75222,-130.49656 -59.125,-202.625 -3.77018,-1.8691 -6.92286,-3 -9.25,-3 z M 309.75,181.0625 c -1.40856,0.89178 -2.7661,1.76476 -4.25,2.75 -7.4962,4.97713 -15.95984,10.69822 -25.625,14.875 -17.37686,72.25186 -40.11906,153.57114 -59.125,203.125 9.70016,-3.66306 29.85082,-14.38354 37.6875,-38.75 16.58356,-51.56286 37.7356,-126.45542 51.3125,-182 z m 280.5,0 c 13.5769,55.54458 34.72894,130.43714 51.3125,182 7.83668,24.36646 27.98734,35.08694 37.6875,38.75 -19.00594,-49.55386 -41.74814,-130.87314 -59.125,-203.125 -9.66516,-4.17678 -18.1288,-9.89787 -25.625,-14.875 -1.4839,-0.98524 -2.84144,-1.85822 -4.25,-2.75 z m -239.5625,5.875 c -15.8197,62.0552 -34.34384,125.84064 -50.25,167.3125 9.70016,-3.66306 29.85082,-14.38354 37.6875,-38.75 10.14976,-31.5584 21.99136,-71.88906 32.8125,-111.1875 -2.56434,-1.8645 -4.98774,-3.74014 -7.25,-5.625 -4.93578,-4.11235 -9.17026,-8.12934 -13,-11.75 z m 198.625,0 c -3.82974,3.62066 -8.06422,7.63765 -13,11.75 -2.26226,1.88486 -4.68566,3.7605 -7.25,5.625 10.82114,39.29844 22.66274,79.6291 32.8125,111.1875 7.83668,24.36646 27.98734,35.08694 37.6875,38.75 -15.90616,-41.47186 -34.4303,-105.2573 -50.25,-167.3125 z m -173.625,20.625 c -11.8976,46.39274 -25.3055,93.03606 -35.4375,122.875 6.2838,-8.0739 11.2635,-11 20.8125,-11 10.4588,0 15.3125,6.62496 15.3125,14.375 0,9.89068 -5.1758,19.3314 -19.25,25.5625 12.2734,2.7649 27.985,13.4945 35.875,24.0625 -3.15,-18.69046 7.0962,-31.8125 19.75,-31.8125 19.4848,0 21.8063,22.80244 13.1875,33 6.0786,6.4814 16.3281,8.9375 24.0625,8.9375 7.7344,0 17.9839,-2.4561 24.0625,-8.9375 -8.6188,-10.19756 -6.2973,-33 13.1875,-33 12.6538,0 22.9,13.12204 19.75,31.8125 7.89,-10.568 23.6016,-21.2976 35.875,-24.0625 -14.0742,-6.2311 -19.25,-15.67182 -19.25,-25.5625 0,-7.75004 4.8537,-14.375 15.3125,-14.375 9.549,0 14.5287,2.9261 20.8125,11 -10.132,-29.83894 -23.5399,-76.48226 -35.4375,-122.875 L 450,249.1875 Z" fill="#f4cf50"/><path d="m 397.22514,156.20398 c 15.839,-9.41543 29.9014,-30.51011 28.7176,-61.06736 4.6208,-6.25205 4.8428,-27.401 1.5522,-34.35038 2.4438,-7.26542 12.314,-10.68679 20.5678,-10.68679 16.3168,0 26.7342,12.38286 31.558,28.97216 8.8318,30.37294 5.3327,64.43917 23.9451,78.17535 -6.2804,4.7511 -19.10206,5.65709 -25.94754,-1.35412 -1.1642,4.58005 -0.44996,12.10892 2.65464,16.68897 -9.6362,-1.71843 -17.7644,-5.26767 -22.5082,-12.56113 -3.2802,6.74063 -9.6616,11.00263 -16.4932,12.3703 -0.6288,-7.66273 -6.1756,-13.40084 -11.4482,-16.95035 -9.752,3.54152 -23.4956,4.08417 -32.5982,0.76335 z" fill="#f4cf50" stroke="#ce1021" stroke-width="4"/><g transform="matrix(2,0,0,2,240.612,0)" stroke="#999"><circle transform="matrix(1.06195,0,0,1.06195,-937.975,-14.6239)" cx="1038.486" cy="211.131" r="15.523" fill="#fff" stroke-width=".971"/><g fill="none" stroke-width="2"><path d="m 167.17827,193.33119 c 0.1009,0.73761 0.1531,1.49077 0.1531,2.25611 0,9.10421 -7.3804,16.48462 -16.4847,16.48462 -0.7732,0 -1.534,-0.0532 -2.2789,-0.15624"/><path d="m 163.62997,193.21062 c 0.1424,0.77055 0.2168,1.56493 0.2168,2.37668 0,7.17971 -5.8202,13.00002 -13.0001,13.00002 -0.8013,0 -1.5856,-0.0725 -2.3468,-0.21127"/><path d="m 160.18717,193.84411 c 0.1048,0.5651 0.1596,1.14775 0.1596,1.7432 0,5.24671 -4.2533,9.50001 -9.5001,9.50001 -0.6003,0 -1.1876,-0.0557 -1.757,-0.16215"/><path d="m 156.83787,195.25811 c 0.01,0.10898 0.01,0.21874 0.01,0.3292 0,3.31371 -2.6863,5.99999 -6.0001,5.99999 -0.1,0 -0.1991,-0.002 -0.2977,-0.007"/></g><g fill="none" stroke-width="2"><path d="m 167.17827,193.33119 c 0.1009,0.73761 0.1531,1.49077 0.1531,2.25611 0,9.10421 -7.3804,16.48462 -16.4847,16.48462 -0.7732,0 -1.534,-0.0532 -2.2789,-0.15624" transform="rotate(180,164.847,209.5875)"/><path d="m 163.62997,193.21062 c 0.1424,0.77055 0.2168,1.56493 0.2168,2.37668 0,7.17971 -5.8202,13.00002 -13.0001,13.00002 -0.8013,0 -1.5856,-0.0725 -2.3468,-0.21127" transform="rotate(180,164.847,209.5875)"/><path d="m 160.18717,193.84411 c 0.1048,0.5651 0.1596,1.14775 0.1596,1.7432 0,5.24671 -4.2533,9.50001 -9.5001,9.50001 -0.6003,0 -1.1876,-0.0557 -1.757,-0.16215" transform="rotate(180,164.847,209.5875)"/><path d="m 156.83787,195.25811 c 0.01,0.10898 0.01,0.21874 0.01,0.3292 0,3.31371 -2.6863,5.99999 -6.0001,5.99999 -0.1,0 -0.1991,-0.002 -0.2977,-0.007" transform="rotate(180,164.847,209.5875)"/></g><g fill="none" stroke-width="2"><path d="m 167.17827,193.33119 c 0.1009,0.73761 0.1531,1.49077 0.1531,2.25611 0,9.10421 -7.3804,16.48462 -16.4847,16.48462 -0.7732,0 -1.534,-0.0532 -2.2789,-0.15624" transform="rotate(-90,164.84675,209.58725)"/><path d="m 163.62997,193.21062 c 0.1424,0.77055 0.2168,1.56493 0.2168,2.37668 0,7.17971 -5.8202,13.00002 -13.0001,13.00002 -0.8013,0 -1.5856,-0.0725 -2.3468,-0.21127" transform="rotate(-90,164.84675,209.58725)"/><path d="m 160.18717,193.84411 c 0.1048,0.5651 0.1596,1.14775 0.1596,1.7432 0,5.24671 -4.2533,9.50001 -9.5001,9.50001 -0.6003,0 -1.1876,-0.0557 -1.757,-0.16215" transform="rotate(-90,164.84675,209.58725)"/><path d="m 156.83787,195.25811 c 0.01,0.10898 0.01,0.21874 0.01,0.3292 0,3.31371 -2.6863,5.99999 -6.0001,5.99999 -0.1,0 -0.1991,-0.002 -0.2977,-0.007" transform="rotate(-90,164.84675,209.58725)"/></g><g fill="none" stroke-width="2"><path d="m 167.17827,193.33119 c 0.1009,0.73761 0.1531,1.49077 0.1531,2.25611 0,9.10421 -7.3804,16.48462 -16.4847,16.48462 -0.7732,0 -1.534,-0.0532 -2.2789,-0.15624" transform="rotate(90,164.84675,209.58725)"/><path d="m 163.62997,193.21062 c 0.1424,0.77055 0.2168,1.56493 0.2168,2.37668 0,7.17971 -5.8202,13.00002 -13.0001,13.00002 -0.8013,0 -1.5856,-0.0725 -2.3468,-0.21127" transform="rotate(90,164.84675,209.58725)"/><path d="m 160.18717,193.84411 c 0.1048,0.5651 0.1596,1.14775 0.1596,1.7432 0,5.24671 -4.2533,9.50001 -9.5001,9.50001 -0.6003,0 -1.1876,-0.0557 -1.757,-0.16215" transform="rotate(90,164.84675,209.58725)"/><path d="m 156.83787,195.25811 c 0.01,0.10898 0.01,0.21874 0.01,0.3292 0,3.31371 -2.6863,5.99999 -6.0001,5.99999 -0.1,0 -0.1991,-0.002 -0.2977,-0.007" transform="rotate(90,164.84675,209.58725)"/></g></g><circle cx="449.235" cy="72.608" r="8.732" fill="#fff"/><circle cx="449.227" cy="72.608" r="3.396"/><path d="m 440.88768,67.3378 c 0,0 2.70042,-4.72297 6.99146,-4.72297 5.304,0 7.3834,4.26881 11.438,6.40322" fill="none" stroke="#ce1021" stroke-width="3" stroke-linecap="round" stroke-linejoin="round"/><path d="m 361.5625,368.25 c -2.7858,2.38194 -5.9582,5.03182 -9,7.375 -5.6152,4.32452 -8.9844,4.36864 -15.125,3.0625 -2.5054,-0.53292 -5.0952,-0.75002 -7.75,-0.75 v 4.375 c 10.2348,1.8e-4 19.4528,4.146 26.125,10.875 6.7282,6.67152 10.9375,16.01592 10.9375,26.25 l 4.375,-0.0624 c 2e-4,-2.6542 -0.217,-5.24448 -0.75,-7.75 -1.306,-6.13982 -1.2617,-9.5103 3.0625,-15.125 3.882,-5.03932 7.9246,-9.63346 10.625,-12.6875 -5.913,-6.09278 -14.862,-12.24998 -22.5,-15.5625 z" fill="#f4cf50"/><path d="m 538.4375,368.25 c -7.638,3.31252 -16.587,9.46972 -22.5,15.5625 2.7004,3.05404 6.743,7.64818 10.625,12.6875 4.3242,5.6147 4.3685,8.98518 3.0625,15.125 -0.533,2.50552 -0.7502,5.0958 -0.75,7.75 l 4.375,0.0624 c 0,-10.23408 4.2093,-19.57848 10.9375,-26.25 6.6722,-6.729 15.8902,-10.87482 26.125,-10.875 v -4.375 c -2.6548,-2e-5 -5.2446,0.21708 -7.75,0.75 -6.1406,1.30614 -9.5098,1.26202 -15.125,-3.0625 -3.0418,-2.34318 -6.2142,-4.99306 -9,-7.375 z" fill="#f4cf50"/><path d="m 428.1875,395.25 -4.75,12.375 c 8.9818,4.80466 18.3873,5.9375 26.5625,5.9375 8.1752,0 17.5807,-1.13284 26.5625,-5.9375 l -4.75,-12.375 c -7.0394,4.0344 -15.1181,5.3125 -21.8125,5.3125 -6.6944,0 -14.7731,-1.2781 -21.8125,-5.3125 z" fill="#f4cf50"/><path d="m 424.75,415.6875 c -9.92,32.1779 -33.059,57.89902 -53.125,71.75 16.651,-3.07852 42.5841,-13.69948 61.6875,-36.0625 -0.4366,30.91408 4.5212,62.92498 15.5,78.375 10.9782,-15.45002 15.9991,-47.46092 15.5625,-78.375 19.1028,22.36302 45.0361,32.98398 61.6875,36.0625 -20.0666,-13.85098 -43.2675,-39.5721 -53.1875,-71.75 -6.856,2.8567 -16.0341,3.875 -24.0625,3.875 -8.029,0 -17.2065,-1.0183 -24.0625,-3.875 z" fill="#f4cf50"/><path d="m 426.75,467.75 c -8.0634,6.98816 -16.6147,12.46654 -24.9375,16.625 -3.8462,10.6884 -5.3973,21.45076 -3.8125,30.4375 13.7212,-3.54248 23.7609,-11.81164 31.1875,-21 -1.2944,-8.315 -2.0711,-17.11904 -2.4375,-26.0625 z" fill="#f4cf50"/><path d="m 470.9375,467.75 c -0.366,8.94346 -1.1429,17.7475 -2.4375,26.0625 7.427,9.18836 17.4665,17.45752 31.1875,21 1.585,-8.98674 0.034,-19.7491 -3.8125,-30.4375 -8.3232,-4.15846 -16.8737,-9.63684 -24.9375,-16.625 z" fill="#f4cf50"/><g transform="scale(2)" stroke="#999"><circle transform="matrix(1.06195,0,0,1.06195,-937.975,-14.6239)" cx="1038.486" cy="211.131" r="15.523" fill="#fff" stroke-width=".971"/><g fill="none" stroke-width="2"><path d="m 167.17827,193.33119 c 0.1009,0.73761 0.1531,1.49077 0.1531,2.25611 0,9.10421 -7.3804,16.48462 -16.4847,16.48462 -0.7732,0 -1.534,-0.0532 -2.2789,-0.15624"/><path d="m 163.62997,193.21062 c 0.1424,0.77055 0.2168,1.56493 0.2168,2.37668 0,7.17971 -5.8202,13.00002 -13.0001,13.00002 -0.8013,0 -1.5856,-0.0725 -2.3468,-0.21127"/><path d="m 160.18717,193.84411 c 0.1048,0.5651 0.1596,1.14775 0.1596,1.7432 0,5.24671 -4.2533,9.50001 -9.5001,9.50001 -0.6003,0 -1.1876,-0.0557 -1.757,-0.16215"/><path d="m 156.83787,195.25811 c 0.01,0.10898 0.01,0.21874 0.01,0.3292 0,3.31371 -2.6863,5.99999 -6.0001,5.99999 -0.1,0 -0.1991,-0.002 -0.2977,-0.007"/></g><g fill="none" stroke-width="2"><path d="m 167.17827,193.33119 c 0.1009,0.73761 0.1531,1.49077 0.1531,2.25611 0,9.10421 -7.3804,16.48462 -16.4847,16.48462 -0.7732,0 -1.534,-0.0532 -2.2789,-0.15624" transform="rotate(180,164.847,209.5875)"/><path d="m 163.62997,193.21062 c 0.1424,0.77055 0.2168,1.56493 0.2168,2.37668 0,7.17971 -5.8202,13.00002 -13.0001,13.00002 -0.8013,0 -1.5856,-0.0725 -2.3468,-0.21127" transform="rotate(180,164.847,209.5875)"/><path d="m 160.18717,193.84411 c 0.1048,0.5651 0.1596,1.14775 0.1596,1.7432 0,5.24671 -4.2533,9.50001 -9.5001,9.50001 -0.6003,0 -1.1876,-0.0557 -1.757,-0.16215" transform="rotate(180,164.847,209.5875)"/><path d="m 156.83787,195.25811 c 0.01,0.10898 0.01,0.21874 0.01,0.3292 0,3.31371 -2.6863,5.99999 -6.0001,5.99999 -0.1,0 -0.1991,-0.002 -0.2977,-0.007" transform="rotate(180,164.847,209.5875)"/></g><g fill="none" stroke-width="2"><path d="m 167.17827,193.33119 c 0.1009,0.73761 0.1531,1.49077 0.1531,2.25611 0,9.10421 -7.3804,16.48462 -16.4847,16.48462 -0.7732,0 -1.534,-0.0532 -2.2789,-0.15624" transform="rotate(-90,164.84675,209.58725)"/><path d="m 163.62997,193.21062 c 0.1424,0.77055 0.2168,1.56493 0.2168,2.37668 0,7.17971 -5.8202,13.00002 -13.0001,13.00002 -0.8013,0 -1.5856,-0.0725 -2.3468,-0.21127" transform="rotate(-90,164.84675,209.58725)"/><path d="m 160.18717,193.84411 c 0.1048,0.5651 0.1596,1.14775 0.1596,1.7432 0,5.24671 -4.2533,9.50001 -9.5001,9.50001 -0.6003,0 -1.1876,-0.0557 -1.757,-0.16215" transform="rotate(-90,164.84675,209.58725)"/><path d="m 156.83787,195.25811 c 0.01,0.10898 0.01,0.21874 0.01,0.3292 0,3.31371 -2.6863,5.99999 -6.0001,5.99999 -0.1,0 -0.1991,-0.002 -0.2977,-0.007" transform="rotate(-90,164.84675,209.58725)"/></g><g fill="none" stroke-width="2"><path d="m 167.17827,193.33119 c 0.1009,0.73761 0.1531,1.49077 0.1531,2.25611 0,9.10421 -7.3804,16.48462 -16.4847,16.48462 -0.7732,0 -1.534,-0.0532 -2.2789,-0.15624" transform="rotate(90,164.84675,209.58725)"/><path d="m 163.62997,193.21062 c 0.1424,0.77055 0.2168,1.56493 0.2168,2.37668 0,7.17971 -5.8202,13.00002 -13.0001,13.00002 -0.8013,0 -1.5856,-0.0725 -2.3468,-0.21127" transform="rotate(90,164.84675,209.58725)"/><path d="m 160.18717,193.84411 c 0.1048,0.5651 0.1596,1.14775 0.1596,1.7432 0,5.24671 -4.2533,9.50001 -9.5001,9.50001 -0.6003,0 -1.1876,-0.0557 -1.757,-0.16215" transform="rotate(90,164.84675,209.58725)"/><path d="m 156.83787,195.25811 c 0.01,0.10898 0.01,0.21874 0.01,0.3292 0,3.31371 -2.6863,5.99999 -6.0001,5.99999 -0.1,0 -0.1991,-0.002 -0.2977,-0.007" transform="rotate(90,164.84675,209.58725)"/></g></g><g transform="matrix(0,-0.672788,0.672788,0,622.568,1420.634)" fill-rule="evenodd"><circle transform="translate(1730.81,-256.498)" r="100" fill="#00672b"/><g fill="#fff"><path d="m 448,168 c -92.78384,0 -168,75.21616 -168,168 0,92.78384 75.21616,168 168,168 50.96522,0 96.62746,-22.69707 127.4375,-58.53125 C 550.87412,465.78534 519.36665,478 485,478 406.57557,478 343,414.42443 343,336 c 0,-78.42443 63.57557,-142 142,-142 34.36665,0 65.87412,12.21466 90.4375,32.53125 C 544.62746,190.69707 498.96522,168 448,168 Z" transform="matrix(0.47619,0,0,0.47619,1517.48,-416.498)"/><path transform="matrix(0.47619,0,0,0.47619,1517.48,-416.498) matrix(0,0.907533,0.907533,0,297.26,550.257)" d="m -236.08755,351.21544 -10.39128,-31.97694 -33.62297,-0.001 27.2008,-19.76411 -10.38886,-31.97774 27.2023,19.76206 27.2023,-19.76206 -10.38885,31.97774 27.2008,19.76411 -33.62297,0.001 z"/><path d="m -236.08755,351.21544 -10.39128,-31.97694 -33.62297,-0.001 27.2008,-19.76411 -10.38886,-31.97774 27.2023,19.76206 27.2023,-19.76206 -10.38885,31.97774 27.2008,19.76411 -33.62297,0.001 z" transform="matrix(0.47619,0,0,0.47619,1517.48,-416.498) matrix(0.907533,0,0,-0.907533,662.257,540.74)"/><path transform="matrix(0.47619,0,0,0.47619,1517.48,-416.498) matrix(0.907533,0,0,0.907533,662.257,131.26)" d="m -236.08755,351.21544 -10.39128,-31.97694 -33.62297,-0.001 27.2008,-19.76411 -10.38886,-31.97774 27.2023,19.76206 27.2023,-19.76206 -10.38885,31.97774 27.2008,19.76411 -33.62297,0.001 z"/></g></g></svg>