<?xml version="1.0" encoding="UTF-8" standalone="no"?>
<svg
   xmlns:dc="http://purl.org/dc/elements/1.1/"
   xmlns:cc="http://creativecommons.org/ns#"
   xmlns:rdf="http://www.w3.org/1999/02/22-rdf-syntax-ns#"
   xmlns:svg="http://www.w3.org/2000/svg"
   xmlns="http://www.w3.org/2000/svg"
   width="900"
   height="600"
   fill-rule="evenodd"
   version="1.1"
   id="svg930">
  <metadata
     id="metadata936">
    <rdf:RDF>
      <cc:Work
         rdf:about="">
        <dc:format>image/svg+xml</dc:format>
        <dc:type
           rdf:resource="http://purl.org/dc/dcmitype/StillImage" />
        <dc:title></dc:title>
      </cc:Work>
    </rdf:RDF>
  </metadata>
  <defs
     id="defs934" />
  <path
     d="M 0.987,599.013 H 899.013 V 0.987 H 0.987 Z"
     id="path868"
     style="fill:#ffc90f;stroke:#ffcc00;stroke-width:1.97399998;stroke-linecap:round" />
  <g
     id="g7233">
    <path
       style="fill:#d1a51f;fill-opacity:1;stroke:#9b7300;stroke-width:3;stroke-linecap:round;stroke-linejoin:round;stroke-miterlimit:4;stroke-dasharray:none;stroke-opacity:1"
       d="m 404.33054,243.4205 c 0,0 -51.21452,6.52634 -60.73651,-10.37796 -9.52198,-16.90434 -64.71059,-24.2893 -52.44418,78.25192 12.26646,102.54125 17.53119,114.38751 17.53119,114.38751 0,0 4.44004,-48.92261 11.55283,-63.22516 0,0 5.27364,18.2234 19.1102,28.40675 0,0 -3.12778,-51.61779 6.30261,-62.65069 0,0 11.12618,25.45061 14.00859,25.22137 0,0 -2.16322,-40.54787 8.80134,-48.77894 0,0 30.36733,17.69936 46.18468,-9.06992 15.8173,-26.76929 -10.31075,-52.16488 -10.31075,-52.16488 z"
       id="path3052-6-6-6" />
    <path
       id="path3052-6-6"
       d="m 495.66981,243.42049 c 0,0 51.21452,6.52634 60.73651,-10.37796 9.52198,-16.90434 64.71059,-24.2893 52.44418,78.25192 -12.26646,102.54125 -17.53119,114.38751 -17.53119,114.38751 0,0 -4.44004,-48.92261 -11.55283,-63.22516 0,0 -5.27364,18.2234 -19.1102,28.40675 0,0 3.12778,-51.61779 -6.30261,-62.65069 0,0 -11.12618,25.45061 -14.00859,25.22137 0,0 2.16322,-40.54787 -8.80134,-48.77894 0,0 -30.36733,17.69936 -46.18468,-9.06992 -15.8173,-26.76929 10.31075,-52.16488 10.31075,-52.16488 z"
       style="fill:#d1a51f;fill-opacity:1;stroke:#9b7300;stroke-width:3;stroke-linecap:round;stroke-linejoin:round;stroke-miterlimit:4;stroke-dasharray:none;stroke-opacity:1" />
    <path
       id="path3309-9"
       d="m 429.05838,324.70457 c -26.72222,-9.41007 -43.62814,38.19383 -46.90025,53.69277 -3.27211,15.49895 -17.45128,14.94543 -17.45128,14.94543 -56.71658,9.9636 -38.17461,62.54931 -38.17461,62.54931 13.85426,-48.11553 34.30954,-45.94331 41.44672,-45.94331 17.5923,0 26.00262,9.08625 29.44902,22.14135 0,0 20.72335,-27.12313 -5.45353,-37.6403 0,0 35.44786,-25.46255 33.81182,-44.83622 -1.63607,-19.37368 3.27211,-24.90903 3.27211,-24.90903 z"
       style="fill:#d1a51f;fill-opacity:1;stroke:#9b7300;stroke-width:3;stroke-linecap:round;stroke-linejoin:round;stroke-miterlimit:4;stroke-dasharray:none;stroke-opacity:1" />
    <path
       id="path3309"
       d="m 470.94198,324.70457 c 26.72221,-9.41007 43.62814,38.19383 46.90025,53.69277 3.27211,15.49895 17.45127,14.94543 17.45127,14.94543 56.71658,9.9636 38.17462,62.54931 38.17462,62.54931 -13.85427,-48.11553 -34.30954,-45.94331 -41.44673,-45.94331 -17.5923,0 -26.00262,9.08625 -29.44902,22.14135 0,0 -20.72334,-27.12313 5.45353,-37.6403 0,0 -35.44785,-25.46255 -33.81182,-44.83622 1.63608,-19.37368 -3.2721,-24.90903 -3.2721,-24.90903 z"
       style="fill:#d1a51f;fill-opacity:1;stroke:#9b7300;stroke-width:3;stroke-linecap:round;stroke-linejoin:round;stroke-miterlimit:4;stroke-dasharray:none;stroke-opacity:1" />
    <path
       id="path3054-4"
       d="m 340.73309,195.98441 c 0,0 -31.23894,-15.49742 -34.94927,4.82724 l -3.91473,-19.88848 22.61644,-1.30803 z"
       style="fill:#d1a51f;fill-opacity:1;stroke:#9b7300;stroke-width:3;stroke-linecap:round;stroke-linejoin:round;stroke-miterlimit:4;stroke-dasharray:none;stroke-opacity:1" />
    <path
       id="path2983-8"
       d="m 326.605,161.04961 c 0,0 -53.49596,1.137 -20.82118,39.76204 0,0 0.52077,-37.20988 40.83647,3.50802 l 7.55102,-0.082 7.85001,-22.10229 z"
       style="fill:#d1a51f;fill-opacity:1;stroke:#9b7300;stroke-width:3;stroke-linecap:round;stroke-linejoin:round;stroke-miterlimit:4;stroke-dasharray:none;stroke-opacity:1" />
    <path
       id="path3054-4-5"
       d="m 559.26727,195.98441 c 0,0 31.23893,-15.49742 34.94926,4.82724 l 3.91473,-19.88848 -22.61643,-1.30803 z"
       style="fill:#d1a51f;fill-opacity:1;stroke:#9b7300;stroke-width:3;stroke-linecap:round;stroke-linejoin:round;stroke-miterlimit:4;stroke-dasharray:none;stroke-opacity:1" />
    <path
       id="path2983-8-0"
       d="m 573.39535,161.04961 c 0,0 53.49597,1.137 20.82118,39.76204 0,0 -0.52076,-37.20988 -40.83647,3.50802 l -7.55101,-0.082 -7.85002,-22.10229 z"
       style="fill:#d1a51f;fill-opacity:1;stroke:#9b7300;stroke-width:3;stroke-linecap:round;stroke-linejoin:round;stroke-miterlimit:4;stroke-dasharray:none;stroke-opacity:1" />
    <path
       id="path2977-2"
       d="m 392.56584,101.90752 c 0,0 -19.71794,0.82634 -30.65664,29.95417 0,0 -31.83547,9.01735 -34.70161,22.19739 0,0 -6.90403,11.24466 -3.50909,12.10091 3.39494,0.85625 34.26233,19.79871 22.91908,38.15804 0,0 13.76763,12.98799 13.48569,23.71003 0,0 28.82249,-14.68612 38.71722,-37.43528 0,0 -2.27245,42.41931 -11.88532,54.44655 0,0 0.18906,63.2746 8.02389,67.50123 7.83483,4.22674 39.44832,51.24907 35.94227,63.30615 0,0 13.22679,56.41939 -26.97875,84.59449 0,0 -30.42213,-17.70566 -37.81427,-33.76927 0,0 -10.4842,50.09906 66.01162,71.42063 0,0 1.58413,-63.6101 17.88307,-69.41624 16.29894,5.80614 17.8757,69.41624 17.8757,69.41624 76.49582,-21.32157 66.01162,-71.42063 66.01162,-71.42063 -7.39214,16.06361 -37.80695,33.76927 -37.80695,33.76927 -40.20554,-28.1751 -26.98604,-84.59449 -26.98604,-84.59449 -3.50608,-12.05708 28.11477,-59.07941 35.9496,-63.30615 7.8348,-4.22663 8.01653,-67.50123 8.01653,-67.50123 -9.61287,-12.02724 -11.88533,-54.44655 -11.88533,-54.44655 9.89474,22.74916 38.71722,37.43528 38.71722,37.43528 -0.2819,-10.72204 13.48569,-23.71003 13.48569,-23.71003 -11.34325,-18.35933 19.52414,-37.30179 22.91909,-38.15804 3.39494,-0.85625 -3.50173,-12.10091 -3.50173,-12.10091 -2.86617,-13.18004 -34.70897,-22.19739 -34.70897,-22.19739 -10.93871,-29.12783 -30.65665,-29.95417 -30.65665,-29.95417 8.73617,0.69487 7.12828,31.05699 7.12828,31.05699 -37.95131,-20.86544 -54.62548,5.32021 -54.62548,5.32021 18.2177,-8.21817 27.98445,17.1007 27.98445,17.1007 -13.49272,-5.53488 -28.10928,31.96605 -28.10928,31.96605 L 450,202.72345 440.18787,187.35147 c 0,0 -14.61656,-37.50093 -28.10928,-31.96605 0,0 9.76679,-25.31887 27.98449,-17.1007 0,0 -16.6742,-26.18565 -54.62552,-5.32021 0,0 -1.60788,-30.36212 7.12828,-31.05699 z"
       style="fill:#d1a51f;fill-opacity:1;stroke:#9b7300;stroke-width:3;stroke-linecap:round;stroke-linejoin:round;stroke-miterlimit:4;stroke-dasharray:none;stroke-opacity:1" />
    <path
       id="path2979-5"
       d="m 348.15402,174.92448 c 0,0 -8.13989,-17.0199 -16.93292,-15.97411"
       style="fill:#d1a51f;fill-opacity:1;stroke:#9b7300;stroke-width:3;stroke-linecap:round;stroke-linejoin:round;stroke-miterlimit:4;stroke-dasharray:none;stroke-opacity:1" />
    <path
       id="path2981-9"
       d="m 336.30556,161.50386 -1.30222,7.11795"
       style="fill:#d1a51f;fill-opacity:1;stroke:#9b7300;stroke-width:3;stroke-linecap:round;stroke-linejoin:round;stroke-miterlimit:4;stroke-dasharray:none;stroke-opacity:1" />
    <path
       id="path2979-5-7"
       d="m 551.84634,174.92448 c 0,0 8.13989,-17.0199 16.93291,-15.97411"
       style="fill:#d1a51f;fill-opacity:1;stroke:#9b7300;stroke-width:3;stroke-linecap:round;stroke-linejoin:round;stroke-miterlimit:4;stroke-dasharray:none;stroke-opacity:1" />
    <path
       id="path2981-9-3"
       d="m 563.69479,161.50386 1.30223,7.11795"
       style="fill:#d1a51f;fill-opacity:1;stroke:#9b7300;stroke-width:3;stroke-linecap:round;stroke-linejoin:round;stroke-miterlimit:4;stroke-dasharray:none;stroke-opacity:1" />
  </g>
  <path
     id="path7811"
     d="m 391.97445,394.44982 c 0,0 -14.65508,-2.20148 -27.2676,-1.10705"
     style="fill:none;stroke:#9b7300;stroke-width:3;stroke-linecap:butt;stroke-linejoin:miter;stroke-opacity:1;stroke-miterlimit:4;stroke-dasharray:none" />
  <path
     id="path7811-2"
     d="m 508.0259,394.44982 c 0,0 14.65508,-2.20148 27.2676,-1.10705"
     style="fill:none;stroke:#9b7300;stroke-width:3;stroke-linecap:butt;stroke-linejoin:miter;stroke-miterlimit:4;stroke-dasharray:none;stroke-opacity:1" />
</svg>
