<?xml version="1.0" encoding="UTF-8" standalone="no"?>
<svg
   xmlns:dc="http://purl.org/dc/elements/1.1/"
   xmlns:cc="http://creativecommons.org/ns#"
   xmlns:rdf="http://www.w3.org/1999/02/22-rdf-syntax-ns#"
   xmlns:svg="http://www.w3.org/2000/svg"
   xmlns="http://www.w3.org/2000/svg"
   xmlns:sodipodi="http://sodipodi.sourceforge.net/DTD/sodipodi-0.dtd"
   xmlns:inkscape="http://www.inkscape.org/namespaces/inkscape"
   version="1.0"
   width="900.000000pt"
   height="506.000000pt"
   viewBox="0 0 900.000000 506.000000"
   preserveAspectRatio="xMidYMid meet"
   id="svg2"
   inkscape:version="0.48.4 r9939"
   sodipodi:docname="goa_by_xumarov_d5dyxhz.svg">
  <defs
     id="defs12" />
  <sodipodi:namedview
     pagecolor="#ffffff"
     bordercolor="#666666"
     borderopacity="1"
     objecttolerance="10"
     gridtolerance="10"
     guidetolerance="10"
     inkscape:pageopacity="0"
     inkscape:pageshadow="2"
     inkscape:window-width="736"
     inkscape:window-height="480"
     id="namedview10"
     showgrid="false"
     inkscape:zoom="0.30844444"
     inkscape:cx="651.78261"
     inkscape:cy="316.25"
     inkscape:window-x="0"
     inkscape:window-y="0"
     inkscape:window-maximized="0"
     inkscape:current-layer="svg2" />
  <metadata
     id="metadata4">
Created by potrace 1.11, written by Peter Selinger 2001-2013
<rdf:RDF>
  <cc:Work
     rdf:about="">
    <dc:format>image/svg+xml</dc:format>
    <dc:type
       rdf:resource="http://purl.org/dc/dcmitype/StillImage" />
  </cc:Work>
</rdf:RDF>
</metadata>
  <rect
     style="fill:#0b72cf;fill-opacity:1;stroke:none"
     id="rect2989"
     width="900"
     height="506"
     x="4.2119086e-015"
     y="-2.001177e-013" />
  <g
     transform="translate(0.000000,506.000000) scale(0.100000,-0.100000)"
     fill="#000000"
     stroke="none"
     id="g6"
     style="fill:#ffffff;fill-opacity:1">
    <path
       d="M4327 3923 l-167 -167 0 -78 0 -78 35 0 35 0 0 -132 0 -133 -140 -80 c-76 -44 -139 -82 -140 -85 0 -3 29 -23 65 -43 l65 -38 0 -381 0 -381 -70 -93 -70 -93 0 -333 0 -332 -70 -232 c-38 -128 -70 -236 -70 -239 0 -3 313 -5 695 -5 591 0 695 2 695 14 0 8 -31 120 -70 249 l-70 235 0 325 0 326 -70 92 -70 91 0 379 0 378 65 38 c36 20 65 40 65 43 -1 6 -257 154 -276 158 -11 3 -14 30 -14 138 l0 134 40 0 40 0 0 83 0 82 -137 135 c-76 75 -152 148 -168 162 l-30 27 -168 -166z m23 -458 l0 -135 -35 0 -35 0 0 135 0 135 35 0 35 0 0 -135z m120 0 l0 -135 -35 0 -35 0 0 135 0 135 35 0 35 0 0 -135z m115 0 l0 -135 -32 0 -33 0 0 135 0 135 33 0 32 0 0 -135z m115 0 l0 -135 -32 0 -33 0 0 135 0 135 33 0 32 0 0 -135z m-230 -630 l0 -145 -50 0 -50 0 0 145 0 145 50 0 50 0 0 -145z m160 0 l0 -145 -50 0 -50 0 0 145 0 145 50 0 50 0 0 -145z m-170 -795 l0 -170 -60 0 -60 0 0 170 0 170 60 0 60 0 0 -170z m190 0 l0 -170 -55 0 -55 0 0 170 0 170 55 0 55 0 0 -170z m-200 -720 l0 -200 -70 0 -70 0 0 200 0 200 70 0 70 0 0 -200z m230 0 l0 -200 -70 0 -70 0 0 200 0 200 70 0 70 0 0 -200z"
       id="path8"
       style="fill:#ffffff;fill-opacity:1" />
  </g>
</svg>
