<?xml version="1.0" encoding="UTF-8" standalone="no"?>
<svg
   xmlns:dc="http://purl.org/dc/elements/1.1/"
   xmlns:cc="http://creativecommons.org/ns#"
   xmlns:rdf="http://www.w3.org/1999/02/22-rdf-syntax-ns#"
   xmlns:svg="http://www.w3.org/2000/svg"
   xmlns="http://www.w3.org/2000/svg"
   xmlns:sodipodi="http://sodipodi.sourceforge.net/DTD/sodipodi-0.dtd"
   xmlns:inkscape="http://www.inkscape.org/namespaces/inkscape"
   width="600"
   height="300"
   viewBox="0 0 600 300"
   version="1.1"
   id="svg279"
   sodipodi:docname="Flag_of_the_British_Overseas_Territories_(unofficial).svg"
   inkscape:version="0.91 r13725">
  <metadata
     id="metadata283">
    <rdf:RDF>
      <cc:Work
         rdf:about="">
        <dc:format>image/svg+xml</dc:format>
        <dc:type
           rdf:resource="http://purl.org/dc/dcmitype/StillImage" />
      </cc:Work>
    </rdf:RDF>
  </metadata>
  <sodipodi:namedview
     pagecolor="#ffffff"
     bordercolor="#666666"
     borderopacity="1"
     objecttolerance="10"
     gridtolerance="10"
     guidetolerance="10"
     inkscape:pageopacity="0"
     inkscape:pageshadow="2"
     inkscape:window-width="1920"
     inkscape:window-height="1024"
     id="namedview281"
     showgrid="false"
     showguides="false"
     inkscape:zoom="0.88642397"
     inkscape:cx="27.843301"
     inkscape:cy="169.2758"
     inkscape:window-x="0"
     inkscape:window-y="30"
     inkscape:window-maximized="1"
     inkscape:current-layer="svg279" />
  <defs
     id="defs8">
    <clipPath
       id="cp">
      <path
         d="M0 0V75H350V150H300zM300 0H150V200H0V150z"
         id="path2" />
    </clipPath>
    <clipPath
       id="cp2">
      <rect
         width="300"
         height="150"
         id="rect5" />
    </clipPath>
  </defs>
  <rect
     fill="#FFF"
     width="600"
     height="300"
     id="rect10" />
  <rect
     style="fill:#00247d;fill-opacity:1"
     id="rect4211"
     width="600"
     height="300"
     x="0"
     y="0" />
  <path
     inkscape:connector-curvature="0"
     style="fill:#cf142b;fill-opacity:1;stroke:#ffffff;stroke-width:4.92726374;stroke-miterlimit:4;stroke-dasharray:none;stroke-opacity:1"
     d="m 600.09889,245.44528 c -6.72522,3.7376 -12.50312,12.47221 -30.37001,12.47221 -35.72277,0 -44.65571,-18.38953 -71.45054,-18.38953 -17.86189,0 -26.79383,18.38953 -44.65572,18.38953 -35.72677,0 -44.65771,-18.38953 -71.45254,-18.38953 -17.86289,0 -26.79483,18.38953 -44.65772,18.38953 -35.72577,0 -44.65771,-18.38953 -71.45154,-18.38953 -17.86389,0 -26.79483,18.38953 -44.65772,18.38953 -35.72577,0 -44.65771,-18.38953 -71.45254,-18.38953 -17.86389,0 -26.79483,18.38953 -44.65772,18.38953 -35.725772,0 -44.657715,-18.38953 -71.451544,-18.38953 -17.863887,0 -23.222652,13.10423 -33.94018395,13.10423 l 0,23.67392 c 10.71753195,0 16.07629695,-13.10331 33.94018395,-13.10331 26.793829,0 35.725772,18.38861 71.451544,18.38861 17.86289,0 26.79383,-18.38861 44.65772,-18.38861 26.79383,0 35.72677,18.38861 71.45254,18.38861 17.86289,0 26.79383,-18.38861 44.65772,-18.38861 26.79383,0 35.72577,18.38861 71.45154,18.38861 17.86289,0 26.79483,-18.38861 44.65772,-18.38861 26.79483,0 35.72577,18.38861 71.45254,18.38861 17.86189,0 26.79383,-18.38861 44.65572,-18.38861 26.79483,0 35.72777,18.38861 71.45054,18.38861 17.86689,0 23.64479,-5.21138 30.37001,-8.94806 l 0,-27.19807 z"
     id="use15" />
  <path
     inkscape:connector-curvature="0"
     style="fill:#cf142b;fill-opacity:1;stroke:#ffffff;stroke-width:4.92726374;stroke-miterlimit:4;stroke-dasharray:none;stroke-opacity:1"
     d="m 600.09889,167.47278 c -6.72522,3.7376 -12.50312,12.47221 -30.37001,12.47221 -35.72277,0 -44.65571,-18.38953 -71.45054,-18.38953 -17.86189,0 -26.79383,18.38953 -44.65572,18.38953 -35.72677,0 -44.65771,-18.38953 -71.45254,-18.38953 -17.86289,0 -26.79483,18.38953 -44.65772,18.38953 -35.72577,0 -44.65771,-18.38953 -71.45154,-18.38953 -17.86389,0 -26.79483,18.38953 -44.65772,18.38953 -35.72577,0 -44.65771,-18.38953 -71.45254,-18.38953 -17.86389,0 -26.79483,18.38953 -44.65772,18.38953 -35.725772,0 -44.657715,-18.38953 -71.451544,-18.38953 -17.863887,0 -23.222652,13.10423 -33.94018395,13.10423 l 0,23.67392 c 10.71753195,0 16.07629695,-13.10331 33.94018395,-13.10331 26.793829,0 35.725772,18.38861 71.451544,18.38861 17.86289,0 26.79383,-18.38861 44.65772,-18.38861 26.79383,0 35.72677,18.38861 71.45254,18.38861 17.86289,0 26.79383,-18.38861 44.65772,-18.38861 26.79383,0 35.72577,18.38861 71.45154,18.38861 17.86289,0 26.79483,-18.38861 44.65772,-18.38861 26.79483,0 35.72577,18.38861 71.45254,18.38861 17.86189,0 26.79383,-18.38861 44.65572,-18.38861 26.79483,0 35.72777,18.38861 71.45054,18.38861 17.86689,0 23.64479,-5.21138 30.37001,-8.94806 l 0,-27.19807 z"
     id="use17" />
  <path
     inkscape:connector-curvature="0"
     style="fill:#cf142b;fill-opacity:1;stroke:#ffffff;stroke-width:4.92726374;stroke-miterlimit:4;stroke-dasharray:none;stroke-opacity:1"
     d="m 600.09889,89.50035 c -6.72522,3.7376 -12.50312,12.47221 -30.37001,12.47221 -35.72277,0 -44.65571,-18.38953 -71.45054,-18.38953 -17.86189,0 -26.79383,18.38953 -44.65572,18.38953 -35.72677,0 -44.65771,-18.38953 -71.45254,-18.38953 -17.86289,0 -26.79483,18.38953 -44.65772,18.38953 -35.72577,0 -44.65771,-18.38953 -71.45154,-18.38953 -17.86389,0 -26.79483,18.38953 -44.65772,18.38953 -35.72577,0 -44.65771,-18.38953 -71.45254,-18.38953 -17.86389,0 -26.79483,18.38953 -44.65772,18.38953 -35.725772,0 -44.657715,-18.38953 -71.451544,-18.38953 -17.863887,0 -23.222652,13.10423 -33.94018395,13.10423 l 0,23.67392 c 10.71753195,0 16.07629695,-13.10331 33.94018395,-13.10331 26.793829,0 35.725772,18.38861 71.451544,18.38861 17.86289,0 26.79383,-18.38861 44.65772,-18.38861 26.79383,0 35.72677,18.38861 71.45254,18.38861 17.86289,0 26.79383,-18.38861 44.65772,-18.38861 26.79383,0 35.72577,18.38861 71.45154,18.38861 17.86289,0 26.79483,-18.38861 44.65772,-18.38861 26.79483,0 35.72577,18.38861 71.45254,18.38861 17.86189,0 26.79383,-18.38861 44.65572,-18.38861 26.79483,0 35.72777,18.38861 71.45054,18.38861 17.86689,0 23.64479,-5.21138 30.37001,-8.94806 l 0,-27.19807 z"
     id="use19" />
  <path
     inkscape:connector-curvature="0"
     style="fill:#cf142b;fill-opacity:1;stroke:#ffffff;stroke-width:4.92726374;stroke-miterlimit:4;stroke-dasharray:none;stroke-opacity:1"
     d="m 600.09889,11.52791 c -6.72522,3.7376 -12.50312,12.47221 -30.37001,12.47221 -35.72277,0 -44.65571,-18.38953 -71.45054,-18.38953 -17.86189,0 -26.79383,18.38953 -44.65572,18.38953 -35.72677,0 -44.65771,-18.38953 -71.45254,-18.38953 -17.86289,0 -26.79483,18.38953 -44.65772,18.38953 -35.72577,0 -44.65771,-18.38953 -71.45154,-18.38953 -17.86389,0 -26.79483,18.38953 -44.65772,18.38953 -35.72577,0 -44.65771,-18.38953 -71.45254,-18.38953 -17.86389,0 -26.79483,18.38953 -44.65772,18.38953 -35.725772,0 -44.657715,-18.38953 -71.451544,-18.38953 -17.863887,0 -23.222652,13.10423 -33.94018395,13.10423 l 0,23.67392 c 10.71753195,0 16.07629695,-13.10331 33.94018395,-13.10331 26.793829,0 35.725772,18.38861 71.451544,18.38861 17.86289,0 26.79383,-18.38861 44.65772,-18.38861 26.79383,0 35.72677,18.38861 71.45254,18.38861 17.86289,0 26.79383,-18.38861 44.65772,-18.38861 26.79383,0 35.72577,18.38861 71.45154,18.38861 17.86289,0 26.79483,-18.38861 44.65772,-18.38861 26.79483,0 35.72577,18.38861 71.45254,18.38861 17.86189,0 26.79383,-18.38861 44.65572,-18.38861 26.79483,0 35.72777,18.38861 71.45054,18.38861 17.86689,0 23.64479,-5.21138 30.37001,-8.94806 l 0,-27.19807 z"
     id="use21" />
  <rect
     width="300"
     height="149.70566"
     id="rect23"
     x="0"
     y="0"
     style="fill:#ffffff;stroke-width:0.99242413" />
  <g
     clip-path="url(#cp2)"
     id="g35"
     transform="translate(0,-0.29434204)">
    <rect
       width="300"
       height="150"
       id="rect25"
       x="0"
       y="0"
       style="fill:#00247d" />
    <path
       d="M 0,0 300,150 M 300,0 0,150"
       id="path27"
       inkscape:connector-curvature="0"
       style="stroke:#ffffff;stroke-width:30" />
    <path
       d="M 0,0 300,150 M 300,0 0,150"
       clip-path="url(#cp)"
       id="path29"
       inkscape:connector-curvature="0"
       style="stroke:#cf142b;stroke-width:20" />
    <path
       d="M 150,0 V 200 M 0,75 h 350"
       id="path31"
       inkscape:connector-curvature="0"
       style="stroke:#ffffff;stroke-width:50" />
    <path
       d="M 150,0 V 200 M 0,75 h 350"
       id="path33"
       inkscape:connector-curvature="0"
       style="stroke:#cf142b;stroke-width:30" />
  </g>
  <rect
     style="fill:#00247d;fill-opacity:1;stroke-width:0.61770463"
     id="rect4213"
     width="158.8065"
     height="3.3785245"
     x="75.39444"
     y="149.74457" />
  <rect
     style="fill:#00247d;fill-opacity:1;stroke-width:0.21745838"
     id="rect4213-0"
     width="90.826782"
     height="0.72409236"
     x="34.156857"
     y="149.31876" />
  <rect
     style="fill:#00247d;fill-opacity:1;stroke-width:0.43090692"
     id="rect4213-0-0"
     width="90.73719"
     height="2.8460152"
     x="175.0522"
     y="149.30084" />
  <rect
     style="fill:#00247d;fill-opacity:1;stroke-width:0.39737746"
     id="rect4213-0-0-4"
     width="77.165802"
     height="2.8460152"
     x="175.05222"
     y="152.14685" />
  <rect
     style="fill:#00247d;fill-opacity:1;stroke-width:0.38928711"
     id="rect4213-0-0-5"
     width="74.055695"
     height="2.8460152"
     x="62.354305"
     y="151.27087" />
</svg>
