<?xml version="1.0" encoding="UTF-8" standalone="no"?>
<!-- Created with Inkscape (http://www.inkscape.org/) -->

<svg
   width="396.875mm"
   height="245.26875mm"
   viewBox="0 0 396.875 245.26875"
   version="1.1"
   id="svg1"
   xml:space="preserve"
   inkscape:version="1.4.2 (f4327f4, 2025-05-13)"
   sodipodi:docname="Flag of Thessaly.svg"
   xmlns:inkscape="http://www.inkscape.org/namespaces/inkscape"
   xmlns:sodipodi="http://sodipodi.sourceforge.net/DTD/sodipodi-0.dtd"
   xmlns="http://www.w3.org/2000/svg"
   xmlns:svg="http://www.w3.org/2000/svg"><sodipodi:namedview
     id="namedview1"
     pagecolor="#ffffff"
     bordercolor="#999999"
     borderopacity="1"
     inkscape:showpageshadow="2"
     inkscape:pageopacity="0"
     inkscape:pagecheckerboard="0"
     inkscape:deskcolor="#d1d1d1"
     inkscape:document-units="mm"
     inkscape:zoom="0.76266667"
     inkscape:cx="750"
     inkscape:cy="463.50524"
     inkscape:window-width="1920"
     inkscape:window-height="1017"
     inkscape:window-x="-8"
     inkscape:window-y="-8"
     inkscape:window-maximized="1"
     inkscape:current-layer="layer1" /><defs
     id="defs1" /><g
     inkscape:label="Capa 1"
     inkscape:groupmode="layer"
     id="layer1"
     transform="translate(41.010418,-90.090622)"><rect
       style="fill:#ffffff;stroke-width:0.312851;stroke-linecap:square"
       id="rect11"
       width="396.875"
       height="245.26875"
       x="-41.010418"
       y="90.090622" /><g
       id="g11"
       transform="translate(48.41243,-4.4104453)"><path
         style="fill:#f3b044"
         d="m 102.79741,300.66902 v -0.32962 l 0.88848,-2.67934 0.88849,-2.67934 0.17138,-0.71361 0.17137,-0.71361 -2.44892,-1.73087 -2.44892,-1.73088 -0.463025,-0.36281 -0.46303,-0.36281 v -0.16927 -0.16927 l 3.241155,-0.004 3.24115,-0.004 0.52916,-0.14242 0.52917,-0.14242 0.6414,-2.03678 0.64139,-2.03678 0.52429,-1.40078 0.52428,-1.40077 0.19318,0.21015 0.19318,0.21015 1.02239,3.175 1.02239,3.175 0.26458,0.19439 0.26459,0.19438 3.55185,0.004 3.55185,0.004 -0.62846,0.66896 -0.62845,0.66896 -2.32808,1.59453 -2.32809,1.59454 v 0.1963 0.19629 l 1.06379,3.16261 1.06379,3.16261 -0.0716,0.33644 -0.0716,0.33645 -2.77813,-2.01075 -2.77812,-2.01075 -0.32767,-0.13877 -0.32766,-0.13876 -2.71505,1.9211 -2.71504,1.9211 -0.33073,0.25509 -0.33073,0.2551 z m 38.3709,-9.69179 0.006,-0.22984 0.24335,-0.92605 0.24335,-0.92604 0.26232,-0.92604 0.26232,-0.92604 0.40642,-1.5875 0.40642,-1.5875 -0.77586,-0.62131 -0.77585,-0.62132 -2.17748,-1.38245 -2.17749,-1.38245 -0.0955,-0.28659 -0.0955,-0.2866 3.44891,-0.19074 3.44891,-0.19075 0.36766,-0.29702 0.36765,-0.29702 0.82744,-3.12121 0.82745,-3.12122 v -0.11993 -0.11993 h 0.22865 0.22865 l 1.09757,2.84427 1.09757,2.84427 0.22449,0.39687 0.22448,0.39688 h 3.60892 3.60891 l -2.4e-4,0.21107 -2.5e-4,0.21107 -0.63888,0.58268 -0.63889,0.58268 -1.718,1.32292 -1.71801,1.32291 -0.32033,0.57043 -0.32034,0.57042 0.47383,1.28166 0.47382,1.28166 0.18391,0.26458 0.18391,0.26459 0.56428,1.6547 0.56428,1.65469 v 0.15955 0.15955 l -0.39842,-0.15289 -0.39842,-0.15289 -2.61154,-1.7275 -2.61154,-1.72751 h -0.31968 -0.31967 l -1.6313,1.25678 -1.6313,1.25677 -0.26459,0.29124 -0.26458,0.29125 -0.99219,0.73234 -0.99219,0.73235 z m -67.442985,-2.21422 -2.63146,-2.11667 h -0.28066 -0.28066 l -2.94014,1.87362 -2.94013,1.87361 -0.11477,-0.11476 -0.11476,-0.11477 1.19507,-3.14791 1.19507,-3.14791 5.9e-4,-0.36584 6e-4,-0.36584 -0.50266,-0.42791 -0.50266,-0.42791 -2.12955,-1.71979 -2.12956,-1.71979 0.0707,-0.25298 0.0707,-0.25299 3.56098,0.0761 3.56098,0.0761 1.28433,-3.3288 1.28433,-3.32879 h 0.2247 0.22469 l 0.1802,0.7276 0.18019,0.72761 0.70429,2.62932 0.70428,2.62933 0.37733,0.20383 0.37733,0.20384 3.37344,0.17004 3.37344,0.17004 v 0.22875 0.22875 l -1.78594,1.15137 -1.78594,1.15137 -0.96244,0.58081 -0.96244,0.58081 -0.2791,0.33629 -0.27909,0.33629 0.77007,2.90166 0.77007,2.90166 0.1716,0.59532 0.17159,0.59531 h -0.28659 -0.28659 z m -35.88552,-26.2599 0.17194,-0.85989 0.35678,-1.19063 0.35677,-1.19062 0.34034,-1.40572 0.34035,-1.40571 -0.27467,-0.44637 -0.27466,-0.44637 -1.69785,-1.10816 -1.69786,-1.10817 -0.26458,-0.21683 -0.26458,-0.21683 -0.73604,-0.47256 -0.73603,-0.47257 0.13214,-0.21382 0.13215,-0.21382 3.38202,-0.18556 3.38201,-0.18556 0.30134,-0.3166 0.30134,-0.3166 0.71611,-2.93567 0.7161,-2.93568 0.25947,-0.37162 0.25946,-0.37161 0.12583,0.26458 0.12583,0.26458 1.25022,3.175 1.25021,3.175 3.76319,-0.0996 3.76319,-0.0996 v 0.14437 0.14437 l -2.77813,2.19681 -2.77812,2.19681 9.6e-4,0.40424 9.6e-4,0.40425 0.80842,2.11667 0.80842,2.11666 0.35535,1.12448 0.35535,1.12448 h -0.18748 -0.18748 l -2.23402,-1.45211 -2.23402,-1.45212 -0.73,-0.408 -0.72999,-0.408 -0.52997,0.28364 -0.52998,0.28363 -2.37096,1.97336 -2.37097,1.97335 h -0.1604 -0.1604 z m 139.460375,-1.41996 -2.62327,-2.25354 -0.66147,0.16602 -0.66148,0.16601 -0.684,0.53983 -0.68401,0.53984 -1.84408,1.16397 -1.84408,1.16398 h -0.20644 -0.20644 v -0.10439 -0.10439 l 1.07651,-2.6832 1.0765,-2.6832 0.13163,-0.85043 0.13164,-0.85043 -2.79564,-2.22262 -2.79564,-2.22262 v -0.13175 -0.13175 l 3.69282,0.14619 3.69283,0.14619 0.24713,-0.30536 0.24714,-0.30536 0.40018,-1.19063 0.40019,-1.19062 0.71955,-1.79712 0.71955,-1.79712 0.29812,0.0993 c 1.27178,3.71844 -0.25114,-0.9335 0,0 l 1.97632,6.33724 0.24088,0.24089 0.24089,0.24088 3.39657,0.19002 3.39657,0.19001 0.0838,0.26459 0.0838,0.26458 -2.90667,1.81409 -2.90667,1.8141 0.005,0.56715 0.005,0.56716 0.78914,3.0351 0.78915,3.03509 v 0.20605 0.20605 l -0.19844,-0.0132 -0.19844,-0.0132 z m -150.037505,-37.05107 0.38772,-1.28295 0.77757,-2.38125 0.77758,-2.38125 -0.70876,-0.59757 -0.70875,-0.59757 -2.17308,-1.5191 -2.17307,-1.51909 -0.01,-0.33073 -0.01,-0.33073 h 3.53948 3.53948 l 0.2614,-0.33073 0.2614,-0.33073 0.98721,-3.04271 0.98721,-3.04271 0.19253,-0.20489 0.19253,-0.20489 1.16865,3.57833 1.16866,3.57833 h 3.62469 3.6247 l 0.15072,0.24387 0.15072,0.24387 -2.76783,1.93894 -2.76782,1.93894 -0.15253,0.42929 -0.15253,0.42929 1.08894,3.36164 1.08894,3.36164 -0.0945,0.0945 -0.0945,0.0945 -1.97954,-1.41951 -1.97955,-1.4195 -0.9025,-0.67995 -0.9025,-0.67994 h -0.36357 -0.36358 l -2.3058,1.68097 -2.3058,1.68097 -0.72111,0.46188 -0.72112,0.46187 z m 160.730565,-0.92044 -2.77812,-2.08038 -0.39688,-2.6e-4 -0.39687,-2.5e-4 -2.74553,1.98367 -2.74554,1.98367 h -0.23103 -0.23103 l 0.001,-0.0661 10e-4,-0.0661 1.06861,-3.28501 1.06861,-3.28501 -0.13276,-0.34594 -0.13275,-0.34595 -2.19383,-1.61695 -2.19383,-1.61694 -0.59531,-0.4373 -0.59531,-0.43729 v -0.20179 -0.20178 h 3.67177 3.67177 l 0.24018,-0.33073 0.24017,-0.33073 1.00069,-3.10886 1.00068,-3.10885 h 0.22929 0.22928 l 0.97907,3.10885 0.97907,3.10886 0.26141,0.33073 0.26141,0.33073 h 3.53948 3.53948 v 0.27265 0.27266 l -2.77813,2.03639 -2.77812,2.03639 v 0.45374 0.45374 l 0.94506,2.92773 0.94506,2.92773 -0.0852,0.35958 -0.0852,0.35957 z M 45.920365,185.1851 l -2.76091,-2.24216 -0.73301,0.45622 -0.73301,0.45622 -2.4034,1.55069 -2.4034,1.55068 -0.12655,-0.12654 -0.12654,-0.12654 1.19964,-3.10393 1.19964,-3.10393 v -0.47056 -0.47056 l -2.47934,-2.01467 -2.47935,-2.01467 -0.32568,-0.39243 -0.32569,-0.39243 3.82636,0.16526 3.82636,0.16527 0.47907,-1.29636 0.47907,-1.29637 0.76832,-1.98437 0.76831,-1.98438 0.20404,-0.21056 0.20403,-0.21056 0.8721,3.12098 0.8721,3.12098 0.36542,0.59531 0.36541,0.59531 1.77984,0.002 1.77984,0.002 1.77834,0.16797 1.77835,0.16796 -0.11792,0.19079 -0.11792,0.19079 -1.92501,1.27026 -1.92501,1.27026 -0.99219,0.65405 -0.99219,0.65405 v 0.48573 0.48574 l 0.79375,3.01528 0.79375,3.01528 v 0.16717 0.16716 h -0.20285 -0.20286 z m 123.153155,1.40556 0.18255,-0.8832 0.35115,-1.07008 0.35114,-1.07007 0.34469,-1.66883 0.34469,-1.66882 -0.52152,-0.37498 -0.52152,-0.37497 -0.41111,-0.32571 -0.41112,-0.32571 -0.9118,-0.51419 -0.9118,-0.51419 -1.31684,-0.94102 -1.31683,-0.94101 1.44912,-0.17227 1.44913,-0.17227 2.02888,-0.0262 2.02889,-0.0262 0.41538,-0.15939 0.41538,-0.1594 0.49929,-1.75883 0.49929,-1.75884 0.46428,-1.80445 0.46428,-1.80446 0.21222,0.21696 0.21221,0.21695 1.11228,2.91042 1.11228,2.91042 0.29251,0.36868 0.2925,0.36868 3.50798,-0.16823 3.50798,-0.16824 -0.0126,0.32872 -0.0126,0.32872 -2.63321,2.07338 -2.63321,2.07337 v 0.48018 0.48017 l 1.19063,3.0806 1.19062,3.0806 v 0.24738 0.24737 l -1.12448,-0.75819 -1.12448,-0.75819 -2.08203,-1.35927 -2.08202,-1.35927 -0.43152,0.3307 -0.43151,0.33071 -1.98438,1.62054 -1.98437,1.62055 -0.62145,0.32726 -0.62145,0.32725 z M 65.491155,159.44184 v -0.20451 l 0.69661,-2.63976 0.69662,-2.63977 0.10677,-0.79375 0.10678,-0.79375 -2.93063,-1.92639 -2.93062,-1.92639 0.1373,-0.22216 0.1373,-0.22216 3.46217,-0.19148 3.46218,-0.19148 0.24039,-0.57038 0.2404,-0.57039 0.42219,-1.71979 0.4222,-1.7198 0.40518,-1.41551 0.40517,-1.41552 0.20651,0.22489 0.20651,0.22489 1.13821,3.04271 1.13821,3.04271 0.23872,0.31868 0.23871,0.31869 1.63125,-0.1236 1.63125,-0.12361 1.91823,-0.0814 1.91822,-0.0814 v 0.21804 0.21804 l -2.66292,2.18187 -2.66293,2.18186 0.14251,0.92966 0.14252,0.92966 0.67913,1.71618 0.67913,1.71617 0.22979,0.52917 0.22979,0.52916 0.14798,0.46303 0.14798,0.46302 h -0.2082 -0.20819 l -2.37674,-1.55005 -2.37673,-1.55004 -0.56437,-0.30204 -0.56437,-0.30204 h -0.23053 -0.23052 l -2.63114,2.11109 -2.63114,2.1111 -0.19844,0.006 -0.19844,0.006 z m 84.045415,-1.92504 -2.60562,-2.10379 h -0.32113 -0.32113 l -2.89408,1.85142 -2.89407,1.85142 -0.18658,6.6e-4 -0.18658,6.7e-4 0.6247,-1.65365 0.6247,-1.65365 0.68636,-1.81743 0.68635,-1.81744 v -0.0655 -0.0655 l -2.84427,-2.34606 -2.84427,-2.34606 0.76426,-0.13666 0.76426,-0.13667 2.80762,0.15602 2.80761,0.15602 0.30421,-0.28831 0.3042,-0.28831 0.66599,-1.85208 0.666,-1.85209 0.3798,-0.92604 0.3798,-0.92604 0.17759,-0.50089 0.17758,-0.50089 0.15693,0.15693 0.15693,0.15693 0.88495,3.3544 0.88496,3.3544 0.15179,0.15179 0.15178,0.15179 1.77667,0.19762 1.77666,0.19762 1.63803,0.0136 1.63803,0.0136 0.15829,0.25611 0.15829,0.25612 -2.9208,1.92146 -2.9208,1.92146 0.006,0.40211 0.006,0.40211 0.7875,2.91042 0.7875,2.91041 2.3e-4,0.33073 2.4e-4,0.33073 -0.19844,-0.0129 -0.19844,-0.0129 z m -46.54844,-8.80432 0.13082,-0.57551 0.90952,-2.87637 0.90952,-2.87637 -0.42149,-0.46574 -0.42149,-0.46575 -2.19483,-1.4756 -2.194835,-1.47561 -0.33845,-0.4078 -0.33845,-0.4078 0.62771,-0.0164 0.627715,-0.0164 2.96754,-0.0628 2.96755,-0.0628 0.20745,-0.20384 0.20746,-0.20385 1.06507,-3.17637 1.06507,-3.17637 0.25784,-0.004 0.25785,-0.004 1.06659,3.24159 1.06659,3.24159 0.52091,0.20361 0.52091,0.20361 3.30729,0.0293 3.3073,0.0294 -0.92605,0.79392 -0.92604,0.79392 -1.77194,1.20187 -1.77194,1.20188 -0.28594,0.34453 -0.28593,0.34453 1.06998,3.25845 1.06998,3.25845 -0.0704,0.20351 -0.0704,0.20351 -0.56732,-0.32293 -0.56732,-0.32294 -2.45293,-1.78774 -2.45292,-1.78775 -0.68392,0.44344 -0.68393,0.44343 -1.98956,1.49105 -1.98956,1.49105 -0.42789,0.16419 -0.42788,0.1642 z"
         id="path12"
         sodipodi:nodetypes="ccccccccccccccccccccccccccccccccccccccccccccccccccccccccccccccccccccccccccccccccccccccccccccccccccccccccccccccccccccccccccccccccccccccccccccccccccccccccccccccccccccccccccccccccccccccccccccccccccccccccccccccccccccccccccccccccccccccccccccccccccccccccccccccccccccccccccccccccccccccccccccccccccccccccccccccccccccccccccccccccccccccccccccccccccccccccccccccccccccccccccccccccccccccccccccccccccccccccccccccccccccccccccccccccccccccccccccccccccccccccccccccccccccccccccccccccccccccccccccccccccccccccccccccccccccccccccccccccccccccccccccccccccccccccccccccccccccccccccccccccccccccccccccccccccccccccccccccccc" /></g><path
       style="fill:#016fba"
       d="m 183.16714,245.6298 c -1.20405,-1.21832 -1.77357,-1.33722 -4.25974,-0.88933 -0.95402,0.17187 -1.2674,0.11263 -1.90752,-0.36063 -0.42127,-0.31147 -1.04427,-0.5663 -1.38443,-0.5663 -0.37293,0 -1.02877,-0.42018 -1.65191,-1.05833 -1.17766,-1.20604 -1.74555,-1.2874 -5.29791,-0.75905 -1.37116,0.20393 -2.19866,0.21434 -2.59738,0.0327 -0.85007,-0.38732 -1.45328,-1.79859 -1.64031,-3.83769 l -0.16381,-1.78593 h -0.87117 c -0.8181,0 -0.88194,-0.0674 -1.04813,-1.10667 -0.12076,-0.75523 -0.51486,-1.49042 -1.24099,-2.3151 -0.58522,-0.66464 -1.1599,-1.33539 -1.27707,-1.49054 -0.11717,-0.15516 -1.07136,-0.4355 -2.12042,-0.62297 l -1.90739,-0.34087 -0.93055,-1.29526 c -0.5118,-0.71239 -1.07462,-1.29526 -1.2507,-1.29526 -0.6388,0 -3.58544,3.58473 -4.24582,5.16525 -0.2385,0.57079 -0.84536,1.37719 -1.34859,1.792 -0.56912,0.46912 -0.91497,0.98876 -0.91497,1.37475 0,0.3413 -0.074,0.81329 -0.16435,1.04885 -0.24482,0.63799 -1.58282,1.2389 -2.33705,1.0496 -0.73379,-0.18417 -1.62068,0.6185 -2.50766,2.26955 -0.39365,0.73275 -0.83585,1.05551 -2.11853,1.54633 -2.45049,0.93767 -2.91892,0.49179 -1.83521,-1.74685 l 0.56219,-1.16134 -0.89292,-0.92373 c -1.13274,-1.17182 -3.0881,-2.47691 -3.71104,-2.47691 -0.29179,0 -0.68905,0.41286 -1.01834,1.05833 -0.45207,0.88613 -0.67151,1.05834 -1.34865,1.05834 -0.54108,0 -1.06468,-0.25596 -1.58212,-0.7734 -0.63323,-0.63323 -0.7734,-0.99656 -0.7734,-2.00473 0,-1.01536 -0.13922,-1.37054 -0.79375,-2.02508 -0.50592,-0.50591 -0.79375,-1.06378 -0.79375,-1.53842 0,-0.62244 -0.17459,-0.81452 -1.06369,-1.17027 -1.42696,-0.57096 -1.60079,-0.55268 -3.7611,0.39549 -1.472,0.64606 -2.08891,0.78621 -2.89404,0.65746 -1.17356,-0.18766 -1.56333,-0.0187 -4.8531,2.10355 -1.23195,0.79474 -2.41716,1.44498 -2.63382,1.44498 -0.43951,0 -1.463,-1.81777 -1.463,-2.59837 0,-0.632 1.0423,-2.1906 2.54553,-3.80644 0.63725,-0.68499 1.15864,-1.44819 1.15864,-1.69601 0,-0.62888 -2.63036,-5.46721 -3.14763,-5.7898 -0.23334,-0.14553 -0.9518,-0.45071 -1.59659,-0.67818 -1.25428,-0.44251 -1.24134,-0.42743 -2.25697,-2.62912 -0.36921,-0.80036 -1.08987,-1.91682 -1.60147,-2.48101 -0.72607,-0.80072 -0.92392,-1.23614 -0.90162,-1.98438 0.0157,-0.52721 -0.15927,-1.67294 -0.38883,-2.54606 -0.22956,-0.87313 -0.41924,-2.12407 -0.42151,-2.77988 -0.006,-1.70358 -0.35596,-2.70815 -1.43705,-4.12402 -1.18486,-1.55176 -1.2715,-2.72537 -0.25993,-3.52107 0.58267,-0.45833 0.92513,-0.51675 2.22974,-0.3804 2.33196,0.24374 2.48254,0.12132 1.84384,-1.49906 -0.33634,-0.8533 -0.52865,-1.96565 -0.52865,-3.05775 0,-1.59292 0.0482,-1.73488 0.66934,-1.97103 0.42641,-0.16212 0.85292,-0.68276 1.17516,-1.43453 l 0.50583,-1.18005 1.00765,0.15316 c 0.5542,0.0842 1.2716,0.39261 1.59422,0.68525 0.49501,0.44901 0.82018,0.50798 2.08282,0.37766 1.78336,-0.18406 2.87409,-0.99665 2.63208,-1.96088 -0.0997,-0.39723 0.029,-0.7775 0.38304,-1.1315 0.63117,-0.63117 1.29725,-0.67928 2.00398,-0.14474 0.32472,0.24561 1.14602,0.39251 2.23338,0.39946 1.23819,0.008 2.09823,0.18721 3.0712,0.64026 0.74327,0.34609 1.86979,0.71683 2.50336,0.82388 0.63358,0.10704 1.35509,0.32147 1.60334,0.47651 0.33745,0.21073 0.71693,0.16215 1.50336,-0.19248 l 1.05198,-0.47438 1.58719,0.71229 c 1.46598,0.65789 1.80657,0.70545 4.45994,0.62279 2.69263,-0.0839 2.86867,-0.12267 2.80757,-0.61866 -0.0359,-0.29104 -0.13354,-1.30307 -0.21707,-2.24896 -0.0835,-0.94589 -0.33343,-2.22971 -0.55532,-2.85295 -0.47182,-1.32521 -0.37029,-1.51662 1.39452,-2.62915 0.87014,-0.54854 1.28004,-1.03839 1.61185,-1.92623 0.32379,-0.8664 1.34114,-2.10927 3.73596,-4.56407 l 3.291,-3.37344 -0.16923,-1.05833 c -0.13618,-0.85157 -0.0893,-1.05833 0.24007,-1.05833 0.22512,0 0.69368,-0.18632 1.04124,-0.41405 0.37231,-0.24395 1.03928,-0.37982 1.62349,-0.33073 l 0.99157,0.0833 0.0664,2.04249 c 0.0365,1.12337 0.14223,2.16516 0.2349,2.3151 0.0927,0.14994 0.50964,0.27262 0.9266,0.27262 0.60467,0 1.08762,-0.37074 2.38592,-1.83156 0.89528,-1.00735 1.82598,-1.90761 2.06822,-2.00056 0.62385,-0.2394 1.3711,0.78359 1.3711,1.87706 0,0.64823 0.11814,0.89673 0.42632,0.89673 0.33502,0 0.39454,0.18414 0.27793,0.85989 -0.55147,3.19587 -0.55615,3.15922 0.55785,4.36591 0.68343,0.74028 1.26153,1.1242 1.69283,1.1242 1.10512,0 3.13702,0.82091 3.51079,1.4184 0.19473,0.31129 0.4322,1.01174 0.52773,1.55656 0.35708,2.03666 3.29927,2.95802 5.99784,1.87827 0.89354,-0.35753 1.25198,-0.38194 1.94237,-0.13229 0.46564,0.16838 1.15708,0.30614 1.53653,0.30614 0.83948,0 1.52056,0.6292 1.52406,1.40796 0.007,1.52407 2.36977,5.08111 5.05713,7.61276 0.70966,0.66854 1.29028,1.44571 1.29028,1.72707 0,0.28135 0.16668,0.74951 0.37039,1.04035 0.20371,0.29085 0.43829,1.2996 0.52128,2.24169 0.24786,2.81372 0.28346,3.00834 0.67622,3.69725 0.20741,0.36381 0.35123,1.11063 0.31959,1.65961 -0.0513,0.89001 0.14872,1.24036 1.84635,3.23407 1.28383,1.50773 2.19222,2.33108 2.7892,2.5281 0.48692,0.1607 0.88531,0.39881 0.88531,0.52913 0,0.13033 0.93919,0.77868 2.0871,1.44079 1.94439,1.12153 2.15326,1.32976 3.05483,3.04544 0.53225,1.01288 1.35409,2.34959 1.82631,2.97046 0.47222,0.62087 1.262,1.72417 1.75506,2.45178 0.49306,0.7276 1.46044,1.94662 2.14973,2.70892 0.74695,0.82609 1.43191,1.92391 1.69549,2.7175 0.24324,0.73232 1.0867,2.30541 1.87436,3.49576 1.79645,2.71485 1.83507,3.31985 0.30764,4.81827 -0.95813,0.93992 -1.43165,1.17386 -3.20083,1.58134 -1.84382,0.42467 -2.13377,0.57554 -2.58906,1.34721 -0.63349,1.07368 -1.0266,1.18224 -4.29735,1.18676 l -2.61276,0.004 0.17122,-0.85989 c 0.0942,-0.47294 0.58531,-1.27463 1.09141,-1.78153 l 0.92018,-0.92163 v 1.38465 c 0,1.63055 0.26416,1.72859 2.12675,0.78934 0.88844,-0.44801 1.25412,-0.82295 1.4779,-1.51534 0.20787,-0.64314 0.54762,-1.02215 1.12888,-1.25933 0.72797,-0.29704 0.80961,-0.42958 0.65557,-1.06434 -0.0968,-0.39878 -0.57697,-1.17405 -1.0671,-1.72283 -0.49013,-0.54878 -1.51032,-2.24278 -2.2671,-3.76444 -1.55011,-3.11685 -1.80716,-3.30757 -4.4578,-3.30757 -1.29631,0 -1.55579,-0.0806 -1.69765,-0.5276 -0.25133,-0.79188 -0.88934,-1.32449 -1.58659,-1.32449 -0.34224,0 -0.97656,-0.29812 -1.40959,-0.66249 l -0.78732,-0.66249 -0.15061,1.12551 c -0.50912,3.80483 -0.17007,3.39658 -3.25771,3.92266 -1.04482,0.17802 -2.05256,0.41817 -2.23943,0.53366 -0.20689,0.12787 -0.38164,0.95087 -0.44681,2.10432 -0.1,1.76887 -0.0412,2.024 0.88662,3.852 0.54651,1.07672 1.1273,1.95767 1.29064,1.95767 0.16334,0 0.44569,-0.23813 0.62745,-0.52917 0.18175,-0.29104 0.44002,-0.52917 0.57391,-0.52917 0.51827,0 1.07499,0.86996 1.07499,1.67982 0,0.9982 0.63718,2.01895 1.27177,2.03733 0.24641,0.007 0.92427,0.48254 1.50635,1.05645 0.58209,0.57391 1.14763,1.04432 1.25677,1.04535 0.5178,0.005 0.0949,1.12794 -0.85989,2.28333 -0.74695,0.90391 -1.05833,1.5296 -1.05833,2.12658 0,0.92072 -0.57318,1.6757 -1.27567,1.68031 -0.24427,0.002 -0.86085,0.0688 -1.37017,0.14939 -0.82604,0.13067 -1.04647,0.0246 -2.04119,-0.98188 z m -53.07027,-19.6763 c -0.59678,-1.83555 -0.82385,-2.07226 -1.07802,-1.12381 -0.36133,1.34828 -0.18599,2.18088 0.55382,2.62976 0.39632,0.24048 0.80216,0.38682 0.90186,0.3252 0.0997,-0.0616 -0.0702,-0.88564 -0.37766,-1.83115 z m 93.83762,14.32637 c -0.31046,-0.31205 -0.86129,-0.77018 -1.22406,-1.01806 -0.46304,-0.3164 -0.79664,-0.95705 -1.11957,-2.15004 -0.43664,-1.6131 -0.51217,-1.71498 -1.48793,-2.00733 -0.56536,-0.16938 -1.02793,-0.45798 -1.02793,-0.64131 0,-0.96138 1.69505,-1.35074 1.97945,-0.45468 0.0897,0.28251 1.21191,1.17548 2.49388,1.98437 1.87399,1.18245 2.54914,1.47072 3.44451,1.47072 1.03258,0 1.10037,0.0433 0.93115,0.59531 -0.24768,0.8079 -0.59867,1.21385 -1.81108,2.09464 -1.20419,0.87481 -1.4213,0.8874 -2.17842,0.12638 z m 6.3294,-4.05723 c -0.0944,-0.24594 -0.0609,-0.48454 0.0744,-0.53022 1.13545,-0.38333 1.9661,-1.21606 2.24456,-2.25019 0.1681,-0.62427 0.7039,-1.57586 1.19066,-2.11465 0.48676,-0.53879 1.14385,-1.58127 1.46019,-2.31662 0.64088,-1.48976 1.06645,-1.6714 1.53038,-0.65319 0.27583,0.60538 0.17488,0.96196 -0.8801,3.10886 -1.47202,2.99556 -1.5193,3.05504 -3.3699,4.23885 -1.69575,1.08476 -2.00515,1.15586 -2.25024,0.51716 z m -19.854,0.007 c -0.56111,-0.22642 -0.35935,-0.97191 0.53425,-1.97403 1.30828,-1.46716 1.89909,-1.6888 2.91878,-1.095 1.11775,0.65091 1.26181,1.56223 0.30449,1.9262 -0.39101,0.14867 -1.01064,0.50605 -1.37694,0.79418 -0.62979,0.49539 -1.64752,0.64444 -2.38058,0.34865 z m 31.35313,-9.90013 c -0.2619,-0.15255 -0.46302,-0.58318 -0.46302,-0.99142 0,-0.78804 0.70241,-1.98548 1.04168,-1.77581 0.29523,0.18247 0.5795,2.1282 0.38498,2.6351 -0.1854,0.48315 -0.32752,0.50264 -0.96364,0.13213 z"
       id="path10"
       transform="translate(1.3125e-6)" /></g></svg>
