<?xml version="1.0" encoding="UTF-8" standalone="no"?>
<!-- Created with Inkscape (http://www.inkscape.org/) -->

<svg
   xmlns:dc="http://purl.org/dc/elements/1.1/"
   xmlns:cc="http://creativecommons.org/ns#"
   xmlns:rdf="http://www.w3.org/1999/02/22-rdf-syntax-ns#"
   xmlns:svg="http://www.w3.org/2000/svg"
   xmlns="http://www.w3.org/2000/svg"
   xmlns:sodipodi="http://sodipodi.sourceforge.net/DTD/sodipodi-0.dtd"
   xmlns:inkscape="http://www.inkscape.org/namespaces/inkscape"
   version="1.0"
   width="731.12299"
   height="486.814"
   viewBox="0 0 731.123 486.814"
   id="svg1930"
   xml:space="preserve"
   inkscape:version="0.48.1 "
   sodipodi:docname="AJAX.svg"><metadata
   id="metadata12"><rdf:RDF><cc:Work
       rdf:about=""><dc:format>image/svg+xml</dc:format><dc:type
         rdf:resource="http://purl.org/dc/dcmitype/StillImage" /></cc:Work></rdf:RDF></metadata><sodipodi:namedview
   pagecolor="#ffffff"
   bordercolor="#666666"
   borderopacity="1"
   objecttolerance="10"
   gridtolerance="10"
   guidetolerance="10"
   inkscape:pageopacity="0"
   inkscape:pageshadow="2"
   inkscape:window-width="1280"
   inkscape:window-height="1004"
   id="namedview10"
   showgrid="false"
   fit-margin-top="0"
   fit-margin-left="0"
   fit-margin-right="0"
   fit-margin-bottom="0"
   inkscape:zoom="1.2074327"
   inkscape:cx="272.24236"
   inkscape:cy="233.94614"
   inkscape:window-x="-8"
   inkscape:window-y="-8"
   inkscape:window-maximized="1"
   inkscape:current-layer="svg1930" /><defs
   id="defs1948">
			 
			
			
			
			
			
		</defs>
	
		<rect
   width="731.12299"
   height="486.814"
   x="0"
   y="-2.394893e-006"
   style="fill:#00237e;fill-opacity:1;stroke:none"
   id="rect1935" /><polygon
   points="320.635,107.417 313.542,129.25 290.586,129.25 309.157,142.742 302.063,164.574 320.635,151.081 339.207,164.575 332.113,142.742 332.113,142.742 350.685,129.25 327.729,129.25 "
   style="fill:#ffffff;stroke:none"
   id="polygon1937"
   transform="translate(0,-2.394893e-6)" /><polygon
   points="320.635,175.003 313.542,196.836 290.586,196.836 309.157,210.329 302.063,232.161 320.635,218.667 339.207,232.161 332.113,210.329 332.113,210.329 350.685,196.836 327.729,196.836 "
   style="fill:#ffffff;stroke:none"
   id="polygon1939"
   transform="translate(0,-2.394893e-6)" /><polygon
   points="320.635,242.589 313.542,264.422 290.586,264.422 309.157,277.916 302.063,299.747 320.635,286.254 339.207,299.747 332.113,277.915 332.113,277.915 350.685,264.422 327.729,264.422 "
   style="fill:#ffffff;stroke:none"
   id="polygon1941"
   transform="translate(0,-2.394893e-6)" /><polygon
   points="320.635,310.175 313.542,332.008 290.586,332.008 309.157,345.501 302.063,367.333 320.635,353.84 339.207,367.333 332.113,345.5 332.113,345.5 350.685,332.008 327.729,332.008 "
   style="fill:#ffffff;stroke:none"
   id="polygon1943"
   transform="translate(0,-2.394893e-6)" /><path
   d="m 141.215,240.666 c 0,-79.06 64.09,-143.150002 143.15,-143.150002 16.625,0 32.583,2.844002 47.427,8.055002 -25.233,-16.412002 -55.345,-25.955002 -87.689,-25.955002 -88.945,0 -161.05,72.104002 -161.05,161.050002 0,88.945 72.104,161.05 161.05,161.05 32.345,0 62.457,-9.543 87.69,-25.955 -14.844,5.211 -30.803,8.055 -47.428,8.055 -79.06,-10e-4 -143.15,-64.09 -143.15,-143.15 z"
   style="fill:#ffffff;stroke:none"
   id="path1945"
   inkscape:connector-curvature="0" />
	</svg>