<svg height="500" width="1000" xmlns="http://www.w3.org/2000/svg" xmlns:xlink="http://www.w3.org/1999/xlink"><clipPath id="a"><path d="m-420-195h840v390h-840z"/></clipPath><linearGradient id="b"><stop offset="0" stop-color="#003994"/><stop offset="1" stop-color="#012169"/></linearGradient><linearGradient id="c"><stop offset="0" stop-color="#caa11c"/><stop offset="1" stop-color="#ffce18"/></linearGradient><linearGradient id="d" gradientUnits="userSpaceOnUse" x1="250.26718" x2="255.90634" y1="364.716839" y2="359.280959"><stop offset="0" stop-color="#de1010"/><stop offset="1" stop-color="#8e1116"/></linearGradient><linearGradient id="e" gradientUnits="userSpaceOnUse" x1="49.8125" x2="62.696896" y1="476.33093" y2="476.33093"><stop offset="0" stop-color="#5a2118"/><stop offset="1" stop-color="#bb1e1e"/></linearGradient><linearGradient id="f" gradientUnits="userSpaceOnUse" x1="279.92262" x2="354.48179" y1="593.91897" y2="576.41808"><stop offset="0" stop-color="#fff231"/><stop offset="1" stop-color="#fff"/></linearGradient><linearGradient id="g" gradientUnits="userSpaceOnUse" x1="194.33936" x2="208.19142" y1="474.26843" y2="474.26843"><stop offset="0" stop-color="#5d241b"/><stop offset="1" stop-color="#ba1d1d"/></linearGradient><linearGradient id="h" gradientUnits="userSpaceOnUse" x1="363.04586" x2="410.14387" y1="576.80636" y2="580.01867"><stop offset="0" stop-color="#fff"/><stop offset="1" stop-color="#fff231"/></linearGradient><linearGradient id="i" gradientUnits="userSpaceOnUse" x1="283.31082" x2="287.17383" y1="394.666736" y2="400.292656"><stop offset="0"/><stop offset="1" stop-color="#fff"/></linearGradient><linearGradient id="j" gradientUnits="userSpaceOnUse" x1="272.137134" x2="283.456924" y1="400.641582" y2="405.965802"><stop offset="0" stop-color="#e5aa12"/><stop offset="1" stop-color="#ffc718" stop-opacity="0"/></linearGradient><linearGradient id="k" gradientUnits="userSpaceOnUse" x1="614.838015" x2="620.313975" xlink:href="#b" y1="327.972905" y2="330.254155"/><linearGradient id="l" gradientUnits="userSpaceOnUse" x1="632.713015" x2="638.313975" xlink:href="#b" y1="327.379155" y2="330.316655"/><linearGradient id="m" gradientUnits="userSpaceOnUse" x1="651.266305" x2="656.292665" xlink:href="#b" y1="331.007945" y2="333.055275"/><linearGradient id="n" gradientUnits="userSpaceOnUse" x1="275.09232" x2="275.09232" y1="176.73798" y2="187.64273"><stop offset="0" stop-color="#ba9117"/><stop offset=".5" stop-color="#7f670c"/><stop offset="1" stop-color="#ffce18"/></linearGradient><linearGradient id="o" gradientTransform="matrix(1.053586 0 0 1.0555803 -81.136077 -58.917508)" gradientUnits="userSpaceOnUse" x1="356.09232" x2="356.09232" xlink:href="#c" y1="221.42548" y2="241.84431"/><linearGradient id="p" gradientTransform="matrix(1 0 0 .8880322 -42.967302 -15.745106)" gradientUnits="userSpaceOnUse" x1="356.09232" x2="356.09232" xlink:href="#c" y1="221.42548" y2="241.84431"/><path d="m0-.000209h1000.0005v500.00021h-1000.0005z" fill="#fff" stroke-width="1pt"/><path d="m0 0h500v250h-500z" fill="#012169" fill-rule="evenodd"/><g transform="matrix(8.333338 0 0 8.333343 0 -.000226)"><path d="m0 0v3.3541l53.2918 26.6459h6.7082v-3.3541l-53.2918-26.6459zm60 0v3.35405l-53.2918 26.64595h-6.7082v-3.3542l53.2918-26.6458z" fill="#fff"/><path d="m25 0v30h10v-30zm-25 10v10h60v-10z" fill="#fff"/><g fill="#c8102e"><path d="m0 12v6h60v-6zm27-12v30h6v-30z"/><path d="m0 30 20-10h4.4721l-19.99996 10zm0-30 20 10h-4.4721l-15.5279-7.76393zm35.5279 10 20-10h4.4721l-20 10zm24.4721 20-20-10h4.4721l15.5279 7.7639z"/></g></g><g transform="matrix(1.32408032 0 0 1.32408032 444.043707 -270.869704)"><path d="m241.41949 360.67308c3.16562 1.26684 6.56513 1.48122 8.83883 6.7617l11.31371.17678-1.98874-7.99914-9.89949-2.74004z" fill="url(#d)" stroke="#000" stroke-linecap="round" stroke-linejoin="round" stroke-width=".601"/><path d="m349.13296 489.86757.17678 6.71752h-1.23744l-.17678 1.76777h-5.48007v.88388h-2.12132v1.23743l-1.40442-.17676.01563 4.43502-1.08609-.19238v1.23742h-1.76777v.70711l-5.3033-.35355v1.41422h-2.29809v4.94974l-34.64823-.17678-.17678 2.2981-1.76777-.17678v1.06066h-2.82842v-1.41421l-6.01041-.17678v1.59099h-1.41421l-.35356 1.94456-9.72272.17676-3.18198 3.00521-1.41421-1.59099-3.88909.17677-.35355-1.06065-3.18198-.17678-2.65165 2.65165h-4.59619l-.88389-1.41422-4.06586 3.53554h-1.76777l-1.34792-.44195h-3.94433l-.05524-.60766-7.73398-.14364-.17678-37.16729z" fill="#fff"/><path d="m261.09918 510.01128.9164-.06232.84482-.16428 3.01175-.61309v9.96579l-2.62689.06931-1.14243-1.05757-.95946.08227z" fill="#d6f7ff"/><path d="m245.58602 509.48978c1.65872.56244 3.33883.84683 4.88498 2.87263l.06477 7.55719-3.26426 2.7618-1.68549.06663z" fill="#02bed7"/><path d="m251.15448 508.03136c8.47928 5.22896 10.10991.65028 16.97056 1.32584" fill="none" stroke="#000" stroke-linecap="round" stroke-linejoin="round" stroke-width=".601"/><g fill="#02bed7"><path d="m255.66228 509.9759 2.51908-2.07713 2.43067 2.07713v7.95495l-.97227-.08838-2.42369 2.66133-1.55379.21128z"/><path d="m267.50634 508.38492h4.28683v9.1482l-1.32583 1.10486-2.12133 1.94453-.83967-.66291z"/><path d="m278.90841 506.04265h5.70105v7.91074l-1.62176-.02835-.10181 1.48677-1.21715-.01925-.41803 2.05218h-2.3423z"/></g><path d="m240.76885 510.32947c3.659-1.11574 5.56031-1.91945 10.16466 2.09921" fill="none" stroke="#000" stroke-linecap="round" stroke-linejoin="round" stroke-width=".601"/><g fill="#02bed7"><path d="m313.33032 502.98218h8.24945v9.375h-8.24945z"/><path d="m328.14208 494.60718h6.50091v11.8125l-3.75611-.19835-.17482 1.35534-2.17775.03051-.39223 2.1875z"/><path d="m338.70446 491.54468h5.00114v6.875l-1.15625-.125-.10466.99266-2.11291-.11378-.00173 1.05862h-1.62559z"/></g><path d="m272.9432 505.32671h4.68459v12.02082h-4.68459z" fill="#d6f7ff"/><path d="m349.13296 489.86758v6.71752h-1.06066l-.17678 1.76776h-5.48007v.88389h-2.12132v1.23743l-1.06067-.17678v4.41942l-1.41421-.17677v1.23743h-1.76777v.70711l-5.3033-.35355v1.41421h-2.29809v4.94975l-34.64823-.17678-.17678 2.2981-1.76777-.17678v1.06066h-2.82842v-1.41422l-6.01041-.17677v1.59099h-1.41421l-.35356 1.94455-9.72272.17677-3.18198 3.00521-1.41421-1.59099-3.88909.17677-.35355-1.06066-3.18198-.17677-2.65165 2.65165h-4.59619l-.88389-1.41422-4.06586 3.53554h-1.76777l-1.41421-.44195h-3.88909l-.04419-.61871-7.77817-.08839-.13259-37.21149z" fill="none" stroke="#000" stroke-linecap="round" stroke-linejoin="round" stroke-width=".601"/><path d="m271.89255 459.79174 4.875.25.375 1.375 3-.375 1 3.25 2.3125 1.4375 5.3125.0625.125 1.5 5.125-.25.125 1.25h2.875l.125 2 2 .75h4.875l26 7.75 1.125 2.375h4l.875 1h3.125l1.625 1.25 1.25.75 2-.25.25 1.625 2.75-.625.5 1.5 1.65403-.25-.02903 5-5.625.125-.25.875h-3.125v1h-1.75v3l-6.875.125.125.75h-2.625v3.5l-1-.375v3l-5.5-.25-.125 1.375-6.75.125-79-8.875c-13.88557-23.87993 22.42392-24.3355 35.25-35.75z" fill="#adeff7" stroke="#000" stroke-linecap="round" stroke-linejoin="round" stroke-width=".601"/><path d="m243.51755 481.29174c33.80679-.42446 41.94778.18694 52.875 15.625l-61.375-5.625-.875-7.375z" fill="#fff"/><path d="m274.70505 469.85423c-1.5246.10566-10.74265 7.0449-8.375 7 14.92637-.28303 22.83849-1.85577 20.5-.25-12.39031 8.50805 6.1366 4.81588 9.3125 6.4375-3.27309 2.04166-.80477 2.20736 3.375 3.75l18.75 11c5.8034.38832 8.22823-2.43665 8.75-5.25 3.89652 2.35738 3.17905.59751 14.5625-3.5 2.27638-.81939-5.00887-5.6567-6.5625-2.0625-1.54909 3.58369-2.78504-4.13855-10 .125l-3.875-9.3125-18.06018-6.45044-3.91638.00122c-9.5 6.97662-5.94629-2.77143-24.46094-1.48828z" fill="#d6f7ff"/><g stroke="#000" stroke-linecap="round" stroke-linejoin="round" stroke-width=".601" transform="translate(-119.35742 26.179523)"><path d="m245.70011 474.27942c1.20431 3.92578.55718 7.36171 9.19823 6.89645 1.73184 2.29008 2.06049 6.45106 5.67678 6.22854h6.25c1.68639 2.16889 3.37337 4.33659 5.75 5.12501 1.26486-.35518 2.0656-1.32922 2.625-2.62501l.74999 1.5 26.87501-.12499 5.99999 1.12499c5.54166 3.96584 11.09071 3.72238 16.625 3 2.34072-.30552 4.66667-.35888 7-.25 2.76734 2.29034 5.81188 3.18428 9.75.32323 2.81644 1.90119 5.97644 1.85566 9.5-.25l.47465-2.95342 1.71445-1.70256-.0054-2.79224-7.3087-8.12501z" fill="#ffca18"/><path d="m245.70012 474.27942c1.2043 3.92579.55717 7.36172 9.19822 6.89644 1.73183 2.29008 2.06049 6.45107 5.67677 6.22856h6.25c1.6864 2.16887 3.37339 4.33658 5.75 5.125 1.26486-.35518 2.06561-1.32921 2.62501-2.625l.74999 1.5 26.875-.125 5.99999 1.125c5.54167 3.96583 11.09072 3.72237 16.625 3 2.34072-.30553 4.66667-.35888 7-.25 2.76736 2.29033 5.81188 3.18428 9.75001.32322 2.81644 1.90119 5.97645 1.85567 9.5-.25l.47465-2.95342 1.71445-1.70256-.0054-2.79224-7.30871-8.125z" fill="none"/><path d="m317.62498 436.73721-13.87499-.375-22.25 6.625.625 5.75c-2.24683-1.89403-4.66986-2.73082-7.25-2.625 1.5803 1.54167 1.9169 3.08333 1.5 4.625-2.83333-2.59357-5.66667-2.49972-8.5-2.5 2.61733 1.70833 4.0052 3.41667 4.625 5.125-3.02331-1.63347-6.26926-2.1537-9.625-2.125 1.33513 1.16547 2.86788 2.19919 3.25 4-1.91667-1.23268-3.83333-1.35077-5.75-1.625l.625 4.25-13.25 6.875c-2.47601.42297-5.03997.67005-6.875 2.375 2.59748 3.42218 5.59307 6.16187 10.5 5.625-.61875 1.0388-2.21887 1.70959-5.5 1.75 2.50329 2.4067 5.78199 4.10262 12.25 2.875-.03986.66667-1.00671 1.33333-2.375 2 5.46159 3.07451 7.82142 1.32407 10.375-.125l-1.25 3.375 14-.625 33.37499 2.5 6.625 2.875h17.625c1.08333 1.12183 2.16667.8715 3.25 0 2.12931-.88506 4.54146-1.06301 7-1.125 2.79958.46508 5.17818 1.12686 7.1875 1.75v-28.25z" fill="#01640b"/></g><path d="m309.10715 485.11621c22.31216.75479 2.68293 27.19332 1.75 31.28401-16.63225-1.13338-28.57891-15.07246-77.16388-14.50041" fill="none" stroke="#000" stroke-linecap="round" stroke-linejoin="round" stroke-width="1.101"/><g fill="#936100" transform="translate(-119.357424 26.179523)"><path d="m256.82513 479.65441h4.375v7.81251c-1.37453.24562-2.5523-.24659-3.59375-1.25001l-.78125-1.40625z"/><path d="m265.41887 482.09192h3.78126v8.21875l-2.46876-2.9375-1.3125.06249z"/><path d="m275.23397 482.32204 7.09116-.19887v9.375h-6.18751l-.87499-1.28126z"/><path d="m299.7192 483.19105 15.60055 1.10485v11.04855c-2.3154-.64391-4.51986-1.62064-6.59958-2.9716l-4.2722-.7849-4.77296-.39776z"/><path d="m324.26835 486.50559h6.0339v8.61786h-2.70483l-3.32907.46404z"/><path d="m338.47747 485.75555h4.94974v10.36229l-1.21534-.61993-3.74546 1.71253z"/><path d="m346.74178 485.48913h7.15945v4.81717l-1.90034 2.40858-.26516 2.49698-4.97184 1.67937z"/></g><g fill="none" stroke-linecap="round" stroke-linejoin="round" stroke-width="1.101" transform="translate(-137.88582 -13.435029)"><g stroke="#000"><path d="m371.39639 515.3284c-29.7772.35679-39.93597 15.94537-70.12501 15.90534-18.92199-21.26689-12.59899-29.55596-.30177-29.68934"/><path d="m286.49472 502.30334c.17614 1.33308 1.63395 1.09539 1.75 2.62499"/><path d="m287.49472 500.58459c2.24796.5263 5.86967-1.46594 6.34375 2.3125"/><path d="m291.68222 495.58459c2.1875-.36431 3.6875 2.39416 6.5625 2.3125"/><path d="m296.02597 492.64709c2.72498-.51997 4.5504.93912 6.03125 3.15625-.57203-1.36304-.49942-3.11285-1.8125-4.03125"/><path d="m305.93222 489.70959c2.18798 1.41226 3.1199 3.25464 3.59375 5.1875"/><path d="m312.99472 489.45959c1.49865 1.22462 1.04891 3.42345 1.15625 5.34375"/><path d="m320.80722 492.61584 2.3125 2.06249"/><path d="m315.74472 503.55334c.94351-.00552 5.21511-.44953 5.1875 1"/><path d="m319.96347 500.47521c2.24895-.12371 4.56368-.19356 4.95312 2.25"/><path d="m327.74472 498.55334c1.04687.23842 2.00524.63419 2.3125 2.18749"/><path d="m334.61972 498.36583c-.125 1.0625.66666 1.5 2.375 1.3125"/><path d="m340.68222 499.55334c1.03913.38921 2.05156.81848 2.4375 2.18749"/><path d="m344.86972 496.36583c-.04355 1.29382.95823 1.39299 2.0625 1.375"/></g><g stroke="#a5d371"><path d="m273.68222 511.55334c3.319-.08449 6.66075-.18919 9.25.37499"/><path d="m283.80722 507.55334c.10883 1.63533 2.15555 1.85615 1.96875 3.09375"/><path d="m289.77597 497.52209c.08331.50926-.72188 1.1207 3.34696 1.6272.63815.07944 2.52919.59173 3.49679 2.27904"/><path d="m293.86972 493.67833c2.11816-.12718 6.05636 1.93096 6.1875 3.12501"/><path d="m302.99472 490.05334c2.10748.97825 1.02605 4.34843 2.1875 6.65625"/><path d="m309.90097 488.61584c3.40422 3.03621 1.83857 8.77904.875 8.03125"/><path d="m315.83847 490.36583c1.17043 2.06344.84894 3.7539 1.125 5.59376"/><path d="m315.65097 498.49084c2.48466.09714 1.12969 1.40307 3.53125 1.28125"/><path d="m311.58847 500.58459c.12645 1.26838 2.65844 1.00646 4.0625 1.09374"/><path d="m317.58847 507.42833c1.65119.15447 3.27036.3196 5.40625.3125"/><path d="m323.61972 504.45959c1.74047.18786 4.68967-.2528 4.5625.90624"/><path d="m328.74472 501.49084c-.09964 1.75615 2.62236 1.72411 3.1875 3.24999"/><path d="m333.74472 501.55334c-.05795 1.71419 1.23299-.2955 2.125 1.25"/><path d="m321.61972 491.42833 1.5625 1.4375"/><path d="m324.93222 488.61584c1.40663 2.57039 3.64257 4.88561 6.125 7.12499"/><path d="m332.86972 484.61584c1.94575 2.90091 4.37336 8.85813 1.8125 9.06249"/><path d="m340.74472 485.33459c.40572.63677.12827 5.37458-.125 5.40624"/><path d="m348.93222 494.74083c1.07162-.34809 1.9237-1.17586 2-2.18749"/><path d="m348.80722 496.61584c-.10504 1.21605.92741 1.421 2.3125 1.31249"/><path d="m345.96347 490.27209c.10236 2.5953-1.16674 2.45718-1.0625 4.5625"/></g><g stroke="#000"><path d="m326.80722 488.67833c6.65068.42674 5.66189-2.69986 7.09375.96876"/><path d="m336.99472 482.52209c1.69788-.32287.88325 3.12304 1.09375 5.03125-.93627-1.42832-1.73029-2.99889-3.21875-3.87501"/><path d="m277.80456 517.52431c1.12511-1.36634 3.8403-.46464 4.15426-1.76777"/><path d="m282.71012 519.60145c1.27648.13727 2.22231-.02604 2.2097-1.06066"/><path d="m345.28906 522.73922c1.16798-.1393 2.56336-.64242 2.60746 1.01648l.08839-4.77297"/><path d="m349.79687 521.59018c1.51239-.13908 3.33677 1.25693 4.35458 1.01547.67195-.15943.99235-1.25691.63936-3.18098"/><path d="m357.97279 519.60145c2.07683 1.5918 3.07773.46346 4.06586 2.2097"/><path d="m366.76743 519.55724c1.24259-.41695 1.68891.01926 1.28163 1.37002"/><path d="m368.75617 518.18722 1.41421.39775"/></g><g stroke="#a5d371"><path d="m348.73621 522.56246c.87775-.22717.34438 1.2794 2.43068 1.54678"/><path d="m355.89566 520.04339c1.26149.31996.44976 3.88523 2.03294 3.71231"/><path d="m362.83415 519.68982c.0872 1.47046-.2973 3.54739.53033 4.06588"/><path d="m368.84456 521.45759c.04689 1.02071-.36843 2.46161.88388 2.38649"/></g></g><path d="m319.41618 478.70939c-2.94745 2.01251-5.44829 4.32276-7.68979 6.8059l4.24265 3.22617c2.67982-3.1223 4.5907-5.94666 7.73162-9.59366.13713-.15922-1.19854-.16588-.94901-.47633l-7.48528 9.58516 3.31012 2.91551 9.72272-13.56761c-1.79604 5.1308-7.2733 10.31274-1.28163 15.33538-.62394-7.95142 3.14846-8.8662 3.62392-15.29118z" fill="#008e8e" stroke="#000" stroke-linecap="round" stroke-linejoin="round" stroke-width="1.001"/><g transform="translate(-120.7385 -82.554714)"><path d="m67.3125 476.33093c0 4.19391-3.917508 7.59375-8.75 7.59375s-8.75-3.39984-8.75-7.59375 3.917508-7.59375 8.75-7.59375 8.75 3.39984 8.75 7.59375z" fill="url(#e)" opacity=".99" transform="matrix(.9214286 0 0 1.0123457 229.85585 96.639995)"/><path d="m283.75451 572.85155c9.63605.1802 5.16169 8.48119-3 5.9375l2.9375 8 8.3125-.9375c2.06876-1.61077 6.70022-16.82066-8.3125-16" fill="#fff231" stroke="#000" stroke-linecap="round" stroke-linejoin="round" stroke-width=".601"/><path d="m283.75451 569.85155c.73472 1.36661.74082 2.21282 0 3-9.74083.22468-9.74647 12.1238.125 13.25 7.93896.90573 38.11955-16.40767 69.62499-17.25.15735 3.53267.38315 8.73973.67678 14.78401-29.7772.35678-39.93595 15.94536-70.125 15.90533-18.92199-21.26688-12.59899-29.55595-.30177-29.68934z" fill="url(#f)"/><path d="m210.375 474.26843c0 4.12488-3.67966 7.46875-8.21875 7.46875s-8.21875-3.34387-8.21875-7.46875 3.67966-7.46875 8.21875-7.46875 8.21875 3.34387 8.21875 7.46875z" fill="url(#g)" opacity=".99" transform="matrix(1.0304183 0 0 1.0209205 221.04277 91.41119)"/><path d="m429.692 569.85534c-7.7162-.29441-11.30507 7.35789 1.875 8.625l-1.875 6.18371-11.0625-4.375c-1.92013-8.01795-1.36723-14.13001 11.03315-13.43544" fill="#fff231" stroke="#000" stroke-linecap="round" stroke-linejoin="round" stroke-width=".601"/><path d="m429.6295 569.85155c-.92487-.77882-.78258-2.13956 0-3 22.31216.75478 2.68293 27.19332 1.75 31.28401-16.63225-1.13339-28.86016-15.19746-77.44513-14.62541-.14991-5.43742-.19194-7.58094-.52368-14.65943 41.51107-1.10191 74.84465 13.84939 77.59381 13.87583 5.06963.04876 9.13356-12.68278-1.375-12.875z" fill="url(#h)"/><path d="m284.94463 599.49869c16.644.2999 45.64863-15.66978 61.42936-18.03123" fill="none"/><path d="m287.48296 596.92963-.08186-8.57333 3.08085-.1621c.61932-.03258 1.09088.01965 1.41466.15668.32376.13705.58389.39544.78037.77516.19646.37975.29695.80548.30146 1.27723.0058.60821-.14887 1.12928-.46403 1.56324-.31516.43395-.80557.72501-1.47121.87315.24468.13146.43089.26403.55863.39772.27148.28998.52948.65672.77399 1.10023l1.23092 2.26981-1.15651.06085-.93654-1.73529c-.27351-.5005-.49845-.88264-.67485-1.14641-.1764-.26375-.33384-.44661-.47233-.54855-.1385-.10192-.27905-.17059-.42165-.206-.10454-.0218-.2753-.02647-.51229-.014l-1.06645.05611.03636 3.80712zm.87378-4.83798 1.97649-.104c.42025-.0221.74836-.093.98433-.21269.23596-.11968.41443-.30071.53542-.54307.12098-.24235.18015-.50193.17751-.77875-.00388-.40546-.12635-.73253-.3674-.9812-.24107-.24865-.61913-.35944-1.13418-.33234l-2.19925.11571zm6.13941 4.19135-1.07254-8.43341 4.96429-1.14622.12657.99521-4.05573.93643.32849 2.58296 3.79815-.87696.12584.98945-3.79815.87697.36507 2.87059 4.21496-.97321.12657.99522zm5.57905-4.15088.82966-.35788c.11635.40304.2722.71464.46753.93483s.46223.36381.80071.43086c.33846.06705.70039.03974 1.08577-.08193.34221-.10803.63291-.26576.87209-.4732.23916-.20744.40279-.44.49086-.69768s.10853-.51501.06138-.77198c-.04785-.26075-.15129-.46896-.31032-.62464-.15904-.15569-.39251-.25488-.70042-.29761-.19785-.02949-.62498-.03756-1.28138-.02424-.65641.01333-1.12439-.02183-1.40393-.10549-.36186-.10564-.65043-.28739-.86573-.54525-.21529-.25786-.35795-.57763-.428-.95931-.07697-.41945-.0518-.84218.07551-1.26817.12732-.42598.36016-.79234.69854-1.09906.33837-.3067.7357-.53209 1.19199-.67615.50253-.15864.96392-.19935 1.38417-.12215.42024.07723.76901.27596 1.04631.59619.27729.32025.46837.72168.57325 1.20429l-.8456.35091c-.14264-.51066-.37192-.85806-.68784-1.04218-.31592-.18411-.73439-.19392-1.25542-.02944-.54262.17131-.91565.41801-1.11911.74009-.20345.3221-.27363.6551-.21053.99898.05479.29853.18773.51643.39883.65367.20801.13823.69514.19333 1.46138.16531.76623-.02801 1.29888-.00926 1.59792.05624.43554.09837.77872.28888 1.02955.57149.25082.28264.41715.6469.49898 1.09282.08113.44213.0543.89137-.08048 1.3477-.1348.45633-.37572.85422-.72276 1.19366-.34705.33944-.7626.58556-1.24663.73838-.61353.19368-1.14773.2464-1.60262.15812-.45489-.08826-.84065-.31529-1.15729-.68109-.31664-.36578-.5321-.82448-.64637-1.37609zm7.12952.51568-1.75082-8.23368 4.8624-1.74767.20661.97165-3.97249 1.42781.53623 2.52178 3.7202-1.33714.20542.96602-3.7202 1.33714.59595 2.80259 4.12846-1.48387.20661.97164zm5.51536-2.00237.74494-9.17004.95573-.35832 4.57328 7.17605-1.0106.3789-1.33607-2.19175-2.80316 1.051-.18211 2.76096zm1.18302-4.09446 2.27271-.8521-1.20634-2.00994c-.36732-.61025-.65231-1.11794-.85497-1.52309.03195.5581.02801 1.12561-.01181 1.70252zm5.82137 1.45012-1.7658-8.22828 2.97992-1.07981c.59904-.21706 1.0703-.30818 1.41377-.27335.34346.03484.64855.20557.91529.51219.26674.30663.44869.68632.54586 1.13907.12526.58374.07651 1.13172-.14625 1.64393-.22278.51225-.64496.93946-1.26656 1.28166.26505.05317.47315.12495.62432.21536.32242.19772.64675.47339.97299.82702l1.64964 1.81586-1.11862.40534-1.25677-1.3896c-.36578-.39978-.66083-.70018-.88514-.90119s-.41418-.32981-.56961-.38642c-.15544-.05659-.30634-.08054-.4527-.07187-.10649.01036-.27434.05707-.50356.14012l-1.03152.37379.78414 3.65389zm-.09709-4.91912 1.91174-.69274c.40648-.1473.7133-.31393.92044-.49989.20715-.18597.34602-.41374.41665-.68332.0706-.26955.0774-.53718.0204-.80286-.08352-.38914-.26755-.66726-.5521-.83435-.28456-.16707-.67593-.16036-1.17411.02016l-2.12721.77082zm11.19322-1.94619.94793.00297c-.02796.96254-.24453 1.75633-.64974 2.3814s-.96139 1.04593-1.66853 1.26257c-.73184.2242-1.35943.22388-1.88276-.00098-.52333-.22485-.96607-.64703-1.32821-1.26653-.36215-.6195-.6137-1.32676-.75464-2.1218-.15371-.86696-.15268-1.66458.00308-2.39286.15576-.72825.45329-1.3363.8926-1.82414.43931-.48782.95849-.8235 1.55755-1.00703.67935-.20812 1.28821-.17112 1.82657.11099.53837.28212.96678.77953 1.28522 1.49224l-.83939.52658c-.26488-.55748-.57159-.92853-.92011-1.11315-.34854-.18459-.74976-.20737-1.20369-.06831-.52187.15989-.93085.44683-1.22697.86086-.29612.41404-.4694.90119-.51982 1.46147-.05043.5603-.02699 1.11492.07034 1.66387.12551.70796.31923 1.30023.58115 1.7768.26193.47657.5936.79107.99503.94351.40142.15243.80903.16527 1.22281.0385.50334-.1542.89794-.46269 1.18378-.92546.28585-.46278.42845-1.06327.4278-1.8015zm2.56496 2.29994-.69572-8.50746.91496-.14847.28569 3.49351 3.5938-.58319-.28569-3.4935.91496-.14847.69572 8.50745-.91496.14847-.32793-4.00999-3.5938.58318.32793 4.00999z" fill="#ca1214"/><path d="m343.97741 581.49704 3.29883-8.58984h1.22461l3.51562 8.58984h-1.29492l-1.00195-2.60156h-3.5918l-.94336 2.60156zm2.47852-3.52734h2.91211l-.89649-2.37891c-.27344-.72265-.47656-1.3164-.60937-1.78125-.10938.55079-.26368 1.09766-.46289 1.64063zm6.46875 3.52734v-8.58984h1.16601l4.51172 6.74414v-6.74414h1.08985v8.58984h-1.16602l-4.51172-6.75v6.75zm8.68359 0v-8.58984h2.95899c.66796.00001 1.17772.04102 1.52929.12304.49218.11329.91211.31837 1.25977.61524.45312.38282.79198.87208 1.0166 1.46777.2246.59571.33691 1.27637.33691 2.04199 0 .65235-.07618 1.23048-.22851 1.73438-.15235.50391-.34767.9209-.58594 1.25098-.23829.33008-.49903.58984-.78223.77929-.28321.18946-.625.33301-1.02539.43067-.40039.09765-.86035.14648-1.37988.14648zm1.13672-1.01367h1.83398c.56641 0 1.01074-.05273 1.33301-.1582.32226-.10547.5791-.25391.77051-.44532.26952-.26953.47949-.63183.62988-1.08691.15039-.45507.22558-1.00683.22559-1.65527-.00001-.89844-.14747-1.58886-.44238-2.07129-.29493-.48242-.65333-.80566-1.0752-.96973-.30469-.11718-.79493-.17577-1.4707-.17578h-1.80469z" fill="#ca1214"/><path d="m283.98205 572.85841c-9.74083.22468-9.74646 12.1238.125 13.25 7.93897.90573 38.11955-16.40767 69.62499-17.25m.67678 14.78401c-29.77719.35678-39.93595 15.94536-70.12499 15.90533-18.92199-21.26688-12.59119-29.57157-.29397-29.70496" fill="none" stroke="#000" stroke-linecap="round" stroke-linejoin="round" stroke-width=".601"/><path d="m429.35909 566.83455c22.31216.75478 2.68293 27.19332 1.75 31.28401-16.63225-1.13339-29.00078-15.02559-77.58575-14.45354m-.63306-14.78443c41.51107-1.10191 75.09465 13.80252 77.84381 13.82896 5.06963.04876 9.13356-12.68278-1.375-12.875" fill="none" stroke="#000" stroke-linecap="round" stroke-linejoin="round" stroke-width=".601"/><path d="m372.17452 581.26225.41277-8.3147 2.57263.17299c.58075.03905 1.02199.10856 1.32372.2085.42247.13844.7777.3615 1.06571.66919.37556.39704.64666.89044.81333 1.48019.16665.58975.23158 1.25519.1948 1.99628-.03136.63145-.12536 1.18661-.28202 1.66547-.15668.47885-.34652.87107-.56954 1.17664-.22305.30559-.46223.54178-.71754.70861-.25535.16683-.55941.2858-.91221.35692-.35281.07112-.75506.0915-1.20675.06113zm1.03701-.91474 1.59452.10722c.49245.03311.88131.00804 1.16657-.07521.28524-.08324.51568-.21191.6913-.38601.24729-.24513.44724-.58356.59987-1.01527.15261-.43171.2445-.96139.27567-1.58906.04317-.86966-.05186-1.5466-.28509-2.03081-.23324-.48421-.5293-.81805-.8882-1.00153-.25929-.13124-.68269-.21661-1.27024-.25613l-1.56905-.10551zm6.66405 1.53591.73643-8.28509.98501.11414-.73643 8.28509zm2.71619-2.39576.93599.05909c-.00795.41945.0515.77421.17835 1.0643s.34848.54383.66489.76121.68515.36001 1.10624.42789c.37393.06028.71182.05164 1.01369-.02591.30186-.07756.53622-.21285.70307-.40588.16685-.19302.26626-.41699.29826-.67192.03245-.25868-.00658-.4954-.1171-.7102-.11052-.21478-.31252-.41276-.60596-.59394-.18794-.11826-.61075-.32315-1.2684-.61467-.65768-.29151-1.11282-.53986-1.36546-.74505-.32784-.26321-.55934-.56157-.69449-.89507s-.17897-.68957-.13145-1.06821c.0522-.41612.20713-.78796.46475-1.11553.25762-.32755.602-.55219 1.03314-.67393.43113-.12174.89598-.14242 1.39455-.06205.5491.08852 1.021.26499 1.41571.52941.39471.26443.68092.60603.85865 1.02479.17772.41878.24466.87133.20082 1.35765l-.94974-.07279c.01484-.52924-.10672-.95043-.36471-1.26358-.258-.31313-.67165-.51559-1.24096-.60738-.5929-.09557-1.04011-.04431-1.34163.15377-.30152.1981-.47369.46772-.51649.80886-.03716.29617.02827.55532.1963.77747.16465.2216.63274.4969 1.40428.8259.77153.32899 1.29611.59237 1.57375.7901.40343.2907.68661.62225.84953.99465.16292.37239.21662.77978.16112 1.22215-.05504.43862-.21976.83375-.49414 1.18537-.2744.35163-.63651.60115-1.08632.74855-.44983.14742-.93918.17849-1.46807.09323-.67037-.10807-1.21846-.30733-1.64426-.59781-.42582-.29047-.74017-.67485-.94307-1.15314-.20291-.47829-.27652-.99407-.22084-1.54733zm12.64885 2.16942.92357.48971c-.35939.84223-.84454 1.43739-1.45545 1.78548-.61092.34808-1.29863.43685-2.06312.26631-.79119-.1765-1.40323-.49924-1.83609-.96824-.43287-.46901-.71904-1.0722-.85851-1.8096-.13947-.73739-.14079-1.49607-.00394-2.27603.14923-.85053.42545-1.55983.82867-2.12793.40321-.56809.90323-.95634 1.50005-1.16477.59682-.20842 1.21905-.2404 1.8667-.09593.73445.16384 1.31556.5096 1.74334 1.03728.42776.5277.67399 1.19049.73867 1.98838l-1.00043.03734c-.066-.63223-.23713-1.12003-.51337-1.4634-.27626-.34336-.65976-.56978-1.1505-.67926-.56419-.12585-1.06213-.08062-1.49381.13569-.4317.21632-.7688.56084-1.01131 1.03355-.24253.47273-.41103.97836-.50551 1.51689-.12187.69454-.13728 1.32117-.04624 1.87986.09103.55871.30602 1.00902.64498 1.35093.33895.34191.73209.56277 1.17944.66256.54416.12139 1.03548.0496 1.47398-.21538.43849-.26497.78478-.72612 1.03888-1.38344zm2.23162-.61952c.29376-1.34166.8476-2.30235 1.66154-2.88206.81394-.5797 1.73314-.7277 2.75765-.44404.67086.18577 1.23661.53151 1.69723 1.03722.46061.50572.76239 1.11657.90532 1.83256.14292.716.12586 1.47835-.0512 2.28702-.17948.81972-.48875 1.51186-.92783 2.07645-.43909.56459-.96769.93772-1.58581 1.11939-.61814.18167-1.24281.18512-1.87403.01034-.68409-.18943-1.25524-.54251-1.71345-1.05925-.4582-.51675-.75649-1.1315-.89485-1.84429-.13838-.71278-.1299-1.4239.02543-2.13334zm.98782.29107c-.21328.9741-.14581 1.80663.20239 2.49759s.87757 1.13482 1.5881 1.33157c.72375.2004 1.38142.08231 1.97299-.35429.59157-.43658 1.00124-1.17501 1.229-2.21527.14406-.65797.16985-1.26.07735-1.80609-.0925-.54608-.30169-1.00751-.62753-1.38431-.32586-.37678-.7284-.6315-1.20759-.7642-.68079-.1885-1.32351-.09064-1.92815.29359-.60465.38425-1.04017 1.18472-1.30656 2.40141zm8.38483 6.60366-.81945-8.89103 1.03339.32104.43964 6.41068c.0359.51388.0544.99092.05548 1.43112.21934-.40315.45674-.80068.71218-1.19263l3.3839-5.2228.97434.30269-4.80022 7.14516zm4.67965 1.47876 2.05111-7.99877 5.2009 1.68122-.24205.94393-4.24904-1.37353-.6282 2.44983 3.97918 1.28628-.24064.93847-3.97919-1.28629-.69816 2.72264 4.41587 1.42745-.24205.94391zm6.7073 2.17963 2.02263-8.00791 3.1928 1.01689c.64183.20443 1.11159.43175 1.40928.68197.29768.25023.50041.58924.60819 1.01701.10778.42779.10602.862-.00527 1.30263-.1435.5681-.42982.9943-.85897 1.27861-.42917.28431-1.00257.36924-1.72018.25478.2181.21505.3761.40898.47398.58179.2066.3727.38053.81171.5218 1.31705l.70207 2.57844-1.19853-.38172-.53213-1.96955c-.15694-.56934-.29327-1.01015-.40899-1.32242-.11573-.31228-.23193-.54209-.34862-.68941-.1167-.14734-.24367-.2645-.38091-.3515-.10163-.0599-.27524-.12897-.52084-.20719l-1.1052-.35201-.89817 3.55604zm2.0829-4.17022 2.04831.65237c.43553.13872.78873.19711 1.05963.17519s.49802-.1227.68139-.30235c.18335-.17963.30769-.39873.373-.65729.09564-.37872.05067-.72945-.13493-1.05219-.18563-.32272-.54531-.56909-1.07908-.73911l-2.27917-.72589zm7.20954 7.08415.80762-3.40734-1.68853-5.47057 1.16432.34843.85098 2.85188c.15561.53232.29313 1.05923.41256 1.58072.31678-.35569.69219-.75065 1.12621-1.18487l1.96165-1.94555 1.11499.33367-3.98507 3.7727-.80762 3.40736z" fill="#ca1214"/></g><path d="m196.2494 364.40101.63426 11.86734-20.375 14.5-2.48438-17.78906c6.27291-5.43001 12.32564-11.58617 20.33795-13.48403" fill="#fec717" stroke="#000" stroke-linecap="round" stroke-width=".601"/><path d="m277.01757 395.54173c9.02511-1.133 15.19244-9.52683 20.3125-21.4375l-7.1875 43.1875c-4.03694 2.21306-7.86988 4.63012-11.75 7z" fill="url(#i)" stroke="#000" stroke-linecap="round" stroke-linejoin="round" stroke-width=".601"/><g transform="translate(-118.85743 25.929526)"><path d="m351.26696 461.07762c-6.22172-.36709-49.06251-17.88246-48.66051-60.48348v-60.4835h48.66051 48.66054v60.4835c.402 42.60102-42.43878 60.11639-48.66054 60.48348z" style="fill:#fff;stroke:#000;stroke-width:.728861;stroke-linecap:round;stroke-linejoin:round;display:block"/><path d="m351.26697 461.07762c-6.22174-.36709-49.06253-17.88246-48.66052-60.48348v-60.4835h48.66052 48.66053v60.4835c.402 42.60102-42.43879 60.11639-48.66053 60.48348z" style="fill:none;stroke:#000;stroke-width:.728861;stroke-linecap:round;stroke-linejoin:round;display:block"/><g fill="#012169" transform="translate(113.0303 6.879181)"><g><path d="m286.65084 390.88028c.17253-1.86507.32342-5.29807.08839-8.8705-8.42253 6.42757-11.51641-8.77349-20.55473-.22541-6.06585 5.73684-8.03934-1.70838-12.09771-1.14684s-3.63649 9.38026.42188 8.81872 5.60998 6.75868 11.67583 1.02184c9.03832-8.54808 12.04381 6.82976 20.46634.40219z"/><path d="m189.64573 380.75496c-.17253 1.86507-.05826 5.12129.17677 8.69372 8.42253-6.42757 11.07447 9.17124 20.11279.62316 6.06585-5.73684 8.03934 1.70838 12.09771 1.14684s3.63649-9.38026-.42188-8.81872-5.60998-6.75868-11.67583-1.02184c-9.03832 8.54808-11.86703-7.05073-20.28956-.62316z"/></g><g><path d="m286.92387 364.9832c.17253 3.07243.04752 3.72608-.00001 8.52865-8.42253 6.42757-11.09973-9.01068-20.28512-1.06066-1.77483 1.2762-3.78885 3.7573-5.69284 1.35855s-.98878 1.13002-1.8125-6.59115 1.01901 2.17289 7.50534-3.29605c9.1854-7.95002 11.8626 7.48823 20.28513 1.06066z"/><path d="m189.90303 371.7265c-.17253-3.07243-.04752-3.72608.00001-8.52865 8.42253-6.42757 11.09973 9.01068 20.28512 1.06066 1.77483-1.2762 3.78885-3.7573 5.69284-1.35855s.98878-1.13002 1.8125 6.59115-1.01901-2.17289-7.50534 3.29605c-9.1854 7.95002-11.8626-7.48823-20.28513-1.06066z"/></g><g><path d="m286.72751 346.90058c.24661 2.05771.15822 6.0264.04419 8.38811-8.42253 6.42757-11.09973-9.01068-20.28512-1.06066s-9.22958-.43809-.04419-8.38811 11.86259 7.48823 20.28512 1.06066z"/><path d="m189.79003 354.03763c-.24661-2.05771-.06983-5.98221.0442-8.34392 8.42253-6.42757 11.3207 8.96649 20.50609 1.01647s9.22958.43809.04419 8.38811-12.17195-7.48823-20.59448-1.06066z"/></g></g><path d="m351.38556 340.2734h-32.65625l32.65625 114.96875 32.6875-114.96875z" fill="#de1010"/><g fill="none" stroke-linecap="round" stroke-linejoin="round" transform="translate(113.030301 6.879181)"><g stroke="#ffe600" stroke-width="1.6"><path d="m245.57059 369.31774 8.63332 10.20583"/><path d="m248.11083 365.20556 10.81734 6.72198"/><path d="m249.26265 361.28089 10.94234 3.05062"/><path d="m249.65912 357.10906 13.49868-1.86788"/><path d="m248.76803 352.93627 16.92732-7.90615"/></g><g stroke="#ffb400" stroke-width=".8"><path d="m247.67064 367.88451 4.61804 3.29588"/><path d="m249.52338 363.33674 5.19126 2.24002"/><path d="m250.35198 359.10146h5.12876"/><path d="m249.86271 354.86761 5.87339-1.61883"/></g><g stroke="#ffe600" stroke-width="1.6"><path d="m247.58224 350.39753 21.89943-15.62929"/><path d="m245.83027 347.01872 8.94092-10.60913"/><path d="m243.46074 343.25002 4.1277-8.01522"/></g><g stroke="#ffb400" stroke-width=".8"><path d="m245.65124 344.03214 3.30366-5.11891"/><path d="m248.00014 347.59565 4.61994-3.97157"/><path d="m241.4724 340.55079 1.8351-5.80945"/></g><g stroke="#ffe600" stroke-width="1.6"><path d="m231.49887 367.85637-9.32083 11.58082"/><path d="m229.58362 364.49417-11.62984 6.97197"/><path d="m228.3068 361.13202-12.12984 3.11312"/><path d="m227.28535 357.02269-13.93617-1.86788"/><path d="m228.05144 353.16241-17.36483-8.21865"/><path d="m229.72201 350.42142-21.83693-15.5668"/></g><g stroke="#ffb400" stroke-width=".8"><path d="m229.71131 366.73564-5.61803 4.35838"/><path d="m227.79607 362.87537-6.12876 2.61502"/><path d="m227.02998 359.01509c-.51073 0-6.12876 0-6.12876 0"/><path d="m226.51925 354.78123-5.8734-1.61882"/></g><path d="m231.5761 347.55145-9.98495-9.62688" stroke="#ffe600" stroke-width="1.6"/></g><g stroke="#694a02" transform="translate(122.5303 -4.620819)"><path d="m232.33792 384.67468c-.45256-3.02497 8.96636-9.63074 2.1551-18.90311-1.51151 3.96646 1.74888 6.63709-2.38534 12.15073 3.50193-8.22521-.11472-6.51629 2.12694-13.03497 1.06217-5.18004-1.051-9.03958-4.6467-11.40015.96687 9.09039-6.1204 6.94932-5.125 16.375-.57847-2.45833-.71139-4.91667-.625-7.375-7.83924 12.82022.2958 11.05602 1 22.125.46805-.07738.77172.30642.81384-.37655.16552-3.85768-.73678-5.42714-2.02637-11.04676 1.05416 3.612 3.49221 6.82744 3.12483 11.45734.64056.09725.98696.08375 1.85445-.10533.26241-7.26495-4.30612-10.8357-.91682-17.8869-1.83673 7.45166 2.05934 11.55584 1.93725 18.00959l.65632.00192c.05759-3.66733.21847-5.85131 1.23377-6.97915-.41087 2.80399-.38618 4.25588-.29642 6.98376z" fill="#fef600" stroke-width=".4"/><g stroke-linejoin="round"><g stroke-width=".5" transform="translate(-9.499999 11.5)"><g fill="#fff700"><path d="m238.37088 426.61012-2.61479-.01121c-.95255-16.57292-1.22415-33.14583-6.15625-49.71875l8.77104.01121 8.77105.0112c-4.9321 16.57292-5.2037 33.14583-6.15625 49.71875z"/><path d="m238.37089 376.83741 9.63024.08225c-2.01097-4.16027-5.60211-4.59147-9.63024-4.58225-4.02814-.04872-7.61928.38248-9.63025 4.54275z"/><path d="m238.37088 437.45931c2.98871-3.22516 3.87488-7.30657 2.35469-7.41589-.69008-.04963-1.6238-.06047-2.35469-.08411-.73089.01361-1.66461.02445-2.35468.07408-1.5202.10932-.63401 4.20075 2.35468 7.42592z"/><path d="m238.37089 430.63064c3.34925-.03653 4.9712-2.38071 3.26412-3.74952-.5701-.45713-2.66159-.31992-3.26412-.32592-.60253-.00601-2.69402-.13217-3.26412.32496-1.70708 1.36881-.08513 3.71395 3.26412 3.75048z"/></g><g fill="none" stroke-linecap="round"><path d="m233.8614 378.65931c.82618 5.40827 1.29531 9.30573 1.1875 17"/><path d="m242.88038 378.65931c-.82618 5.40827-1.29531 9.30573-1.1875 17"/></g></g><g fill="#fff700" stroke-linecap="round"><path d="m228.87088 390.4435v40.39982" stroke-width="1.4"/><path d="m220.68533 386.62781h1.36343"/><path d="m235.63485 386.62781h1.36343"/></g></g></g><path d="m351.26696 461.07762c-6.22172-.36709-49.06251-17.88246-48.66051-60.48348v-60.4835h48.66051 48.66054v60.4835c.402 42.60102-42.43878 60.11639-48.66054 60.48348z" style="fill:#fff;stroke:#000;stroke-width:.728861;stroke-linecap:round;stroke-linejoin:round;display:block"/><g fill="#012169" transform="translate(113.0303 6.879181)"><g><path d="m286.65084 390.88028c.17253-1.86507.32342-5.29807.08839-8.8705-8.42253 6.42757-11.51641-8.77349-20.55473-.22541-6.06585 5.73684-8.03934-1.70838-12.09771-1.14684s-3.63649 9.38026.42188 8.81872 5.60998 6.75868 11.67583 1.02184c9.03832-8.54808 12.04381 6.82976 20.46634.40219z"/><path d="m189.64573 380.75496c-.17253 1.86507-.05826 5.12129.17677 8.69372 8.42253-6.42757 11.07447 9.17124 20.11279.62316 6.06585-5.73684 8.03934 1.70838 12.09771 1.14684s3.63649-9.38026-.42188-8.81872-5.60998-6.75868-11.67583-1.02184c-9.03832 8.54808-11.86703-7.05073-20.28956-.62316z"/></g><g><path d="m286.92387 364.9832c.17253 3.07243.04752 3.72608-.00001 8.52865-8.42253 6.42757-11.09973-9.01068-20.28512-1.06066-1.77483 1.2762-3.78885 3.7573-5.69284 1.35855s-.98878 1.13002-1.8125-6.59115 1.01901 2.17289 7.50534-3.29605c9.1854-7.95002 11.8626 7.48823 20.28513 1.06066z"/><path d="m189.90303 371.7265c-.17253-3.07243-.04752-3.72608.00001-8.52865 8.42253-6.42757 11.09973 9.01068 20.28512 1.06066 1.77483-1.2762 3.78885-3.7573 5.69284-1.35855s.98878-1.13002 1.8125 6.59115-1.01901-2.17289-7.50534 3.29605c-9.1854 7.95002-11.8626-7.48823-20.28513-1.06066z"/></g><g><path d="m286.72751 346.90058c.24661 2.05771.15822 6.0264.04419 8.38811-8.42253 6.42757-11.09973-9.01068-20.28512-1.06066s-9.22958-.43809-.04419-8.38811 11.86259 7.48823 20.28512 1.06066z"/><path d="m189.79003 354.03763c-.24661-2.05771-.06983-5.98221.0442-8.34392 8.42253-6.42757 11.3207 8.96649 20.50609 1.01647s9.22958.43809.04419 8.38811-12.17195-7.48823-20.59448-1.06066z"/></g></g><path d="m351.38556 340.2734h-32.65625l32.65625 114.96875 32.6875-114.96875z" fill="#de1010"/><path d="m351.26697 461.07762c-6.22174-.36709-49.06253-17.88246-48.66052-60.48348v-60.4835h48.66052 48.66053v60.4835c.402 42.60102-42.43879 60.11639-48.66053 60.48348z" style="fill:none;stroke:#000;stroke-width:.728861;stroke-linecap:round;stroke-linejoin:round;display:block"/><g fill="none" stroke-linecap="round" stroke-linejoin="round" transform="translate(113.030301 6.879181)"><g stroke="#ffe600" stroke-width="1.6"><path d="m245.57059 369.31774 8.63332 10.20583"/><path d="m248.11083 365.20556 10.81734 6.72198"/><path d="m249.26265 361.28089 10.94234 3.05062"/><path d="m249.65912 357.10906 13.49868-1.86788"/><path d="m248.76803 352.93627 16.92732-7.90615"/></g><g stroke="#ffb400" stroke-width=".8"><path d="m247.67064 367.88451 4.61804 3.29588"/><path d="m249.52338 363.33674 5.19126 2.24002"/><path d="m250.35198 359.10146h5.12876"/><path d="m249.86271 354.86761 5.87339-1.61883"/></g><g stroke="#ffe600" stroke-width="1.6"><path d="m247.58224 350.39753 21.89943-15.62929"/><path d="m245.83027 347.01872 8.94092-10.60913"/><path d="m243.46074 343.25002 4.1277-8.01522"/></g><g stroke="#ffb400" stroke-width=".8"><path d="m245.65124 344.03214 3.30366-5.11891"/><path d="m248.00014 347.59565 4.61994-3.97157"/><path d="m241.4724 340.55079 1.8351-5.80945"/></g><g stroke="#ffe600" stroke-width="1.6"><path d="m231.49887 367.85637-9.32083 11.58082"/><path d="m229.58362 364.49417-11.62984 6.97197"/><path d="m228.3068 361.13202-12.12984 3.11312"/><path d="m227.28535 357.02269-13.93617-1.86788"/><path d="m228.05144 353.16241-17.36483-8.21865"/><path d="m229.72201 350.42142-21.83693-15.5668"/></g><g stroke="#ffb400" stroke-width=".8"><path d="m229.71131 366.73564-5.61803 4.35838"/><path d="m227.79607 362.87537-6.12876 2.61502"/><path d="m227.02998 359.01509c-.51073 0-6.12876 0-6.12876 0"/><path d="m226.51925 354.78123-5.8734-1.61882"/></g><path d="m231.5761 347.55145-9.98495-9.62688" stroke="#ffe600" stroke-width="1.6"/></g><g stroke="#694a02" transform="translate(122.5303 -4.620819)"><path d="m232.33792 384.67468c-.45256-3.02497 8.96636-9.63074 2.1551-18.90311-1.51151 3.96646 1.74888 6.63709-2.38534 12.15073 3.50193-8.22521-.11472-6.51629 2.12694-13.03497 1.06217-5.18004-1.051-9.03958-4.6467-11.40015.96687 9.09039-6.1204 6.94932-5.125 16.375-.57847-2.45833-.71139-4.91667-.625-7.375-7.83924 12.82022.2958 11.05602 1 22.125.46805-.07738.77172.30642.81384-.37655.16552-3.85768-.73678-5.42714-2.02637-11.04676 1.05416 3.612 3.49221 6.82744 3.12483 11.45734.64056.09725.98696.08375 1.85445-.10533.26241-7.26495-4.30612-10.8357-.91682-17.8869-1.83673 7.45166 2.05934 11.55584 1.93725 18.00959l.65632.00192c.05759-3.66733.21847-5.85131 1.23377-6.97915-.41087 2.80399-.38618 4.25588-.29642 6.98376z" fill="#fef600" stroke-width=".4"/><g stroke-linejoin="round"><g stroke-width=".5" transform="translate(-9.499999 11.5)"><g fill="#fff700"><path d="m238.37088 426.61012-2.61479-.01121c-.95255-16.57292-1.22415-33.14583-6.15625-49.71875l8.77104.01121 8.77105.0112c-4.9321 16.57292-5.2037 33.14583-6.15625 49.71875z"/><path d="m238.37089 376.83741 9.63024.08225c-2.01097-4.16027-5.60211-4.59147-9.63024-4.58225-4.02814-.04872-7.61928.38248-9.63025 4.54275z"/><path d="m238.37088 437.45931c2.98871-3.22516 3.87488-7.30657 2.35469-7.41589-.69008-.04963-1.6238-.06047-2.35469-.08411-.73089.01361-1.66461.02445-2.35468.07408-1.5202.10932-.63401 4.20075 2.35468 7.42592z"/><path d="m238.37089 430.63064c3.34925-.03653 4.9712-2.38071 3.26412-3.74952-.5701-.45713-2.66159-.31992-3.26412-.32592-.60253-.00601-2.69402-.13217-3.26412.32496-1.70708 1.36881-.08513 3.71395 3.26412 3.75048z"/></g><g fill="none" stroke-linecap="round"><path d="m233.8614 378.65931c.82618 5.40827 1.29531 9.30573 1.1875 17"/><path d="m242.88038 378.65931c-.82618 5.40827-1.29531 9.30573-1.1875 17"/></g></g><g fill="#fff700" stroke-linecap="round"><path d="m228.87088 390.4435v40.39982" stroke-width="1.4"/><path d="m220.68533 386.62781h1.36343"/><path d="m235.63485 386.62781h1.36343"/></g></g></g></g><g stroke="#000" stroke-linecap="round" stroke-width=".601" transform="translate(-154.14928 -17.67767)"><g fill="#ee1d17"><path d="m284.72865 509.7242c2.02149.47159 3.76907 2.5499 4.81717 6.18718.57707-3.19581 1.64996-6.01662.08839-9.32498-3.68335-.89413-4.72053 1.00006-4.90556 3.1378z"/><path d="m289.89937 506.71899c.18421-.25987 3.05877 3.59188 3.71231 8.39689 2.65657-1.84195 1.88741-5.38075 1.01647-9.32497-1.18713.24676-2.99688.35445-4.72878.92808z"/><path d="m295.24687 505.61413c1.13578 2.5176 2.76765 5.15783 3.31456 8.26431 1.23071-2.66282 1.85697-5.58938.57453-9.19239z"/><path d="m331.97797 441.74727c.18673 1.80539 1.66922 5.10028-5.17646 4.24892 5.21931 3.23891 8.64124 3.72843 8.48566-3.24096z"/><path d="m336.31972 444.4507c.55553 3.87912-.05057 6.65541-1.78423 8.57236 3.837-.51808 6.55828-2.23452 5.92202-7.5572z"/><path d="m341.82439 445.56941-.97802 4.17126c3.00934-.36389 2.85438-1.78254 4.25153-2.68382z"/></g><path d="m276.90794 403.19601c-27.5378-7.48129-1.61169-23.95683-11-29.875 16.61536 7.6072-2.41289 12.85474 11 29.875z" fill="#ffc718"/><path d="m288.30838 498.94082c4.84098.37234 11.59397-3.12278 11.62307 6.98268-1.87931-.48255-3.30174.22613-4.24264 1.14905-.60539-6.24867-4.68377-5.75191-7.38043-8.13173z" fill="#ffc618"/></g><g transform="translate(-119.357428 26.179523)"><g stroke="#000" stroke-linecap="round" stroke-width=".601"><g fill="#ee1d17"><path d="m307.97657 438.00671c1.32135 1.84469 2.5892 3.15898 3.5 5.25-.33239-2.57937-.02312-5.54583-1.59375-6.5z"/><path d="m298.57032 444.00671c2.69413.51216 4.40628 2.8246 6.125 5.125.13055-3.17704.13384-6.37104-2.1875-9.875-2.36049.66634-4.21925 1.77169-3.9375 4.75z"/><path d="m304.41407 440.75671 3.90625 5.375c.71715-2.50077.44949-4.9159-.75-7.25z"/></g><path d="m269.87148 397.66394c8.11665.42497 5.47427-1.71281 11.375-.75 9.40367 2.74473 10.33043 9.11153 8.00436 18.12638-5.48625 13.61386-4.04564 11.39924 2.45553 13.62106 4.89243 1.67201 5.57656 5.63284 11.66511 3.00256 2.84914-1.23084 6.4175 2.68547 7.21875 5.8125-.90511.23069-1.56364.79015-1.96875 1.6875-1.50323-3.07513-3.32654-3.26951-5.0625-4.25 2.19217 1.12033 4.69985 1.92515 4.8125 5.125-1.45538-.20059-2.58627.45061-3.375 2-3.20008-4.05822.04521-6.36266-9.875-5.375 1.54248.36157 8.93203-2.36244 8.25 4.25-3.11187-.61854-4.24023.89158-3.9375 3.9375-1.72537 2.44186-10.74325 1.558-6.875-4.1875-1.27397 2.34836-1.73122 5.04341-4.875 6.3125-4.20943-4.06253-2.3782-4.78418-1.1875-8.3125-2.97733 10.17221-11.2112 4.25273-6.25-2.0625-5.15234 7.39483-9.59858 4.91228-12.125.375 8.93944-.86967 4.71894-3.34781 9.375-3.0625-5.97345.69367-9.68091-7.51289-2.9375-12-.17471-6.50285.82012-8.18415-5.125-6.5625l-5.6875-20.75z" fill="#ffc718"/></g><path d="m272.6267 398.04795c1.45811-.33359 7.51612-2.08466 7.98411-1.11577l-6.08673 18.62977c-3.03875-1.3942-7.39001-1.11339-9.11626-2.42009 2.49033-3.36802 1.03062-15.19271 7.21888-15.09391z" fill="url(#j)"/><g stroke="#000" stroke-linecap="round" stroke-width=".601"><path d="m278.30359 424.90132c-4.39324 1.00381-1.26285 6.2167 3.125 5.125-1.02616 7.69232 2.59476 3.52196 7.875 6" fill="none"/><path d="m269.87148 397.66393c8.11665.42497 5.47427-1.71281 11.375-.75 9.40367 2.74473 10.33043 9.11153 8.00436 18.12638-5.48625 13.61386-4.04564 11.39924 2.45553 13.62106 4.89243 1.67201 5.57656 5.63284 11.66511 3.00256 2.84914-1.23084 6.4175 2.68547 7.21875 5.8125-.90511.23069-1.56364.79015-1.96875 1.6875-1.50323-3.07513-3.32654-3.26951-5.0625-4.25 2.19217 1.12033 4.69985 1.92515 4.8125 5.125-1.45538-.20059-2.58627.45061-3.375 2-3.20008-4.05822.04521-6.36266-9.875-5.375 1.54248.36157 8.93203-2.36244 8.25 4.25-3.11187-.61854-4.24023.89158-3.9375 3.9375-1.72537 2.44186-10.74325 1.558-6.875-4.1875-1.27397 2.34836-1.73122 5.04341-4.875 6.3125-4.20943-4.06253-2.3782-4.78418-1.1875-8.3125-2.97733 10.17221-11.2112 4.25273-6.25-2.0625-5.15234 7.39483-9.59858 4.91228-12.125.375 8.93944-.86967 4.71894-3.34781 9.375-3.0625-5.97345.69367-9.68091-7.51289-2.9375-12-.17471-6.50285.82012-8.18415-5.125-6.5625l-5.6875-20.75z" fill="none"/><path d="m276.45331 409.96138c-.8899-14.99474 11.59675-20.4501 11.49048-13.34664-.08528 5.61192-7.92129 3.11419-8.48528 23.59969" fill="#ffc718"/></g></g><g stroke="#000" stroke-linecap="round" transform="translate(-154.14928 -17.67767)"><g stroke-width=".601"><path d="m295.65794 403.82101c2.35246 13.53144-2.94903 29.61408-11.375 40.875-11.82251 15.80025-25.76374-2.20449-10.875-4 6.97338-.84095 10.5216-.99676 12-4.97227-5.04386-1.05473-11.21355-.89976-15.14017.14905 13.21662-2.46277 16.98587-3.56251 19.01517-10.17678-4.82579.5607-9.72746 1.34904-15.25 4 4.77324-6.74718 8.71691 2.59909 20.05806-14.35355-4.88721-7.6714-9.38065 3.16446-14.05806 5.35355 9.71678-15.69677 2.37722-25.50972-8.125-32.25-.93746 5.61456.07214 10.00559 3.375 13.5-11.77985-7.12039-17.59362 11.09813-3.875 11-4.70408-9.44802 11.64123-7.28066-.125 7.75-7.23708 9.24494-19.7301 31.16372-7.25 37-5.4134.29263-9.9746 5.45678-6.875 14.5 10.40019-15.24874 6.96734-3.05109 12.125-15.625-4.73992 10.38891-.21516 11.29768 5 11.5-5.43664-12.50329 7.07228-2.23693 15.25-23.375-8.25267 17.03613-3.79504 9.89091-5 22.125-7.20323 4.62436-13.56226 1.8379-12.375 11-3.12083 2.11948-9.94952 7.7116-3.75 13 2.2461-5.66275 5.3305-6.79863 8.75-6.125-10.91243-1.24504-11.10253 15.66437-3.75 15.25.92183-2.84807 2.01222-5.18362 4-7.25-6.54311 8.18891-3.73077 12.15438 1.75 12.875.17751-3.06454 1.4211-5.22702 3.125-7-4.75407 5.69726-3.84538 8.99738 3.5 12.125.26229-2.49326 1.52313-3.67027 4.375-2.75.66532-2.95141-1.81772-4.6919-4.125-6.5 1.90643 1.74137 4.47368 3.08419 4.625 6.47097 1.63433-.71766 3.16965-.87227 4.6875-.58958.02269-9.22005-9.19494-5.62359-9.0625-20.00639.159-17.35513 17.60454-10.01295 19.96339-31.125.58916-5.27305-4.34818-6.48271-4.08839-14.75-.25197 10.42813 8.25379 10.644 4.25-2.75-2.30258-7.70288 12.27027-9.12528 16.125-23.625l-23.375-22.75z" fill="#ffc718"/><path d="m317.15794 415.25851c-3.03348 5.94489-8.6195 11.21923-16.125 15.6875" fill="none"/><path d="m326.15794 394.57101c11.83947 19.74855 27.58139 51.75587 17.875 53.5-4.46356.80205-1.25261-5.88255-1.5-9.375 0 0-.243 2.87874-.625 4.875-.8919 4.66094-5.00551 4.39312-6.0625.6875-.15241-.53432 2.1875-9.9375 2.1875-9.9375s-1.6063 6.66424-2.6875 8.53125c-1.25928 2.17451-5.64796-.75072-6.3125-3.40625-.74543-2.97878 4.75-8.875 4.75-8.875-2.91823 3.36239-4.89536 6.17226-7.875 2.25-4.21146-5.54377 2.75333-7.02289 5.5-10.25-4.1819 3.30281-7.42297 7.0799-10.625 3.25-3.49606-4.18157 3.30788-6.08333 6.5-9.125l-8 5.875c-.86449-2.7988.22057-4.52198 1.75-6l-10.125.25c.45062-4.33113-3.10682-7.5171-4.75-11.25l.625-16.75 16.125 1z" fill="#fec717"/><path d="m317.091 360.72466c-.32987 4.95486 4.56529 3.61509 4.53701 1.25129-.02486-1.99924-.87428-3.64163-4.97007-2.90494-3.54747.63806-2.76184-5.44772-9-4.375-7.59594.6838-8.9166-2.92813-10.875-5.25-2.52278 2.02651-2.68076 4.39084.625 7.25-2.11326-.37676-3.63597-1.54093-4.75-3.25-3.64681 3.40773-2.68224 8.05727 2.375 7.375-3.66262-.34533-7.02754.33148-7.80554.88091-5.10538 3.60551-1.16275 17.28412 8.43054 11.11909-8.62589 2.93705-5.68605 9.90697-13.5 13.125 2.45837 7.25095 6.66151 1.47559 10.375.75-8.50913 5.71732-4.19497 9.27503-4.25 16.25 3.81148-1.48302 4.45183-5.68414 6.125-9-.64481 6.11714-.83262 13.37677-3.375 14.75 8.89061 4.02886 11.67442-6.41721 9.125-12.125 3.645 8.12151 2.63132 12.99278-.875 16.125 16.1325 3.73129 9.75047-10.4616 10-19.375 1.56991 12.93009 12.18202 9.31798 9.75 19.5 6.50282-1.36177 13.40782-9.4233.125-20.5 5.60266 3.31329 9.97801 8.18063 13.93934 14.61244 3.03801-17.53219-6.01145-22.98234-15.81434-24.39369v-10.59375c5.77277-8.95556-.86389-6.5271-.19194-11.22135z" fill="#fec617"/><g fill="none"><path d="m294.53976 461.68513c7.10398 3.00688-1.04016 7.72383-5.83363 12.06501"/><path d="m284.50768 466.76746c1.57336 11.12518-9.18573.09283-6.23138 14.18633"/><path d="m273.08349 485.06385c1.15506-.51524 2.45905-.5833 4.22054-.34251-.49429 9.09436-.0981 7.99441 6.27557 10.94911"/><path d="m277.24879 484.644c.83617-.50936 1.22727-1.00582 1.00542-2.13237"/><path d="m295.28294 436.72726c2.44993.00876.67845 2.81721 1.84375 3.96875"/></g></g><path d="m296.22044 367.44601c-5.58446-6.66393-8.61865 5.64327.01562.04687z" fill="#020200" stroke-width=".401201"/><path d="m300.47044 358.97726c3.09653 4.6297 4.17755-1.62058 8.15089-1.59061 4.50499.03398 2.94657 4.411-.40089 4.34061-3.04636.18545 2.45201-2.7143-2.0625.09375" fill="none" stroke-width=".601"/><path d="m317.37669 382.47726c-1.83871.62762-2.85326-.0738-3.42477-1.00113-.37243-.60429-.50587-1.22824-.73148-1.90512.3064.88222.92837 2.22098.45297 1.99267-.4922-.23638-2.21918.42738-3.16463-.096-.53632-.29689-.86862-1.11556-1.41334-1.89667.59482.94911 1.2976 1.9306 1.18459 1.9233-.62647-.04047-2.28074.48206-3.09911-.11498-.61449-.4483-.5574-.92343-1.02298-1.93332.43072 1.12335.4017 1.18441.57307 1.58695.78657 1.84767-7.62497-.0821-6.89601-2.28139.24346-.73452 2.88853-1.64735 3.96755-2.53411-.61651.73609-3.29093 1.61198-3.75906 2.25707-.83777.49863-.3086-3.73658.49502-4.5943.35729-.38134 3.01764-.59935 3.9042-.77261-1.03529.12121-4.17421 1.1338-4.00891.45316.22957-.94532.61141-3.25715.76973-4.26594.09244-.58898 1.04765-.36503 1.87046-.59883-.83304-.14579-1.6435.55012-1.70656.12398-.2009-1.35765-.3402-5.97023-2.38627-7.42392" fill="none" stroke-width=".601"/><path d="m316.20344 373.22726c.0625 3.76825-2.955 3.59375-5.07675 3.59375s-3.90625-.513-3.90625-2.53125 2.83-5.46875 5.95175-5.46875c2.12175 0 3.09375 1.888 3.03125 4.40625z" opacity=".99" stroke-linejoin="round" stroke-width="1.045129"/><path d="m312.69271 372.25851c4.87674-.04472 3.2425 2.53539 3.68697.6477-1.09099 3.00713 6.88487-.72856 7.59076-4.0227.98834 7.97477-7.50703 8.89011-7.84509 6.48885-1.54367 1.0696-2.80851 1.33695-4.0898.64687-1.12622-.60656-.62177-3.7491.65716-3.76072z" fill="#f01818" stroke-width=".601"/><path d="m371.21875 342.61218c0 .22437-.58763.40625-1.3125.40625s-1.3125-.18188-1.3125-.40625.58763-.40625 1.3125-.40625 1.3125.18188 1.3125.40625z" fill="#020200" opacity=".99" stroke-linejoin="round" stroke-width=".013605" transform="matrix(2.00393 -.5446209 .297579 3.6675377 -534.85223 -694.70749)"/></g><path d="m216.55402 352.80612c-1.69966 4.13562-3.82111 7.97441-8.66206 9.8995.15094-3.44348-.54129-7.11691 2.03293-9.8995-2.4441 3.53772-5.69053 5.73822-10.25305 5.74524-.15784-3.43284 1.51351-6.17186 4.77297-8.3085-2.82393 1.17431-4.44824 2.66562-6.8059 1.06066.46235-2.74848 3.30527-3.27512 5.39169-4.50781-3.219 1.65217-6.53338 2.589-9.98789 2.47489l-11.49048 8.13171-7.33623-2.29809c-3.14293-8.7905 3.92669-9.69994 10.6066-12.1092-8.35979-2.45868-21.96749-2.22724-25.10229-7.86656 1.2369-.59088 2.65219-.64657 4.24264-.17678-5.98061-4.74994-5.68532-7.20867-4.33103-9.28077 4.33829-.20945 7.81292 3.46758 11.22532 7.42461-2.12358-3.49488-6.51209-6.40086-3.18198-11.31371 3.82268.82741 6.30543 7.55181 9.45755 11.4021-4.42896-7.55953-7.11289-16.13361-16.26345-20.94804l2.74004-6.01041 7.68978.53034c10.09009 6.50994 9.56659 15.62674 13.7002 23.59969-1.47527-7.86947-2.17764-15.61149 3.80069-18.64995 1.45932 1.85815 1.25242 4.22897 1.23744 6.54074.73469-4.70835 3.82443-6.60876 7.6014-7.68978 2.98101 6.21634-.00295 9.56492-3.00521 12.9047 2.61991-1.90382 5.04929-5.33192 8.22012-2.82843.01796 2.76801-2.68476 4.34374-5.21491 6.09879l-4.15425 2.20972.26516 4.59619 4.5962 2.29809 10.6066 4.15426z" fill="#fff"/><g fill="#d6f7ff"><path d="m167.66585 315.59798c-12.38802-7.7606 7.6018-12.91392 5.9375-1.43749-.23983 1.64476-4.38292 2.41138-5.9375 1.43749z"/><path d="m171.47835 319.47298c-1.50981-2.01138 2.71054-3.56159 3.25-2.75.55663.83743-2.48236 3.77267-3.25 2.75z"/><path d="m166.10335 329.97298c-2.00792 1.71122-.60274 8.84826 1.5 7.375 2.19746-1.53963-.06875-8.59476-1.5-7.375z"/><path d="m181.29085 331.47298c-8.92354 3.50413-7.7844 7.77958 1.375 2.4375 1.72047-1.00344 12.77309-7.99319-1.375-2.4375z"/><path d="m190.79085 336.66049c-1.95833-.5-4.31349-3.40743-5.375-3.5-.73026-.0637-5.24633 3.60404-5.1875 4.24999.05109.56095 4.01867.51302 5.4375 4.3125 3.27412-1.6875 3.41667-3.375 5.125-5.06249z"/><path d="m189.85335 340.34798c-3.91749 2.29085-6.01195 4.3898-5.72639 5.38446.28827 1.00408 4.36862-1.73503 6.47639.61554 3.64421-3.68749 6.77881-7.5-.75-6z"/><path d="m205.54085 340.16049 10.8125 12.5c-2.51943 3.08777-9.23734 5.49161-5.25-1.5-1.29756 3.30716-8.75913 2.07927-2.625-5-6.16103 7.88563-7.86074-1.12041-2.9375-6z"/></g><g stroke-linecap="round" stroke-linejoin="round" stroke-width=".601"><g fill="none"><g stroke="#000"><path d="m208.85335 347.72298-1.125 1.3125"/><path d="m172.29085 334.16049 1.5 1.06249"/><path d="m165.65903 335.60833 1.70114.72931"/><path d="m189.86376 319.85556-.20832 1.29736"/><path d="m189.35335 322.59798-.3125 1.75"/></g><g stroke="#959595"><path d="m188.91585 325.72298-.1875 1.43751"/><path d="m194.10335 324.16049c-.36143.4327-.84865 1.71415-.88128 2.49686"/></g></g><g fill="#5a5a5a" stroke="#5a5a5a"><path d="m187.47539 333.78804-1.6816-1.94262"/><path d="m171.04381 337.29345c-.48609.14691-.9719.27717-1.44342-.45344"/><path d="m173.29085 338.16049 1.6875.43749"/><path d="m180.60335 337.66049 1.25 1.12499"/><path d="m183.60335 340.72298c.7272.13484 1.43699.35672 2 1.3125"/></g></g><path d="m169.54085 327.53548c-.20873-3.60899-1.62907-3.04819-1.5-.125.24306 5.50471 1.60077 1.86737 1.5.125z" fill="#d6f7ff"/><path d="m216.55402 352.80612c-1.69966 4.13562-3.82111 7.97441-8.66206 9.8995.15094-3.44348-.54129-7.11691 2.03293-9.8995-2.4441 3.53772-5.69053 5.73822-10.25305 5.74524-.15784-3.43284 1.51351-6.17186 4.77297-8.3085-2.82393 1.17431-4.44824 2.66562-6.8059 1.06066.46235-2.74848 3.30527-3.27512 5.39169-4.50781-3.219 1.65217-6.53338 2.589-9.98789 2.47489l-11.49048 8.13171-7.33623-2.29809c-3.14293-8.7905 3.92669-9.69994 10.6066-12.1092-8.35979-2.45868-21.96749-2.22724-25.10229-7.86656 1.2369-.59088 2.65219-.64657 4.24264-.17678-5.98061-4.74994-5.68532-7.20867-4.33103-9.28077 4.33829-.20945 7.81292 3.46758 11.22532 7.42461-2.12358-3.49488-6.51209-6.40086-3.18198-11.31371 3.82268.82741 6.30543 7.55181 9.45755 11.4021-4.42896-7.55953-7.11289-16.13361-16.26345-20.94804l2.74004-6.01041 7.68978.64083c6.79648 2.43213 9.56659 15.51625 13.7002 23.4892-1.47527-7.86947-2.17764-15.61149 3.80069-18.64995 1.45932 1.85815 1.25242 4.22897 1.23744 6.54074.73469-4.70835 3.82443-6.60876 7.6014-7.68978 2.98101 6.21634-.00295 9.56492-3.00521 12.9047 2.61991-1.90382 5.04929-5.33192 8.22012-2.82843.01796 2.76801-2.68476 4.34374-5.21491 6.09879l-4.15425 2.20972.26516 4.59619 4.5962 2.29809 10.6066 4.15426z" fill="none" stroke="#000" stroke-linecap="round" stroke-linejoin="round" stroke-width=".601"/><g stroke="#000" stroke-linecap="round" stroke-width=".601" transform="translate(-333.72462 .199057)"><g fill="#ee1d17"><path d="m535.25774 368.81089 2.85053 4.33103-.0884-5.65686z"/><path d="m539.58877 368.36895c-.23757 1.84879.47574 3.16725 1.28164 5.01604.56269-2.0403.77631-4.0806.99436-6.1209z"/><path d="m543.32318 367.2199c-.13691 1.45104-.17243 2.85789.0442 4.30893 2.25015-1.32951 2.63365-2.7474 2.1876-3.31456z"/></g><path d="m528.02382 359.31703c4.49264-1.04707 9.60164-.75451 15.70946 1.75226 3.26561 1.34027 2.23898 4.69812 2 7.5-.62453-.4872-1.3782-.6731-2.5 0 .07478-2.56303-1.66376-4.60797-2.625-6.875.75423 2.41667 2.44558 4.83333 1.375 7.25-.92949-.86541-1.73627-.6264-2.5 0-.53989-4.67565-2.77606-5.20482-4.75-6.375 2.44693 1.6078 4.42185 3.36577 3.25 6.125-1.03115-.10923-2.08094-.22883-2.13672 1.125-1.79189-2.4853-3.60582-4.92883-5.88672-5.62109" fill="#fec717"/></g><path d="m265.56512 334.60323c10.88401-6.37167-4.00707-9.77423-3.02136-17.06263 2.18843.11403 4.42002.04102 6.125 2.25-3.5252-3.52115-4.91097-7.14664-1.625-11 2.68216.1755 5.01893 1.4304 6.375 5.75.59533-2.20066 1.70458-3.7472 4.125-3.62501 5.7842 4.06663 2.33112 8.26161.75 16 3.51416-12.1677 5.24069-26.51681 22.5-23.84945-7.37504 7.30356-11.20409 16.73283-16.5 25.22446 5.16306-3.83844 9.76225-8.47289 17.625-8.5.51324 1.92071.70957 3.88672-4.5 6.62499 3.78743-.94357 7.61973-3.36781 11.25.87501-3.03641 3.9587-6.606 3.65198-10.125 3.75 3.63722.338 5.94301 2.2072 6.25 6.37499-11.54053-3.33691-13.65215.53603-29.28125.79689 3.66374 1.63743 9.15632 3.65554 11.125 8.375l.03125 5.82811-2.5 4.12501-14.375-4.37501c-2.625-.47463-5.25-2.22086-7.875-4 .13605 4.62287-1.97123 7.56324-3.75 10.75l-14.125-12.75 9.75-9.25z" fill="#fff"/><g fill="#d6f7ff"><path d="m263.50247 337.89078c.96572-.04622 5.78111 2.0481 5.78111 2.0481-.72937-4.12711 4.16143-.82977 5.59688.8333.72336.83805 2.23484.0919 2.1633 1.20592-.12312 1.91692-5.98283 1.54556-8.875 2.3125-1.73119.45904-11.55817-6.07008-4.66629-6.39982z"/><path d="m278.60625 325.41559c-12.1028-3.66929-4.14933 6.92882-11.21912 10.66161 4.57219-.68672 6.63106 2.33384 11.84412-2.41161 2.74822-2.50171-6.33839.29277-.625-8.25z"/><path d="m297.66876 326.2281c1.23588-1.90342 1.67681-4.55652-1.625-3.6875-3.98164 1.04791-1.39619 3.09915.125 4.3125-2.87889 3.34724 1.1845 6.64761 2.3125 7.625.83927.72719-.25001-3.375-.25001-3.375 2.03384-1.88179 3.10841-4.7717-.56249-4.875z"/><path d="m287.85625 311.5406c-.81845-.9728 2.59675-2.63063 5.53667-4.08634 10.06041-5.38298 2.47307-4.8667-2.27522-2.8669-1.50881.58494-2.77268 1.54617-4.82394 3.95322-3.06513 3.59678-2.85732 7.03318.125 6.75002 5.02967-.47756 3.58063-1.20278 1.43749-3.75z"/></g><g stroke-linecap="round" stroke-linejoin="round"><g stroke-width=".601"><g fill="none" stroke="#000"><path d="m273.93372 316.42039.10136 1.55919"/><path d="m274.15359 319.5772-.03125 1.53124"/><path d="m269.57187 321.28836.46874 1.84376"/><path d="m295.83983 327.20928-1.4886.57867"/><path d="m292.32901 328.62052-1.38295.46514"/><path d="m277.35313 328.74174-.76963 1.13428"/><path d="m277.60625 334.7281-1.31249 1"/></g><g stroke="#5a5a5a"><path d="m274.19021 322.77229-.125 1.43748" fill="#5a5a5a"/><path d="m292.44813 331.45636c.66583.63113 1.43166.39606 2.23464-.16083" fill="none"/><g fill="#5a5a5a"><path d="m270.98126 335.2281 1.62499-1.6875"/><path d="m273.77098 332.64988 1.34107-1.5507"/></g></g><path d="m265.56512 334.60322c10.88401-6.37166-4.00707-9.77422-3.02136-17.06262 2.18842.11404 4.42002.04102 6.12499 2.24998-3.5252-3.52112-4.91096-7.14662-1.62499-11 2.68216.17553 5.01893 1.43042 6.37499 5.75002.59533-2.20065 1.70459-3.74721 4.12501-3.62501 5.78419 4.06663 2.33112 8.26162.74999 16 3.51417-12.1677 5.29593-26.11907 22.55524-24.07042-7.37504 7.30355-11.25933 16.9538-16.55524 25.44541 5.16307-3.8384 9.76227-8.47287 17.625-8.5.51324 1.92074.70957 3.88674-4.5 6.62501 3.78743-.94356 7.61973-3.36781 11.25.87499-3.03641 3.95872-6.60599 3.65201-10.12499 3.75002 3.63722.338 5.94301 2.2072 6.24999 6.37499-11.54052-3.33692-13.65214.53605-29.28125.79689 3.66375 1.63744 9.57616 3.65554 11.1029 8.375l.05335 5.82811-2.5 4.12501-14.375-4.37501c-2.625-.47463-5.24999-2.22085-7.875-4 .13606 4.62287-1.97122 7.56324-3.75 10.75l-14.12499-12.75 9.74999-9.25z" fill="none" stroke="#000"/></g><g stroke="#000"><path d="m306.33471 475.08546c-15.62125.67392-13.95723 2.72412-16.79379 5.74524 1.81294-2.19775 9.00842-1.86873 13.70019-3.80069-5.44231 2.36726-8.26852 5.47277-9.8111 8.97141 4.38293-3.03164 7.82907-5.44437 12.55115-7.91075-1.54691 1.00662-7.27854 3.79387-6.49655 7.15945 4.94975-4.40905 12.50695-6.32124 16.48443-7.46881z" fill="#008e8e" stroke-width="1.001"/><path d="m304.18645 458.10154c-3.63856-.06259-6.33482 23.91852 13.78858 19.7106-1.1041-8.51025-2.32103-16.95782-13.78858-19.7106z" fill="#fff" stroke-width=".601"/></g></g><path d="m304.71678 458.89703c-1.01071 17.13067 1.16171 16.47474 11.71145 16.88218-.84926-8.55302-4.38544-14.68815-11.71145-16.88218z" fill="#adadad"/><path d="m315.62423 433.48704c-11.42957 13.8653-4.39247 37.50287 2.5 46.125 3.96165-.07292 8.36103-.11458 12 .09375 2.90047-1.70485 5.645-4.62751 7.875-7.59375l-2.875-34.5z" fill="#fff" stroke="#000" stroke-linecap="round" stroke-linejoin="round" stroke-width=".601"/><path d="m315.40548 475.79954c13.69382 2.17426 9.09039-10.91783 10.57672-19.18844.13331-2.14716-1.60837-7.74045-.92047-8.74906l4.375-7.625 3.625 3.6875 2.25 31.5-5.25 4.5-12.125-.125z" fill="#adadad"/><path d="m315.62423 433.49641c-11.42957 13.8653-4.39247 37.50287 2.5 46.125 3.96165-.07292 8.36103-.11458 12 .09375 2.90047-1.70485 5.645-4.62751 7.875-7.59375l-2.875-34.5z" fill="none" stroke="#000" stroke-linecap="round" stroke-linejoin="round" stroke-width=".601"/><path d="m298.98926 361.94554c-3.32757 26.20368-11.2402 17.83901-10.77193 43.25.48452 26.29311 9.24045 55.10204 22.5 58.375 12.83353-26.5871 8.33333-54.75 12.5-82.125l-5.76223-19.48219-10.42983-2.47487z" fill="#fff"/><path d="m299.17331 361.57834c-.64802 5.8578-1.71154 11.38896-3.74556 16.44034 1.62266-.76334 3.47122-.94472 5.55806-1.12784 8.93548.42771 5.74345 10.90106 11.64017 2.63702 1.22098-1.71116 8.48483-5.94952 8.48483-5.94952-1.41667-4.07623-2.83333-8.80676-4.25-13.3125z" fill="#fff700"/><path d="m288.98647 415.76911c9.30473-7.16497 8.60313 6.42288 24.66035-2.29811l-.17678 31.02432c-6.03987 3.0622-12.07974.58654-18.11961.61872-3.07643-9.78164-5.84455-19.56329-6.36396-29.34493z" fill="#ceefef"/><path d="m316.21008 434.24227c-10.0548 17.44599-16.86566 11.57535-21.30159-1.41421-.15607 3.84051.03194 7.14596 0 10.69499 2.67876 9.21718 9.38372 18.31997 15.82151 20.50609 3.79123-9.04507 9.72704-19.85791 5.48008-29.78687z" fill="#a5e7e7"/><path d="m291.90328 416.12266c5.79221 12.12961 11.82837 12.54453 16.79379 6.18718" fill="none" stroke="#000" stroke-linecap="round" stroke-linejoin="round" stroke-width="1.301"/><path d="m300.54721 376.92362c2.80587-1.53989 2.58135-10.98024 3.97747-9.40231 6.21283 7.02187 5.53285-.10801 6.89681 7.66925.18568 1.05268.42005 2.09017 1.54428 3.86543-6.37964 9.31255-2.95377-1.88138-12.41856-2.13237z" fill="#ffc618"/><path d="m300.72399 376.86838c9.81187-2.03146 4.56874 3.26612 12.24178 2.16551-5.91551 9.07405-3.18477-1.12675-12.24178-2.16551z" fill="#efad10"/><g stroke="#000" stroke-linecap="round" stroke-linejoin="round"><g stroke-width=".601"><path d="m299.00377 361.76811c-3.32757 26.20368-11.12971 18.39144-10.66144 43.80243.48452 26.29311 9.24045 55.10204 22.5 58.375 12.83353-26.5871 8.33333-54.75 12.5-82.125l-5.87272-19.87994-10.31934-2.07712z" fill="none"/><path d="m301.01134 345.49199c16.58881 2.26312 16.20714 8.99107 16.4745 16.52383-1.53723-.10644-3.44499-.23656-5.375-.1875-1.04794 9.09222-5.26492 8.10502-7.125.0625h-6c-.1637-2.33257-.09076-5.15195-.59807-7.65504" fill="#008c8d"/><path d="m298.37451 354.19016c-3.33616-8.39535-10.19982-15.535-15.8887-22.51807 10.83772 3.59255 14.46842 11.79299 18.58958 13.83333" fill="#ef1818"/></g><path d="m304.78815 351.15586c-1.37755.07239-1.42635-1.4216-2.33296.61602-.69331 1.55822 1.43027 1.85482 1.65564 2.60051.51901 1.71728 1.03025 4 3.5625 4 2.001 0 5.59375-2.2685 5.625-3.90625-.46875-1.26275-3.81238-3.10938-5.8125-3.16855-.79241-.02344-2.38676-.15807-2.69768-.14173zm3.09321.99464c1.39725 0 2.81802.61522 2.85447 1.75314.0625 2.0135-1.634 2.6875-3.03125 2.6875s-2.53125-1.549-2.53125-2.6875 1.31078-1.75314 2.70803-1.75314z" opacity=".99" stroke-width="1.042"/><path d="m312.19476 348.86809c1.13677 4.07231 1.80286 8.67782 1.10355 12.96025l4.25.25c.17505-5.49864-1.63885-9.95122-5.35355-13.21025z" stroke-width=".601"/></g><path d="m298.54442 353.82051c7.33456-.58646 3.64928-6.80494 2.43751-8.02734-3.29579 2.02724-3.14714 6.22786-2.43751 8.02734z" fill="#ef1818"/><path d="m304.90121 361.88894c2.41667 7.37798 5.12106 8.70007 7.35023-.07622-2.19821.73059-5.23654.72144-7.35023.07622z" stroke="#000" stroke-linecap="round" stroke-linejoin="round" stroke-width=".601"/><path d="m303.52507 360.18158c.17933.94056.57396 1.41158-.36909 1.40524-.59419-.00399-.27677-.5815-.45609-1.52207s-.2838-1.01845.14754-1.1007c.43134-.08224.49832.27696.67764 1.21753z" style="opacity:.99;fill:none;stroke:#000;stroke-width:1.042;stroke-linecap:round;stroke-linejoin:round"/><path d="m297.19163 346.80654c1.21056 1.97577 1.92824 4.37401 2.5625 6.84375 1.77977-1.43146 2.17522-1.64675 3.21875-3.53125-.48917-3.07843-1.24258-2.89131-2.09485-3.18371-1.197-.41066-2.23503-.26377-3.6864-.12879z" fill="#de1010"/><g stroke-linecap="round" stroke-linejoin="round"><path d="m321.05138 374.09418c-3.1102.41666-5.40102 2.22626-7.33624 4.64039 1.91743 4.27651-.12572 4.22114-1.85615 4.50781.29635 2.18024 1.23752 4.36049 3.18198 6.54073-1.76777-.4793-3.53553-.69909-5.3033-.7071 2.91833 2.68111 3.85563 5.36223 5.21491 8.04334-1.41421-.81666-2.82843-.97315-4.24264-.97228 1.77142 2.34001 2.69107 5.21238 3.53553 8.13173l-3.44714-.17677c1.13574 3.76027 2.1604 8.23245 1.02655 12.21667-2.06256 7.2476-.96536 12.77053.73746 17.40748 4.37947 11.92567 10.08701 18.97075 13.08523 26.76761 1.79882-5.59013 3.75365-10.99304 4.41942-17.94283 3.23558 5.95306 2.98593 14.47416 3.05654 22.80302.10252 12.09284 1.60889 14.33545 10.2901 17.14851-5.71578-4.5962 3.29948-81.83617-22.36225-108.40831z" stroke="#000" stroke-width=".601"/><g fill="#008e8e" stroke="#008e8e" stroke-width=".201"><path d="m319.54877 385.62886c3.08647 23.0517-3.9736 25.68943-3.00137 38.36426.6048 7.88478 3.63428 15.67189 7.50918 23.24242 1.11546-14.16137.07119-42.99164-.70711-47.0226 2.99472.59305 3.46787 1.61827 3.97728 23.15551.20952 8.94656-.58878 29.28831-2.38629 30.76138 0 0-11.92637-18.11604-11.93242-28.90299-.00255-4.51028 2.59263-14.68871 3.32274-23.69254.69701-8.50729-1.72795-13.34301 3.21799-15.90544z"/><path d="m340.5852 479.67406c-1.50077-3.9813-1.44094-10.00465-1.6729-22.26309-.09762-5.15902-.19539-11.334-.6252-19.10266-1.17635-21.26264-6.45709-52.27296-18.38477-60.81118.01209 1.94745.16597 3.98216 3.18198 7.77818-.97227-.79281-1.94455-.55576-2.91682-.44194 10.36453 9.76362 10.74776 23.1426 12.37437 35.70889 1.236 9.54869 2.43395 21.00891 3.29434 31.2103 1.37335 16.28337-.63565 25.70827 4.749 27.9215z"/></g></g><g transform="translate(-400.4664 -15.187185)"><path d="m698.93086 317.83925c6.07722 7.06745 3.12577 9.70263-3.71231 10.42982 1.99552 2.89998 6.36615 4.66487 9.01561 0 2.885 1.87738 3.07026 5.55456 3.97748 8.75045 1.79414-2.53689 5.623-2.86227 2.82843-9.89949 4.49402 1.11549 5.00241-1.51786 5.74523-3.35875-7.27731 1.939-7.92548-6.46601-17.85444-5.92203z" fill="#003994"/><g stroke-linecap="round"><path d="m699.32861 327.56196c1.85429-.62483 3.6291-1.36585 4.72878-3.09359 1.58934.96744 2.95002 3.3068 4.37522 5.25912-.29199-1.34056-1.09531-2.68112-.70711-4.02168l3.57972 1.85615c-1.07685-1.56387-3.0554-2.76709-1.37001-5.43587l-3.27037-2.43068-3.53553-1.5026c-1.35162-.23912-2.70321-.29705-4.05482-.3646l1.93349 2.83946c.49036.80252 1.03938 1.5659 1.10486 2.65165l-.17678 1.591c.04062.47447-.07182.89493-.53032 1.19325z" fill="#012169" stroke="#012169" stroke-width=".201"/><path d="m698.93085 317.83925c6.07723 7.06744 3.12577 9.70262-3.7123 10.42982 1.99552 2.89998 6.36614 4.66487 9.0156 0 2.885 1.87737 3.07027 5.55456 3.97748 8.75045 1.79414-2.53689 5.62301-2.86228 2.82844-9.8995 4.49402 1.11549 5.0024-1.51785 5.74523-3.35875-7.27731 1.939-7.92549-6.46601-17.85445-5.92202z" fill="none" stroke="#000" stroke-linejoin="round" stroke-width=".601"/></g></g><g transform="translate(-400.4664 -15.187185)"><path d="m683.63062 361.03702c-2.87067-.07293-5.61075.14794-6.62914 4.24264-2.1811-2.708-4.8944-3.81943-7.77816-4.41942.20616 2.53389.58501 4.89508.35355 7.86657-1.79782.64934-3.89205.5657-5.92202.08838 6.27242 10.62634 27.61282 9.45829 23.68807-7.15944.06851 16.88823-11.39373 5.79231-3.7123-.61873z" fill="#003994"/><g stroke-linecap="round"><path d="m680.89057 366.29614c-1.60065 5.00411-3.6624 6.39636-6.67332.35354-.45123 3.0749-2.0138 2.93934-3.49133 3.04941l7.91075 5.87781 2.2981-.50824 1.68138-.68114 1.89835-1.19709c.99904-.94095 1.34521-2.14928 2.05567-3.20566l.95397-3.64445-.51203-4.81716.06565 4.5078-.61872 2.07714c-.25869.60339-.53919 1.19224-.97228 1.67936-.42858.39086-.88252.65496-1.37001.75131l-1.37002-.44195-1.19324-1.32582z" fill="#012169" stroke="#012169" stroke-width=".201"/><path d="m683.63061 361.03702c-2.87066-.07293-5.61075.14793-6.62912 4.24264-2.18111-2.708-4.89441-3.81943-7.77818-4.41942.20616 2.53388.58501 4.89507.35356 7.86657-1.79782.64933-3.89205.5657-5.92202.08838 6.27243 10.62634 27.30033 9.45828 23.37557-7.15944.06851 16.88823-11.08123 5.7923-3.39981-.61873z" fill="none" stroke="#000" stroke-linejoin="round" stroke-width=".601"/></g></g><path d="m250.60217 348.01106-.35356 3.97746 5.87783 2.82844c-.94657-5.50955-1.05567-11.01909 0-16.52863-3.25878 2.14361-5.88223 4.77907-5.52427 9.72273z" fill="#012169" stroke="#000" stroke-linecap="round" stroke-linejoin="round" stroke-width=".601"/><g transform="translate(-400.4664 -15.187185)"><path d="m596.65625 350.06429c-3.90748-2.97218-.75274-7.05979 1.6875-8.4375-5.50412-.80432-9.78631 6.70557-3.125 9.6875-7.52806-.44508-9.47123.61925-10.9375 1.8125 1.43649 4.20933 10.14118 3.77548 15.375 1.5625-1.7537 1.30961-2.74629 3.21122-3 5.6875 5.95962.0797 7.72942-3.06463 10-5.9375z" fill="#012169"/><g stroke-linecap="round"><path d="m584.39536 353.00146c3.86102 1.93947 13.06444.75971 20.44839.75032l-6.625-2.87499-3.03125.40624-5.09375-.12499c-1.58929.17558-3.06478.57877-4.53125 1z" fill="#003994" stroke="#003994" stroke-width=".201"/><path d="m593.1875 350.03303c-1.32976-4.72376 1.08901-7.65501 5.09375-8.48706l-2.4375.14332c-1.1452.49727-2.10329 1.21282-3 2l-.96875 2.25-.125 1.71875z" fill="#003994" stroke="#003994" stroke-width=".201"/><path d="m596.65625 350.06428c-3.90748-2.97218-.75274-7.05979 1.6875-8.4375-5.50412-.80432-9.78631 6.70557-3.125 9.6875-7.52806-.44508-9.47123.61926-10.9375 1.8125 1.43649 4.20934 10.14118 3.77548 15.375 1.5625-1.7537 1.30962-2.74629 3.21122-3 5.6875 5.95962.0797 7.72942-3.06462 10-5.9375z" fill="none" stroke="#000" stroke-linejoin="round" stroke-width=".601"/></g></g><g transform="translate(-400.14733 -15.032116)"><path d="m616.9901 370.98079-2.17656 13.87697 15.1144 3.53554 7.33624-12.37437 7.15945-3.27037 9.14895-.69894 7.11948 4.09375c-2.46514-5.85461-3.40391-9.1803-9.24448-11.96875l-.25-25.625-7.75-6.875-26.875-.125c-5.96293 6.83657-13.79139 11.87088-21.4375 17-1.9213 1.28884-.9674 2.58542.06116 2.90847 8.70264 2.73335 17.95906 7.86984 21.79386 19.5227z" stroke="#000" stroke-linecap="round" stroke-linejoin="round" stroke-width=".601"/><path d="m625.98472 377.07829c3.58482-3.53234 7.40437-6.85598 12.275-9.10252l-6.875-15.25h-14.125l8 13.625-2.97148 1.36193" fill="#a5e7e7"/><path d="m622.22847 355.15546c2.13542-.02083 4.27083.05989 6.40625.03906l5 12.46875-4.9375 3.0625c-1.18097-5.50456-4.25341-10.43516-6.46875-15.57031z" fill="#ceefef"/><path d="m625.38472 355.17108 3.3125-.00781 5 12.4375-2.6875 1.6875c-1.614-5.09984-3.35061-10.00794-5.625-14.11719z" fill="#fff"/><path d="m626.50411 377.66421c1.91889-1.95156 4.69493-4.67882 7.60139-6.50347 1.5069.44683 2.67573 1.30849 4.06809 2.21349-3.58461 2.25458-6.53369 4.96568-8.3527 8.75045-1.2846-1.43281-2.38016-2.67968-3.31678-4.46047z" fill="#ceefef"/><path d="m648.51503 364.98515-6.49655-.00781c.06118 2.3296 1.31151 4.15196 3.71231 5.39169 4.12186-1.00847 7.08931-.5649 9.54594.13258-2.2177-2.05601-4.42957-4.14703-6.7617-5.51646z" fill="#ceefef"/><path d="m652.93444 365.06573-4.68067-.08448c2.43634 1.45275 4.37347 3.39689 6.22747 5.43198 1.92596.58991 3.60546 2.16569 5.3033 3.66811-1.99353-5.17901-4.25872-7.45872-6.8501-9.01561z" fill="#00c0dd"/><path d="m645.88472 370.41327c-6.04262-6.08876-6.39467-21.08176-7.25-23.5l-3.1875.40625c1.95992 9.34459 3.28643 20.55423 7.5625 24.03125z" fill="#fef600"/><path d="m638.79097 341.69452v4.40625l2.84375-1.1875.03125-4.3125z" fill="#fef600"/><path d="m638.44722 336.60077-1.3125 9.125-7.875.625 4-9.875z" fill="#797979"/><path d="m626.85988 341.99637-13.25825-.12153c1.90503-3.92167 5.80258-6.45416 10.92354-7.71752.41866-.22943.28472-.68471 0-.77215l-10.34902.61206 2.43068-2.47488 11.00435.0442.00491 5.12652z" fill="#ceefef"/><path d="m616.69723 337.9289 3.49999 3.54687-6.67187-.03125c1.08988-1.70486 1.86091-2.47444 3.17188-3.51562z" fill="#fff"/><path d="m634.32222 337.10077c-.06522 3.8599-1.16645 6.59963-3.75 8.5625l-4.0625.4375-.3125-8.5625z" fill="#fff"/><path d="m602.57222 345.10077 22.375.4375-.3125 1.4375-25.5625 2z" fill="#940010" stroke="#000" stroke-linecap="round" stroke-linejoin="round" stroke-width=".601"/><path d="m606.21285 341.25702 20.07812.01562-.03125 1.79688-20.5625.03125z" fill="#494949"/><g stroke="#000" stroke-linecap="round" stroke-linejoin="round" stroke-width=".601"><path d="m595.07222 351.35077c14.55881-.44856 28.64642-2.31074 42.5-4.875l-.03125-3.03125c-2.35747.57515-6.45993 1.20559-9.28125 1.40625l-.125-6.3125 10-.75 1.25-2.75-15.5625 1.125.1196 2.56275c1.11843.99952 1.29392 3.74904.21868 4.68605l.09922 2.1262c-7.80602 1.18889-15.42783 1.82516-23 2.3125l8.4375-6.84375-3.51484-.05335c-3.66114 2.65913-7.60823 5.33803-11.27708 7.73431-.24748.20804-.36949.34426-.58102.58545-.24721.27608-.29164.65303-.18956 1.01484.20314.46353.56006.77327.9375 1.0625z" fill="#fef600"/><path d="m616.78361 365.37509 1.41421 4.06586-3.44714 15.46796 15.1144 3.53554 7.33624-12.37437 7.15945-3.27037 9.14895-.69894 7.11948 4.09375c-2.46514-5.85461-3.40391-9.1803-9.24448-11.96875l-.25-25.625-7.75-6.875-26.875-.125c-5.9352 6.76725-13.71911 11.85413-21.4375 17-1.58324 1.05555-.87064 2.31472.03906 2.6875 4.05462 1.6615 10.72276 1.43186 16.14844 4.9375 5.4203 3.50217 5.52389 9.14932 5.52389 9.14932z" fill="none"/><path d="m616.88472 370.72577c-2.04041.52644-6.29293 11.97955-5.2933 15.22786.74236 1.20592 2.62079 2.5938 6.1683 2.77214-1.68315 1.53249-2.87189 3.67472-3.61612 5.44194 3.21412 2.45255 4.45063 2.99362 10.31174 3.59467.42895-1.74617.98406-4.46461.80438-7.53661 2.04167.50492 4.08333.97446 6.125.5 2.08861-13.27231 23.86389-25.03178 29.94822-9.71469.2461-20.91126-29.85114-10.23005-32.44822 4.83969l-11.875-1.5c1.77253-4.54167 2.09548-9.08333-.125-13.625z" fill="#fef600"/><path d="m622.18941 367.4289-8.86719-14.51563c-3.11322.0314-10.90752.04658-14.1105-.11924-2.70124-.88667.49551.00335-3.952-1.44326 21.49897 7.59282 20.16983 19.48078 25.625 30.875 1.71891-1.68738 3.49551-3.19899 5.21071-4.89008" fill="#ffc918"/><g fill="none"><path d="m620.24313 384.85338c-.26729 3.04307-1.19535 5.93289-2.16551 8.50738"/><path d="m623.5798 385.33951c.06245 2.5669-.92676 6.56573-1.72358 8.97142"/></g></g></g><g transform="translate(-400.64318 -15.275573)"><path d="m655.13432 334.20686c.24599 18.75382 15.22805 9.87362 17.32412 19.88738-3.89047 2.30784-8.0125 1.31604-12.37437-3.09359 3.85649 3.6927 5.27679 8.12192 4.06586 13.34664-3.65454-1.0859-7.99124-.76486-8.04334-9.28079-.72565 3.88496-1.02361 8.00587-5.03813 10.07628-3.27965-5.38771-3.84557-11.93845-.53033-20.15255-2.20181 3.14277-4.32731 6.39452-8.13173 7.24785-.5978-6.02621-.72945-9.66291 6.36396-17.05895-2.61437 2.98746-4.92912 6.42436-9.81111 6.0104-.39415-4.07694.48883-7.5579 3.62393-9.98787z" fill="#003994"/><path d="m639.48958 335.57687c2.84901.25044 9.14399-2.25968 8.66206 5.08234-.11102 1.69138-.6339 3.31436-1.72358 4.64038 2.36517-1.67354 3.69811.29814 5.03814 4.41943.85666 2.63465.39775 6.62913.39775 6.62913.60236-2.51291 1.00165-4.57026 4.59172-2.9635 1.49588.6695 2.72693 3.44496 4.82164 6.05708-1.32776-2.81369-2.7334-5.6274-1.19324-8.44108 3.26955 3.59961 8.37026 5.5267 12.28598 3.09359-1.47839-1.76676-7.62168-.1454-10.25305-3.75651 1.59785-1.35046 3.48356-1.26163 5.3033-1.5026l-4.94975-1.59099-2.29809-1.14906-2.69585-2.34228-1.5026-3.0494-1.06066-6.54073-12.46276-2.96101c-1.96199 1.60839-2.50184 2.99802-2.96101 4.37521z" fill="#012169"/><path d="m655.13432 334.20685c.24599 18.75383 15.22805 9.87364 17.32412 19.88739-3.89047 2.30783-8.0125 1.31603-12.37437-3.0936 3.85649 3.6927 5.27679 8.12193 4.06586 13.34664-3.65454-1.08588-7.99124-.76484-8.04334-9.28077-.72565 3.88495-1.02361 8.00587-5.03813 10.07626-3.27965-5.3877-3.84557-11.93845-.53033-20.15254-2.20181 3.14276-4.32731 6.39452-8.13173 7.24784-.5978-6.02621-.72945-9.66289 6.36396-17.05895-2.61437 2.98748-4.92912 6.42438-9.81111 6.01041-.39415-4.07695.48883-7.55791 3.62393-9.98788z" fill="none" stroke="#000" stroke-linecap="round" stroke-linejoin="round" stroke-width=".601"/></g><g transform="translate(-400.64213 -15.019923)"><path d="m613.95099 325.75415c-11.15143.50841-11.59945 16.75292 1.75001 8.68751 6.69899-4.05396 23.732-1.99752 32.12499-.0625 13.14336 3.03022 12.82174-4.49535 3.81251-7.9375-8.00245-3.05749-28.57233-1.10309-37.68751-.68751z" fill="#fff"/><g stroke="#000" stroke-linecap="round" stroke-linejoin="round" stroke-width=".601"><path d="m624.6385 332.19166-4.25-6.75c-2.97679-.11786-6.48375-.20126-9.34375.84374l5.53125 7.71876" fill="url(#k)"/><path d="m641.32599 333.16041-2.99999-8.40625-9.46875.0625 4.0625 7.46875" fill="url(#l)"/><path d="m647.3885 325.37916c6.67037.80952 10.74276 4.71802 10.6715 7.12359-.05923 1.99903-3.49656 3.61052-10.23401 1.86189z" fill="url(#m)"/><path d="m613.95099 325.75415c-11.15144.50842-11.59946 16.75292 1.75 8.6875 6.69899-4.05395 23.732-1.99752 32.125-.0625 13.14336 3.03022 12.82173-4.49534 3.8125-7.9375-8.00244-3.05748-28.57232-1.10308-37.6875-.6875z" fill="none"/></g></g><g transform="translate(-62.39134 96.544935)"><path d="m294.65048 209.81896c7.72446-8.96477 14.66599-19.45742 18.47316-28.46105 2.51894 3.06433 5.88463 4.73292 10.6066 4.33103-1.38575 8.50975-3.89629 16.50037-6.8059 24.3068" fill="none" stroke="#878383" stroke-linecap="round" stroke-linejoin="round" stroke-width=".4"/><path d="m267.73746 209.87671-.40265.83063-19.2231-9.31862c-.149-.47296.01024-.73251.40266-.83063z" fill="#ebb927"/><path d="m301.04175 205.37111h8.879317v4.176941h-8.879317z" fill="#fff" stroke="#847b7b" stroke-width=".94"/><path d="m301.9913 200.41336h3.03173v4.975272h-3.03173z" fill="#fff6c7" stroke="#514b4b" stroke-width=".94"/><path d="m285.06464 205.36913h8.975322v4.295338h-8.975322z" fill="#fff" stroke="#847b7b" stroke-width=".938014"/><path d="m329.37191 199.17771c.34755.09114.48322.50812.29954.78676l-16.54344 6.39461-.29954-.78676z" fill="#ebb927"/><path d="m324.15812 185.09586c.21469.06845.33209.29812.28899.53063l-11.41765 6.00204-.28899-.53063z" fill="#ebb927"/><path d="m258.05142 205.52546 16.93265-13.47256" fill="none" stroke="#878383" stroke-linecap="round" stroke-linejoin="round" stroke-width=".4"/><g fill="#ebb927"><path d="m284.03325 204.25846c.08146.3569.00799.70666-.22259.89584l-19.40628-4.81332c-.09331-.30311-.025-.66658.22259-.89584z"/><path d="m281.16425 186.23278c.02491.32433-.07614.66428-.28112.87923l-12.92228-4.12027c-.07619-.34162-.02625-.6204.28112-.87922z"/><path d="m301.33562 183.61077c.093.34903-.03203.71203-.24184.89084l-15.74197-4.26309c-.08557-.35794-.01871-.68386.24184-.89084z"/></g><g fill="none" stroke="#878383" stroke-linecap="round" stroke-linejoin="round" stroke-width=".4"><path d="m252.31736 202.81131c9.17728-5.50392 16.35012-11.59247 22.71091-17.91786"/><path d="m275.11665 187.72187c3.67304 7.46277 6.44224 15.09935 12.99309 22.0087"/><path d="m275.38182 185.51216c5.00497 8.33033 8.93668 17.07345 16.79378 24.3068"/></g><path d="m281.16426 193.48274c.02219.33994-.06139.71115-.28112.87923l-12.92228-4.12027c-.08765-.3967.05017-.67797.28113-.87923z" fill="#ebb927"/><path d="m279.53607 209.37702c4.96257-5.15232 10.0581-10.26666 14.23052-15.64474" fill="none" stroke="#878383" stroke-linecap="round" stroke-linejoin="round" stroke-width=".4"/><path d="m281.16424 197.60775c.00827.31215-.05509.76387-.28112.87922l-12.92228-4.12026c-.05257-.32621.03892-.69816.28112-.87922z" fill="#ebb927"/><path d="m293.76659 182.59535c-2.75261 5.19371-10.72349 12.80361-18.42896 17.50089" fill="none" stroke="#878383" stroke-linecap="round" stroke-linejoin="round" stroke-width=".4"/><path d="m301.33562 191.17329c.13726.37222.00699.71708-.24183.89084l-15.74197-4.26309c-.14895-.33991-.03636-.70925.24183-.89083z" fill="#ebb927"/><path d="m293.85498 189.7548c-5.59667 5.8642-12.03723 10.98999-18.56155 16.04249" fill="none" stroke="#878383" stroke-linecap="round" stroke-linejoin="round" stroke-width=".4"/><path d="m301.33561 194.98581c.16213.39627.03392.73627-.24183.89083l-15.74196-4.26308c-.14579-.28861-.08693-.71243.24182-.89083z" fill="#ebb927"/><g transform="matrix(1.1804528 -.00594232 .00594232 1.1804528 -159.00321 -86.60557)"><path d="m413.43602 234.08231c.04646.93622.12635 1.96606.14331 2.98557-2.01639-2.03322-3.43422-.67522-5.92523-1.02089-.04682-.61599.02979-2.52221-.00024-2.9829 5.77416.06208 3.91739-.85772 5.78216 1.01822z" fill="#012169" stroke-linecap="round" stroke-linejoin="round" stroke-width=".1"/><g clip-path="url(#a)" transform="matrix(.0767085 -.0008391 .0008391 .0767085 408.79613 233.61637)"><circle fill="#012169" r="20"/><path d="m-20-10 40 20m-40 0 40-20" stroke="#fff" stroke-width="3"/><path d="m-20-10 40 20m-40 0 40-20" stroke="#c8102e" stroke-width="2"/><path d="m0 0 20 10h-3l-20-10m3 0 20-10h3l-20 10m-3 0-20 10h-3l20-10m3 0-20-10h3l20 10" fill="#fff"/><path d="m-20 0h40m-20-10v20" stroke="#fff" stroke-width="5"/><path d="m-20 0h40m-20-10v20" stroke="#c8102e" stroke-width="3"/></g></g><path d="m274.63077 176.967c.24427-.20774.64321-.23586.92307 0v33.04615h-.92307z" fill="url(#n)"/><g fill="none" stroke="#878383" stroke-linecap="round" stroke-linejoin="round" stroke-width=".4"><path d="m319.39921 209.55379c-8.90853-10.47087-17.16471-21.23167-25.0139-32.17335 6.04517 11.09408 12.05823 22.19276 19.7106 33.05724"/><path d="m294.20853 177.29205c4.817 11.01819 8.82981 22.18716 15.37958 32.88046"/><path d="m323.73024 185.60055c.7272 4.93736 1.13378 9.95487 2.74004 14.67247"/></g><path d="m293.5515 175.05663c.25736-.2193.67767-.24898.97253 0v34.88286h-.97253z" fill="url(#o)"/><path d="m312.66346 181.09123c.24427-.18449.64321-.20945.92307 0v29.34604h-.92307z" fill="url(#p)"/><g stroke-linecap="round" transform="translate(-81 -44.75)"><path d="m344.61612 253.65558h63.01392v5.90555l-56.92161-.06154z" stroke="#000" stroke-linejoin="round" stroke-width=".101336"/><g stroke-width=".096428" transform="matrix(1.0084953 0 0 1 -3.453748 0)"><path d="m349.59265 256.66623h56.891636v.930305h-56.891636z" fill="#424242" stroke="#424242"/><path d="m349.59265 255.6355h56.891636v.930305h-56.891636z" fill="#949494" stroke="#949494"/></g></g></g><g transform="translate(-400.39665 -15.076695)"><path d="m573.96741 364.86258c.76348 11.12272 14.72294 2.52165 4.875-.6875 2.17681-1.68269 5.71367-1.92428 7.4375.9375 1.52705-4.22576 5.10029-5.04119 10.125-3.4375-1.2486 2.21174-2.11759 4.48191-5.4375 6.375 1.91586-.04086 3.3079.44209 4.5625 1.0625-6.41632 8.44777-26.14 6.30184-21.5625-4.25z" fill="#003994"/><g stroke-linecap="round"><path d="m578.99866 364.09304c2.6307.4731 6.28628 2.39964 8 4.80078 2.17711-3.38538 5.39707-5.57168 9.40625-7.12499l-.78125 1.46874-1.15625 1.87501-1.25 1.34374-1.1875.96876-.75.53124 1.90625.15626 2.46875.9375-3.5625 3.0625-3.59375 1.5625-4.53125.65624-5.25-.5625-2.34375-1.12499-2.59375-2.5-.625-1.93751.28125-2.21875.5625-1.18749.5 2.5625 1.46875 2.28125 1.46875.74999h1.9375l1.84375-.84374.875-1.21876.09375-1.875-.78125-.96875z" fill="#012169" stroke="#012169" stroke-width=".201"/><path d="m573.96741 364.86257c.76348 11.12273 14.72294 2.52166 4.875-.6875 2.17681-1.68268 5.71367-1.92428 7.4375.9375 1.52705-4.22575 5.10029-5.04119 10.125-3.4375-1.2486 2.21175-2.11759 4.48192-5.4375 6.375 1.91586-.04086 3.3079.4421 4.5625 1.0625-6.41632 8.44777-26.14 6.30184-21.5625-4.25z" fill="none" stroke="#000" stroke-linejoin="round" stroke-width=".601"/></g></g><g transform="translate(-400.4664 -15.187185)"><path d="m572.55762 322.22931c-14.41675-6.33449-23.99726 2.77276-25.89778 11.13694 1.99894-.48727 3.47727-1.4035 4.77296-3.0936-.16589 3.15362.26294 5.25343 1.59099 8.75045 2.44217-1.674 4.39631-2.46164 5.03815-6.89429 4.49145 4.56169 7.2046-.28839 8.30849-1.06066-8.18459-6.6714.76232-9.89039 6.18719-8.83884z" fill="#003994"/><g stroke-linecap="round"><path d="m555.45448 322.00834c.0226 2.18025-.25927 4.36049-.70712 6.54074 1.73586-3.16559 5.19671-2.30621 8.26432-2.36439l.61871-1.85615 2.45278-1.5468 2.51908-.59662 3.97746.17678-3.27037-1.32583-4.57409-.83969-3.95538.06629-3.40295.83969z" fill="#012169" stroke="#012169" stroke-width=".201"/><path d="m572.35874 322.2956c-14.41673-6.33449-23.79837 2.70647-25.6989 11.07065 1.99893-.48727 3.47727-1.4035 4.77297-3.0936-.1659 3.15362.26293 5.25343 1.59099 8.75045 2.44216-1.674 4.39631-2.46164 5.03814-6.89429 4.49144 4.56169 7.2046-.28839 8.3085-1.06066-8.18459-6.6714.56344-9.8241 5.9883-8.77255z" fill="none" stroke="#000" stroke-linejoin="round" stroke-width=".601"/></g></g><g fill="none" stroke="#000" stroke-linecap="round" stroke-linejoin="round" stroke-width=".601"><path d="m297.46992 331.10126-1.45803.05518"/><path d="m203.9086 346.29999 1.25-.75"/><path d="m210.4711 352.175.625-.87501"/></g></g></svg>